<svg version="1.1" xmlns="http://www.w3.org/2000/svg" viewBox="0 0 682.2592315673828 377.7778015136719" width="682.2592315673828" height="377.7778015136719">
  <!-- svg-source:excalidraw -->
  
  <defs>
    <style class="style-fonts">
      @font-face {
        font-family: "Virgil";
        src: url("https://excalidraw.com/Virgil.woff2");
      }
      @font-face {
        font-family: "Cascadia";
        src: url("https://excalidraw.com/Cascadia.woff2");
      }
    </style>
    
  </defs>
  <rect x="0" y="0" width="682.2592315673828" height="377.7778015136719" fill="#ffffff"></rect><g stroke-linecap="round" transform="translate(10 144.48150634765625) rotate(0 99.62962341308594 65.92594909667969)"><path d="M32 0 M32 0 C72.48 -1.27, 114.86 -1.14, 167.26 0 M32 0 C81.27 0.61, 132.25 0.04, 167.26 0 M167.26 0 C190.19 -1.03, 197.63 9.44, 199.26 32 M167.26 0 C188.61 1, 197.3 8.85, 199.26 32 M199.26 32 C199.64 49.7, 199.81 70.13, 199.26 99.85 M199.26 32 C198.75 49.56, 198.92 66.77, 199.26 99.85 M199.26 99.85 C199.22 120.02, 188.31 132.49, 167.26 131.85 M199.26 99.85 C200.4 121.49, 190.1 133.11, 167.26 131.85 M167.26 131.85 C124.8 133.68, 80.43 133.89, 32 131.85 M167.26 131.85 C122.24 131.9, 76.82 131.22, 32 131.85 M32 131.85 C11.85 133.61, -0.18 120.19, 0 99.85 M32 131.85 C12.91 130.64, 0.08 122.3, 0 99.85 M0 99.85 C0.8 85.46, -0.58 71.32, 0 32 M0 99.85 C0.52 77.13, -0.44 53.69, 0 32 M0 32 C1.67 9.98, 11.79 1.65, 32 0 M0 32 C-1.79 9.28, 10.98 2.28, 32 0" stroke="#1e1e1e" stroke-width="1" fill="none"></path></g><g stroke-linecap="round" transform="translate(448.5555877685547 10) rotate(0 111.85182189941406 178.88890075683594)"><path d="M32 0 M32 0 C77.64 -2.4, 125.59 -2.46, 191.7 0 M32 0 C79.82 0.94, 129.12 1.47, 191.7 0 M191.7 0 C212.02 0.75, 224.5 9.05, 223.7 32 M191.7 0 C212.49 -0.06, 224.5 8.4, 223.7 32 M223.7 32 C226.36 120.33, 224.38 205.31, 223.7 325.78 M223.7 32 C225.16 124.46, 225.89 216.94, 223.7 325.78 M223.7 325.78 C222.73 345.59, 211.88 358.98, 191.7 357.78 M223.7 325.78 C223.97 344.83, 212.09 356.15, 191.7 357.78 M191.7 357.78 C148.6 357.46, 108.62 360.15, 32 357.78 M191.7 357.78 C131.95 359.45, 72.05 359.13, 32 357.78 M32 357.78 C11.62 358.24, -1.73 348.2, 0 325.78 M32 357.78 C12.83 359.8, 0.06 347.55, 0 325.78 M0 325.78 C-0.61 238.26, 0.51 149.46, 0 32 M0 325.78 C-0.46 216.69, -1.39 106.83, 0 32 M0 32 C-1.98 12, 9.43 -0.46, 32 0 M0 32 C0.63 11.31, 10.32 -0.27, 32 0" stroke="#1e1e1e" stroke-width="1" fill="none"></path></g><g transform="translate(38.148162841796875 157.81484985351562) rotate(0 18.329986572265625 12.5)"><text x="0" y="0" font-family="Virgil, Segoe UI Emoji" font-size="20px" fill="#1e1e1e" text-anchor="start" style="white-space: pre;" direction="ltr" dominant-baseline="text-before-edge">NIC</text></g><g stroke-linecap="round"><g transform="translate(21.111114501953125 76.3333740234375) rotate(0 4.671735925022517 39.27532372748479)"><path d="M-0.23 -0.99 C1.64 12.2, 9.42 64.87, 11.15 78.18 M-1.81 1.1 C-0.02 14.55, 8.77 66.94, 10.61 79.54" stroke="#1e1e1e" stroke-width="1" fill="none"></path></g><g transform="translate(21.111114501953125 76.3333740234375) rotate(0 4.671735925022517 39.27532372748479)"><path d="M-5.58 54.61 C-0.42 60.69, 5.02 70.7, 11.73 80.32 M-4.37 52.48 C-0.08 60.65, 3.91 66.26, 11.28 80.34" stroke="#1e1e1e" stroke-width="1" fill="none"></path></g><g transform="translate(21.111114501953125 76.3333740234375) rotate(0 4.671735925022517 39.27532372748479)"><path d="M14.69 51.4 C13.86 58.38, 13.34 69.34, 11.73 80.32 M15.9 49.27 C15.3 58.07, 14.38 64.46, 11.28 80.34" stroke="#1e1e1e" stroke-width="1" fill="none"></path></g></g><mask></mask><g stroke-linecap="round"><g transform="translate(258.1481628417969 147.44448852539062) rotate(0 104.09082457045093 -6.953369193169266)"><path d="M0.74 -0.89 C11.7 -5.38, 32.11 -28.93, 66.74 -26.36 C101.36 -23.8, 184.98 8.1, 208.51 14.52 M-0.33 1.26 C10.46 -3.65, 31.5 -30.25, 66.21 -28.33 C100.92 -26.41, 184.3 5.97, 207.93 12.8" stroke="#1e1e1e" stroke-width="1" fill="none"></path></g><g transform="translate(258.1481628417969 147.44448852539062) rotate(0 104.09082457045093 -6.953369193169266)"><path d="M176.47 14.94 C189.84 13.71, 202.71 12.38, 205.96 12.24 M177.82 14.02 C187.88 13.03, 195.65 13.12, 207.2 12.02" stroke="#1e1e1e" stroke-width="1" fill="none"></path></g><g transform="translate(258.1481628417969 147.44448852539062) rotate(0 104.09082457045093 -6.953369193169266)"><path d="M182.98 -4.52 C193.97 1.68, 204.37 7.75, 205.96 12.24 M184.33 -5.45 C192.3 -0.62, 198.1 5.35, 207.2 12.02" stroke="#1e1e1e" stroke-width="1" fill="none"></path></g></g><mask></mask><g stroke-linecap="round"><g transform="translate(262.19099556839774 294.72952741992583) rotate(176.2854747088047 104.23261391522307 -15.407832615829934)"><path d="M-0.6 0.15 C24.53 -4.91, 115.26 -29.77, 150.21 -30.92 C185.15 -32.07, 199.3 -11.14, 209.07 -6.77 M1.28 -0.82 C26.4 -5.69, 115.25 -28.92, 149.74 -29.78 C184.22 -30.65, 198.35 -9.84, 208.19 -6.01" stroke="#1e1e1e" stroke-width="1" fill="none"></path></g><g transform="translate(262.19099556839774 294.72952741992583) rotate(176.2854747088047 104.23261391522307 -15.407832615829934)"><path d="M179.3 -11.63 C184.99 -11.6, 191.74 -10.28, 209.82 -4.51 M178.74 -13.67 C186.22 -10.29, 195.05 -10.14, 208.17 -6.6" stroke="#1e1e1e" stroke-width="1" fill="none"></path></g><g transform="translate(262.19099556839774 294.72952741992583) rotate(176.2854747088047 104.23261391522307 -15.407832615829934)"><path d="M190.71 -28.69 C193.48 -24.48, 197.4 -18.92, 209.82 -4.51 M190.15 -30.73 C194.68 -22.98, 200.54 -18.4, 208.17 -6.6" stroke="#1e1e1e" stroke-width="1" fill="none"></path></g></g><mask></mask><g stroke-linecap="round" transform="translate(483.3333435058594 136.3333740234375) rotate(0 88.14816284179688 17.777786254882812)"><path d="M8.89 0 M8.89 0 C64.23 -2.17, 119.45 -0.59, 167.41 0 M8.89 0 C67.69 0.78, 125.77 -0.08, 167.41 0 M167.41 0 C171.53 -0.28, 175.38 4.37, 176.3 8.89 M167.41 0 C171.62 -1.56, 175.89 1.99, 176.3 8.89 M176.3 8.89 C174.68 13.75, 176.91 19.66, 176.3 26.67 M176.3 8.89 C176.6 15.05, 176.8 20.64, 176.3 26.67 M176.3 26.67 C174.45 33.84, 172.45 36.28, 167.41 35.56 M176.3 26.67 C176.95 34.11, 175.41 36.2, 167.41 35.56 M167.41 35.56 C124.64 37.27, 80.78 33.65, 8.89 35.56 M167.41 35.56 C119.12 36.85, 72.16 37.42, 8.89 35.56 M8.89 35.56 C3.37 36, -1.73 33.27, 0 26.67 M8.89 35.56 C0.7 36.44, 0.37 34.79, 0 26.67 M0 26.67 C1.85 21.45, 0.13 14.62, 0 8.89 M0 26.67 C0.28 21.53, -0.24 15.47, 0 8.89 M0 8.89 C0.5 1.52, 4.47 1.32, 8.89 0 M0 8.89 C0.4 5.06, 0.85 0.81, 8.89 0" stroke="#1e1e1e" stroke-width="1" fill="none"></path></g><g stroke-linecap="round" transform="translate(512.9627990722656 137.07412719726562) rotate(0 18.148162841796875 17.500015258789062)"><path d="M8.75 0 M8.75 0 C13.52 -0.2, 16.59 -0.1, 27.55 0 M8.75 0 C16.34 -0.18, 22.96 0.14, 27.55 0 M27.55 0 C31.93 1.51, 37.61 3.27, 36.3 8.75 M27.55 0 C35.47 -2.11, 37.1 1.14, 36.3 8.75 M36.3 8.75 C34.84 15.12, 37.1 21.8, 36.3 26.25 M36.3 8.75 C36.63 12.56, 36.24 17.96, 36.3 26.25 M36.3 26.25 C36.65 31.45, 34.92 35.2, 27.55 35 M36.3 26.25 C37.93 33.5, 35.56 36.41, 27.55 35 M27.55 35 C21.91 34.52, 18.24 32.99, 8.75 35 M27.55 35 C21.21 35.37, 12.32 35.14, 8.75 35 M8.75 35 C3.47 35.52, -0.49 32.19, 0 26.25 M8.75 35 C1.9 33.8, -1.9 32.39, 0 26.25 M0 26.25 C-1.08 20.4, -0.08 17.95, 0 8.75 M0 26.25 C0.21 21.92, -0.03 18.23, 0 8.75 M0 8.75 C0.29 1.26, 2.02 0.97, 8.75 0 M0 8.75 C1.68 1.56, 4.34 -1.46, 8.75 0" stroke="#1e1e1e" stroke-width="1" fill="none"></path></g><g stroke-linecap="round" transform="translate(549.5185546875 137.27781677246094) rotate(0 18.148162841796875 17.500015258789062)"><path d="M8.75 0 M8.75 0 C11.87 -2.04, 17.15 -1.52, 27.55 0 M8.75 0 C14.31 0.2, 19.4 0.35, 27.55 0 M27.55 0 C32.97 -0.21, 36.57 4.78, 36.3 8.75 M27.55 0 C33.27 2.16, 34.87 4.06, 36.3 8.75 M36.3 8.75 C36.54 11.01, 37.65 17.37, 36.3 26.25 M36.3 8.75 C36.33 14.02, 36.27 18.92, 36.3 26.25 M36.3 26.25 C36.92 31.08, 31.73 35.96, 27.55 35 M36.3 26.25 C37.37 30.81, 32.09 34.18, 27.55 35 M27.55 35 C18.79 34.74, 13.83 33.93, 8.75 35 M27.55 35 C22.83 35.17, 16.52 35.66, 8.75 35 M8.75 35 C3.81 34.21, -0.76 30.26, 0 26.25 M8.75 35 C4.86 36.91, -1.44 32.87, 0 26.25 M0 26.25 C1.62 21.97, -1.22 15.87, 0 8.75 M0 26.25 C-0.7 22.2, -0.06 16, 0 8.75 M0 8.75 C-0.65 4.42, 1.01 -0.33, 8.75 0 M0 8.75 C-0.66 1.2, 4.86 -1.46, 8.75 0" stroke="#1e1e1e" stroke-width="1" fill="none"></path></g><g stroke-linecap="round" transform="translate(585.370361328125 138.12965393066406) rotate(0 18.148162841796875 17.500015258789062)"><path d="M8.75 0 M8.75 0 C12.82 -0.91, 16.19 -0.33, 27.55 0 M8.75 0 C14.86 0.02, 21.54 0.18, 27.55 0 M27.55 0 C33.42 1.4, 37.19 2.13, 36.3 8.75 M27.55 0 C32.51 -2.1, 38.24 4.83, 36.3 8.75 M36.3 8.75 C36.91 11.41, 38.03 17.3, 36.3 26.25 M36.3 8.75 C36.93 11.96, 35.62 17.66, 36.3 26.25 M36.3 26.25 C36.51 30.58, 32.73 36.5, 27.55 35 M36.3 26.25 C34.1 31.71, 32.72 33.29, 27.55 35 M27.55 35 C21.24 34.09, 13.57 35.52, 8.75 35 M27.55 35 C22.19 34.32, 17.21 35.82, 8.75 35 M8.75 35 C3.2 34.66, 1.6 31.47, 0 26.25 M8.75 35 C2.92 37.01, -1.51 31.59, 0 26.25 M0 26.25 C-0.29 19.73, 0.13 11.67, 0 8.75 M0 26.25 C-0.28 20.77, 0.04 16.44, 0 8.75 M0 8.75 C-1.95 2.95, 1.24 -0.6, 8.75 0 M0 8.75 C0.55 4.53, 4.89 1.57, 8.75 0" stroke="#1e1e1e" stroke-width="1" fill="none"></path></g><g stroke-linecap="round" transform="translate(484.9630126953125 236.19446563720703) rotate(0 88.14816284179688 17.777786254882812)"><path d="M8.89 0 M8.89 0 C71.18 -1.42, 135.14 -1.41, 167.41 0 M8.89 0 C71.86 0.22, 135.53 0.85, 167.41 0 M167.41 0 C173.15 0.44, 174.76 1.51, 176.3 8.89 M167.41 0 C173.44 1.91, 177.1 1.63, 176.3 8.89 M176.3 8.89 C175.54 14.43, 176.16 17.44, 176.3 26.67 M176.3 8.89 C177.12 16.04, 175.63 21.36, 176.3 26.67 M176.3 26.67 C177.2 34.37, 174.86 34.84, 167.41 35.56 M176.3 26.67 C174.9 34.09, 172.76 35.08, 167.41 35.56 M167.41 35.56 C127.68 36.37, 84.93 35.33, 8.89 35.56 M167.41 35.56 C127.76 35.91, 88.7 36.34, 8.89 35.56 M8.89 35.56 C2.8 37.46, 1.44 32.18, 0 26.67 M8.89 35.56 C4.7 34.32, -0.55 34.37, 0 26.67 M0 26.67 C0.33 23.44, 0.85 18.39, 0 8.89 M0 26.67 C-0.09 21.05, 0.6 14.15, 0 8.89 M0 8.89 C-0.77 4.9, 3.56 0.04, 8.89 0 M0 8.89 C0.49 2.54, 1.37 1.66, 8.89 0" stroke="#1e1e1e" stroke-width="1" fill="none"></path></g><g stroke-linecap="round" transform="translate(514.5924682617188 236.93521881103516) rotate(0 18.148162841796875 17.500015258789062)"><path d="M8.75 0 M8.75 0 C15.48 -0.65, 23.39 0.03, 27.55 0 M8.75 0 C14.47 0.48, 19.08 0.24, 27.55 0 M27.55 0 C31.84 -1.46, 36.39 4.57, 36.3 8.75 M27.55 0 C34.18 -1.33, 35.73 3.5, 36.3 8.75 M36.3 8.75 C36.04 12.17, 37.27 18.25, 36.3 26.25 M36.3 8.75 C35.78 11.92, 36.85 16.53, 36.3 26.25 M36.3 26.25 C37.82 31.37, 32.17 36.31, 27.55 35 M36.3 26.25 C35.72 31.6, 32.42 35.91, 27.55 35 M27.55 35 C21.1 34.64, 14.76 33.63, 8.75 35 M27.55 35 C20.54 34.92, 14.33 35.81, 8.75 35 M8.75 35 C4.35 34.59, 1.51 31.01, 0 26.25 M8.75 35 C2.37 36.78, -1.09 31.61, 0 26.25 M0 26.25 C0.77 21.61, 0.88 16.79, 0 8.75 M0 26.25 C0.71 19.59, -0.34 13.8, 0 8.75 M0 8.75 C0.6 2.95, 3.34 -0.37, 8.75 0 M0 8.75 C-1.59 4.58, 3.66 -2.02, 8.75 0" stroke="#1e1e1e" stroke-width="1" fill="none"></path></g><g stroke-linecap="round" transform="translate(551.1482238769531 237.13890838623047) rotate(0 18.148162841796875 17.500015258789062)"><path d="M8.75 0 M8.75 0 C15.5 0.03, 18.14 -0.06, 27.55 0 M8.75 0 C14.03 0.12, 18.75 -0.78, 27.55 0 M27.55 0 C33.47 1.66, 37 1.76, 36.3 8.75 M27.55 0 C32.81 0.58, 35.49 1.88, 36.3 8.75 M36.3 8.75 C37.33 14.86, 34.53 22.09, 36.3 26.25 M36.3 8.75 C36.56 16.26, 36.83 21.9, 36.3 26.25 M36.3 26.25 C35.08 33.39, 32.88 34.58, 27.55 35 M36.3 26.25 C35.34 33, 33.69 36.4, 27.55 35 M27.55 35 C20.34 33.53, 16.07 33.97, 8.75 35 M27.55 35 C22.64 35.89, 18.55 34.81, 8.75 35 M8.75 35 C4.43 33.92, -0.48 33.63, 0 26.25 M8.75 35 C1.83 34.52, 0.12 32.46, 0 26.25 M0 26.25 C0.82 20.98, 1.32 13.33, 0 8.75 M0 26.25 C-0.48 20.6, 0.12 13.26, 0 8.75 M0 8.75 C0.42 2.55, 1.53 1.45, 8.75 0 M0 8.75 C0.74 0.9, 2.74 1.74, 8.75 0" stroke="#1e1e1e" stroke-width="1" fill="none"></path></g><g stroke-linecap="round" transform="translate(587.0000305175781 237.9907455444336) rotate(0 18.148162841796875 17.500015258789062)"><path d="M8.75 0 M8.75 0 C13.24 -0.13, 18.31 1.04, 27.55 0 M8.75 0 C14.58 -0.73, 21.89 0.74, 27.55 0 M27.55 0 C34.08 -1.16, 35.8 3.42, 36.3 8.75 M27.55 0 C32.58 -1.04, 37.13 2.69, 36.3 8.75 M36.3 8.75 C34.66 14.35, 37.88 15.46, 36.3 26.25 M36.3 8.75 C37.04 13.02, 35.84 18.49, 36.3 26.25 M36.3 26.25 C35.8 31.67, 32.55 35.8, 27.55 35 M36.3 26.25 C36.61 33.48, 34.07 34.33, 27.55 35 M27.55 35 C23.25 33.87, 16.29 33.98, 8.75 35 M27.55 35 C22.58 34.99, 16.97 34.67, 8.75 35 M8.75 35 C2.44 36.55, -0.95 31.67, 0 26.25 M8.75 35 C3.04 35.38, 1.64 33.14, 0 26.25 M0 26.25 C1.31 20.36, 1.16 15.78, 0 8.75 M0 26.25 C0.33 21.04, 0.25 15.64, 0 8.75 M0 8.75 C-1.39 4.36, 3.56 -1.76, 8.75 0 M0 8.75 C-0.18 4.66, 4.91 -2.12, 8.75 0" stroke="#1e1e1e" stroke-width="1" fill="none"></path></g><g stroke-linecap="round"><g transform="translate(502.5925598144531 148.92596435546875) rotate(0 -1.2589845103863553 -35.66292834915221)"><path d="M-1.17 0.17 C-1.66 -11.67, -2.83 -59.9, -2.93 -71.49 M0.42 -0.79 C0.32 -12.48, -0.14 -58.81, -0.59 -70.55" stroke="#1e1e1e" stroke-width="1" fill="none"></path></g><g transform="translate(502.5925598144531 148.92596435546875) rotate(0 -1.2589845103863553 -35.66292834915221)"><path d="M10.57 -43.77 C5.26 -50.32, 5.54 -61.06, 0.78 -69.92 M9.3 -42.75 C7 -51.05, 4.56 -59.57, -0.51 -70.29" stroke="#1e1e1e" stroke-width="1" fill="none"></path></g><g transform="translate(502.5925598144531 148.92596435546875) rotate(0 -1.2589845103863553 -35.66292834915221)"><path d="M-9.95 -43.32 C-9.1 -49.8, -2.67 -60.68, 0.78 -69.92 M-11.22 -42.3 C-7.42 -50.83, -3.77 -59.48, -0.51 -70.29" stroke="#1e1e1e" stroke-width="1" fill="none"></path></g></g><mask></mask><g stroke-linecap="round" transform="translate(463.3333435058594 33.37040710449219) rotate(0 36.66668701171875 18.518516540527344)"><path d="M9.26 0 M9.26 0 C26.33 -0.38, 47.83 -0.87, 64.07 0 M9.26 0 C22.74 -0.51, 38.3 -0.05, 64.07 0 M64.07 0 C70.66 -0.22, 71.54 2.22, 73.33 9.26 M64.07 0 C69.44 -0.08, 73.52 3.58, 73.33 9.26 M73.33 9.26 C73.34 14.95, 74.04 20.97, 73.33 27.78 M73.33 9.26 C72.77 13.66, 72.83 18.9, 73.33 27.78 M73.33 27.78 C75.02 34.3, 69.13 37.27, 64.07 37.04 M73.33 27.78 C72.66 33.5, 71 39.18, 64.07 37.04 M64.07 37.04 C49.01 37.8, 32.94 35.38, 9.26 37.04 M64.07 37.04 C44.36 36.23, 24.15 36.05, 9.26 37.04 M9.26 37.04 C4.24 38.58, -1.05 35.35, 0 27.78 M9.26 37.04 C2.9 36.79, -0.84 32.75, 0 27.78 M0 27.78 C-0.67 21.51, -1.38 11.69, 0 9.26 M0 27.78 C0 21.39, -0.18 14.49, 0 9.26 M0 9.26 C0.17 3.51, 3 -0.21, 9.26 0 M0 9.26 C1.49 2.62, 4.25 0.9, 9.26 0" stroke="#1e1e1e" stroke-width="1" fill="none"></path></g><g stroke-linecap="round"><g transform="translate(532.2221984863281 148.92596435546875) rotate(0 17.237184235518797 -37.16617783941328)"><path d="M-0.55 0.12 C4.77 -12.21, 27.16 -62.2, 32.66 -74.45 M1.37 -0.87 C7.02 -12.98, 29.44 -60.69, 35.02 -73.11" stroke="#1e1e1e" stroke-width="1" fill="none"></path></g><g transform="translate(532.2221984863281 148.92596435546875) rotate(0 17.237184235518797 -37.16617783941328)"><path d="M32.73 -44.33 C32.94 -55.48, 35.61 -63.26, 33.97 -71.71 M32.01 -42.35 C33.3 -52.22, 33.66 -60.18, 34.28 -74.06" stroke="#1e1e1e" stroke-width="1" fill="none"></path></g><g transform="translate(532.2221984863281 148.92596435546875) rotate(0 17.237184235518797 -37.16617783941328)"><path d="M14.09 -52.92 C21 -60.88, 30.41 -65.56, 33.97 -71.71 M13.38 -50.94 C20.1 -58.24, 25.9 -63.69, 34.28 -74.06" stroke="#1e1e1e" stroke-width="1" fill="none"></path></g></g><mask></mask><g stroke-linecap="round" transform="translate(567.0371398925781 33.037071228027344) rotate(0 36.66668701171875 18.518516540527344)"><path d="M9.26 0 M9.26 0 C29.84 -1.18, 46.87 -1.49, 64.07 0 M9.26 0 C22.61 -0.76, 36.3 -0.2, 64.07 0 M64.07 0 C68.92 0.21, 72.68 2.19, 73.33 9.26 M64.07 0 C71.55 -2.29, 73.42 3.17, 73.33 9.26 M73.33 9.26 C73.05 17.82, 72.66 24.22, 73.33 27.78 M73.33 9.26 C73.19 15.62, 73.02 22.91, 73.33 27.78 M73.33 27.78 C71.6 35.42, 70.62 35.28, 64.07 37.04 M73.33 27.78 C73.53 34.29, 68.65 37.52, 64.07 37.04 M64.07 37.04 C42.96 36.95, 24.27 37.3, 9.26 37.04 M64.07 37.04 C52.56 37.68, 39.89 36.03, 9.26 37.04 M9.26 37.04 C2.54 36.42, 1.7 35.92, 0 27.78 M9.26 37.04 C2.08 35.98, 1.55 32.02, 0 27.78 M0 27.78 C0.9 21.65, 0.64 14.53, 0 9.26 M0 27.78 C0.47 22.82, -0.14 19.71, 0 9.26 M0 9.26 C1.64 2.3, 3.23 -1.53, 9.26 0 M0 9.26 C0.1 3.66, 4.98 -1.21, 9.26 0" stroke="#1e1e1e" stroke-width="1" fill="none"></path></g><g transform="translate(527.7778015136719 191.888916015625) rotate(0 48.189971923828125 12.5)"><text x="0" y="0" font-family="Virgil, Segoe UI Emoji" font-size="20px" fill="#1e1e1e" text-anchor="start" style="white-space: pre;" direction="ltr" dominant-baseline="text-before-edge">DMA ring </text></g></svg>