<svg version="1.1" xmlns="http://www.w3.org/2000/svg" viewBox="0 0 812.6263427734375 558.518497467041" width="812.6263427734375" height="558.518497467041">
  <!-- svg-source:excalidraw -->
  
  <defs>
    <style class="style-fonts">
      @font-face {
        font-family: "Virgil";
        src: url("https://excalidraw.com/Virgil.woff2");
      }
      @font-face {
        font-family: "Cascadia";
        src: url("https://excalidraw.com/Cascadia.woff2");
      }
    </style>
    
  </defs>
  <rect x="0" y="0" width="812.6263427734375" height="558.518497467041" fill="#ffffff"></rect><g stroke-linecap="round" transform="translate(195.18521118164062 10) rotate(0 260.3704376220703 269.2592487335205)"><path d="M32 0 M32 0 C191.13 2.72, 348.79 2.16, 488.74 0 M32 0 C165.08 -0.35, 297.88 -0.65, 488.74 0 M488.74 0 C508.85 1.19, 522.73 9.65, 520.74 32 M488.74 0 C508.97 -0.89, 520.41 11.81, 520.74 32 M520.74 32 C519.9 162.28, 521.16 291.76, 520.74 506.52 M520.74 32 C520.41 127.65, 520.17 224.25, 520.74 506.52 M520.74 506.52 C519.31 527.8, 508.53 539.51, 488.74 538.52 M520.74 506.52 C519.59 526.9, 507.92 537.83, 488.74 538.52 M488.74 538.52 C374.78 536.6, 259.79 536.45, 32 538.52 M488.74 538.52 C345.31 536.83, 201 536.92, 32 538.52 M32 538.52 C10.02 536.87, -1.63 529.85, 0 506.52 M32 538.52 C11.03 536.96, 0.54 528.84, 0 506.52 M0 506.52 C0.93 343.22, 1.35 181.24, 0 32 M0 506.52 C2.06 363.94, 2.03 220.44, 0 32 M0 32 C-1.45 12.47, 11.23 -1.82, 32 0 M0 32 C-1.94 9.04, 10.18 -1.15, 32 0" stroke="#1e1e1e" stroke-width="1" fill="none"></path></g><g stroke-linecap="round"><g transform="translate(58.148162841796875 445.5680310308758) rotate(0 69.03389771035873 0.6697898661963109)"><path d="M-0.6 -0.91 C22.31 -0.76, 113.62 0.44, 136.58 0.64 M1.29 1.23 C24.61 1.62, 116.19 2.2, 138.67 2.24" stroke="#1e1e1e" stroke-width="1" fill="none"></path></g><g transform="translate(58.148162841796875 445.5680310308758) rotate(0 69.03389771035873 0.6697898661963109)"><path d="M108.92 10.38 C117.13 9.22, 123.04 6.54, 136.77 3.26 M110.22 12.09 C115.1 10.15, 121.22 9.1, 138.95 2.02" stroke="#1e1e1e" stroke-width="1" fill="none"></path></g><g transform="translate(58.148162841796875 445.5680310308758) rotate(0 69.03389771035873 0.6697898661963109)"><path d="M109.02 -10.14 C117.17 -6.6, 123.05 -4.58, 136.77 3.26 M110.31 -8.43 C115.39 -6.26, 121.48 -3.2, 138.95 2.02" stroke="#1e1e1e" stroke-width="1" fill="none"></path></g></g><mask></mask><g transform="translate(10 433.7036476135254) rotate(0 18.329986572265625 12.5)"><text x="0" y="0" font-family="Virgil, Segoe UI Emoji" font-size="20px" fill="#1e1e1e" text-anchor="start" style="white-space: pre;" direction="ltr" dominant-baseline="text-before-edge">NIC</text></g><g stroke-linecap="round" transform="translate(206.29638671875 429.777774810791) rotate(0 54 19)"><path d="M9.5 0 M9.5 0 C39.41 0.7, 65.95 1.54, 98.5 0 M9.5 0 C28.83 -0.1, 45.99 -0.24, 98.5 0 M98.5 0 C106.62 -0.01, 107.15 2.65, 108 9.5 M98.5 0 C103.84 -1.85, 108.41 4.62, 108 9.5 M108 9.5 C106.01 15.43, 106.07 25.33, 108 28.5 M108 9.5 C108.03 17.61, 107.65 24.98, 108 28.5 M108 28.5 C106.63 35.18, 106.15 40, 98.5 38 M108 28.5 C109.14 33.18, 105.61 39.87, 98.5 38 M98.5 38 C67.97 38.73, 36.89 38.67, 9.5 38 M98.5 38 C77.69 39.7, 55.98 39.38, 9.5 38 M9.5 38 C3.89 37.05, 0.79 34.97, 0 28.5 M9.5 38 C1.16 39.6, -1.8 35.59, 0 28.5 M0 28.5 C-0.51 22.23, 1.36 17.45, 0 9.5 M0 28.5 C0.79 20.96, -0.01 13.08, 0 9.5 M0 9.5 C1.49 4.75, 2.61 0.2, 9.5 0 M0 9.5 C-0.91 2.1, 3.38 -0.56, 9.5 0" stroke="#1e1e1e" stroke-width="1" fill="none"></path></g><g transform="translate(231.00641632080078 436.277774810791) rotate(0 29.28997039794922 12.5)"><text x="29.28997039794922" y="0" font-family="Virgil, Segoe UI Emoji" font-size="20px" fill="#1e1e1e" text-anchor="middle" style="white-space: pre;" direction="ltr" dominant-baseline="text-before-edge">Driver</text></g><g stroke-linecap="round"><g transform="translate(312.96295166015625 447.7777442932129) rotate(0 32.744590638522055 -0.13122316561639025)"><path d="M0.34 1.15 C11.3 0.92, 55.52 -0.99, 66.42 -1.41 M-0.93 0.71 C9.84 0.63, 54.76 -0.05, 65.74 -0.23" stroke="#1e1e1e" stroke-width="1" fill="none"></path></g><g transform="translate(312.96295166015625 447.7777442932129) rotate(0 32.744590638522055 -0.13122316561639025)"><path d="M39.63 11.3 C46.65 6.3, 56.78 2.86, 65.93 -1.75 M38.33 10.17 C48.04 6.59, 57.82 2.76, 65 -0.75" stroke="#1e1e1e" stroke-width="1" fill="none"></path></g><g transform="translate(312.96295166015625 447.7777442932129) rotate(0 32.744590638522055 -0.13122316561639025)"><path d="M39.31 -9.22 C46.44 -6.85, 56.68 -2.93, 65.93 -1.75 M38.01 -10.35 C47.79 -6.79, 57.68 -3.48, 65 -0.75" stroke="#1e1e1e" stroke-width="1" fill="none"></path></g></g><mask></mask><g stroke-linecap="round" transform="translate(380.77777099609375 430.18518447875977) rotate(0 54 19)"><path d="M9.5 0 M9.5 0 C39.3 -1.29, 68.49 -2.19, 98.5 0 M9.5 0 C44.31 1.19, 78.11 1.36, 98.5 0 M98.5 0 C103.7 1.14, 106.64 4.86, 108 9.5 M98.5 0 C105.68 0.87, 107.35 2.3, 108 9.5 M108 9.5 C107.75 13.16, 108.12 19.03, 108 28.5 M108 9.5 C107.99 14.16, 108.46 19.18, 108 28.5 M108 28.5 C108.17 33.72, 103.6 37.83, 98.5 38 M108 28.5 C108.57 34.14, 104.73 35.94, 98.5 38 M98.5 38 C65.45 37.37, 36.35 39.4, 9.5 38 M98.5 38 C69.95 38.11, 41.75 37.85, 9.5 38 M9.5 38 C3.67 39.27, 1.2 35.73, 0 28.5 M9.5 38 C1.67 39.26, 1.14 34.84, 0 28.5 M0 28.5 C0.59 21.83, -0.59 17.88, 0 9.5 M0 28.5 C0.36 20.26, 0.53 14.33, 0 9.5 M0 9.5 C-1.92 3.96, 3.87 -0.88, 9.5 0 M0 9.5 C1.94 2.84, 5.07 -2.24, 9.5 0" stroke="#1e1e1e" stroke-width="1" fill="none"></path></g><g transform="translate(408.06778717041016 436.68518447875977) rotate(0 26.709983825683594 12.5)"><text x="26.709983825683594" y="0" font-family="Virgil, Segoe UI Emoji" font-size="20px" fill="#1e1e1e" text-anchor="middle" style="white-space: pre;" direction="ltr" dominant-baseline="text-before-edge">INTR</text></g><g stroke-linecap="round"><g transform="translate(434.44451904296875 432.22217178344727) rotate(0 -0.9549206250110762 -32.331827611103655)"><path d="M0.5 0.65 C0.1 -10.05, -1.37 -54.31, -1.86 -65.32 M-0.7 -0.05 C-1.24 -10.47, -2.01 -53.16, -2.41 -63.85" stroke="#1e1e1e" stroke-width="1" fill="none"></path></g><g transform="translate(434.44451904296875 432.22217178344727) rotate(0 -0.9549206250110762 -32.331827611103655)"><path d="M9.69 -34.68 C4.85 -45.16, 0.97 -56.68, -1.85 -65.43 M8.95 -36.81 C4.82 -45.26, 0.45 -57.05, -2.08 -64.81" stroke="#1e1e1e" stroke-width="1" fill="none"></path></g><g transform="translate(434.44451904296875 432.22217178344727) rotate(0 -0.9549206250110762 -32.331827611103655)"><path d="M-10.82 -34.13 C-8.61 -44.88, -5.44 -56.59, -1.85 -65.43 M-11.56 -36.26 C-8.31 -44.71, -5.3 -56.7, -2.08 -64.81" stroke="#1e1e1e" stroke-width="1" fill="none"></path></g></g><mask></mask><g stroke-linecap="round" transform="translate(406.29632568359375 301.85181045532227) rotate(0 26.296295166015625 31.111114501953125)"><path d="M13.15 0 M13.15 0 C20.77 -1.12, 31.27 0.47, 39.44 0 M13.15 0 C21.28 -0.87, 30.42 0.71, 39.44 0 M39.44 0 C46.8 -1.08, 52.94 5.91, 52.59 13.15 M39.44 0 C46.31 1.98, 54.66 4.31, 52.59 13.15 M52.59 13.15 C52.88 24.88, 52.52 36.23, 52.59 49.07 M52.59 13.15 C52.03 22.33, 52.33 33.04, 52.59 49.07 M52.59 49.07 C51.37 59.62, 48.1 62.08, 39.44 62.22 M52.59 49.07 C53.88 56.38, 46.05 61.51, 39.44 62.22 M39.44 62.22 C31.51 61.08, 23.46 61.35, 13.15 62.22 M39.44 62.22 C33.15 62.84, 28.24 61.76, 13.15 62.22 M13.15 62.22 C5.3 61.98, 0.61 58.23, 0 49.07 M13.15 62.22 C3.45 64.31, 2.25 59.34, 0 49.07 M0 49.07 C-0.29 38.77, -1.39 29.45, 0 13.15 M0 49.07 C-0.25 34.16, -0.2 20.32, 0 13.15 M0 13.15 C1.95 5.94, 5.05 -0.14, 13.15 0 M0 13.15 C1.15 3.93, 3.33 0.29, 13.15 0" stroke="#1e1e1e" stroke-width="1" fill="none"></path></g><g transform="translate(415.9826354980469 307.9629249572754) rotate(0 16.6099853515625 25)"><text x="16.6099853515625" y="0" font-family="Virgil, Segoe UI Emoji" font-size="20px" fill="#1e1e1e" text-anchor="middle" style="white-space: pre;" direction="ltr" dominant-baseline="text-before-edge">que</text><text x="16.6099853515625" y="25" font-family="Virgil, Segoe UI Emoji" font-size="20px" fill="#1e1e1e" text-anchor="middle" style="white-space: pre;" direction="ltr" dominant-baseline="text-before-edge">ue</text></g><g stroke-linecap="round"><g transform="translate(434.44451904296875 301.11108779907227) rotate(0 0.04815119808483459 -30.7661769811064)"><path d="M-0.66 0.83 C-0.61 -9.7, -0.61 -51.85, -0.61 -62.37 M1.2 0.22 C1.25 -10.25, -0.73 -51.03, -1.1 -61.29" stroke="#1e1e1e" stroke-width="1" fill="none"></path></g><g transform="translate(434.44451904296875 301.11108779907227) rotate(0 0.04815119808483459 -30.7661769811064)"><path d="M11.73 -32.11 C6.12 -38.5, 3.73 -44.18, -2.83 -62.53 M9.76 -34.16 C5.88 -43.32, 1.78 -52.21, -2.03 -60.43" stroke="#1e1e1e" stroke-width="1" fill="none"></path></g><g transform="translate(434.44451904296875 301.11108779907227) rotate(0 0.04815119808483459 -30.7661769811064)"><path d="M-8.77 -31.24 C-9.81 -37.71, -7.61 -43.59, -2.83 -62.53 M-10.74 -33.3 C-7.64 -42.72, -4.78 -51.89, -2.03 -60.43" stroke="#1e1e1e" stroke-width="1" fill="none"></path></g></g><mask></mask><g stroke-linecap="round" transform="translate(360.37042236328125 183.3332862854004) rotate(0 75.1851806640625 30)"><path d="M15 0 M15 0 C52.04 0.62, 90.02 -2.36, 135.37 0 M15 0 C61.04 0.44, 106.97 0.03, 135.37 0 M135.37 0 C145.99 -0.08, 151.64 5.51, 150.37 15 M135.37 0 C146.96 -1.45, 151.13 4.37, 150.37 15 M150.37 15 C148.56 24.79, 151.84 33.51, 150.37 45 M150.37 15 C150.27 24.85, 149.87 32.98, 150.37 45 M150.37 45 C149.77 55.85, 146.51 61.44, 135.37 60 M150.37 45 C149.65 56.56, 144.22 59.09, 135.37 60 M135.37 60 C104.09 62.11, 69.67 60.93, 15 60 M135.37 60 C94.46 59.02, 53.89 59.46, 15 60 M15 60 C5.93 60.37, -0.98 54.88, 0 45 M15 60 C4.78 58.73, 0.65 56.86, 0 45 M0 45 C1.69 34.5, -0.54 24.05, 0 15 M0 45 C-0.06 34.78, 0.64 26.95, 0 15 M0 15 C-1.51 6.45, 3.2 -1.96, 15 0 M0 15 C1.14 5.89, 7 1.43, 15 0" stroke="#1e1e1e" stroke-width="1" fill="none"></path></g><g transform="translate(379.05565643310547 188.3332862854004) rotate(0 56.49994659423828 25)"><text x="56.49994659423828" y="0" font-family="Virgil, Segoe UI Emoji" font-size="20px" fill="#1e1e1e" text-anchor="middle" style="white-space: pre;" direction="ltr" dominant-baseline="text-before-edge">Ip process </text><text x="56.49994659423828" y="25" font-family="Virgil, Segoe UI Emoji" font-size="20px" fill="#1e1e1e" text-anchor="middle" style="white-space: pre;" direction="ltr" dominant-baseline="text-before-edge">thread</text></g><g stroke-linecap="round"><g transform="translate(433.7037353515625 180.37036514282227) rotate(0 -0.9398408286087792 -15.709505266640335)"><path d="M-0.11 0.76 C-0.26 -4.15, -0.92 -25.01, -1.21 -30.61 M-1.63 0.12 C-1.85 -5.01, -1.62 -26.81, -1.77 -32.18" stroke="#1e1e1e" stroke-width="1" fill="none"></path></g><g transform="translate(433.7037353515625 180.37036514282227) rotate(0 -0.9398408286087792 -15.709505266640335)"><path d="M4.76 -16.33 C3.76 -21.27, -0.7 -26.49, -1.1 -32.61 M4.02 -17.56 C1.6 -22.4, -1.04 -28.67, -2.31 -32.89" stroke="#1e1e1e" stroke-width="1" fill="none"></path></g><g transform="translate(433.7037353515625 180.37036514282227) rotate(0 -0.9398408286087792 -15.709505266640335)"><path d="M-6.09 -16.26 C-4.09 -21.2, -5.56 -26.44, -1.1 -32.61 M-6.84 -17.49 C-5.24 -22.45, -3.87 -28.75, -2.31 -32.89" stroke="#1e1e1e" stroke-width="1" fill="none"></path></g></g><mask></mask><g stroke-linecap="round" transform="translate(375.9259033203125 107.03703689575195) rotate(0 58.888885498046875 17.5)"><path d="M8.75 0 M8.75 0 C42.99 -1.01, 80.18 -1.67, 109.03 0 M8.75 0 C41.65 -0.56, 75.46 -1.2, 109.03 0 M109.03 0 C114.09 1.88, 117.31 3.68, 117.78 8.75 M109.03 0 C117.15 1.75, 116.08 3.85, 117.78 8.75 M117.78 8.75 C119.43 12.87, 118.72 15.8, 117.78 26.25 M117.78 8.75 C118.54 15.26, 117.75 20.95, 117.78 26.25 M117.78 26.25 C119.53 33.36, 115.87 35.69, 109.03 35 M117.78 26.25 C116.12 32.27, 116.89 35.51, 109.03 35 M109.03 35 C76.41 37.31, 44.51 34.78, 8.75 35 M109.03 35 C70.06 34.46, 31.52 35.01, 8.75 35 M8.75 35 C3.35 34.44, -0.7 33.62, 0 26.25 M8.75 35 C2.51 33.48, -2.15 30.77, 0 26.25 M0 26.25 C-1.69 18.59, -0.9 13.9, 0 8.75 M0 26.25 C0.38 19.09, -0.39 11.81, 0 8.75 M0 8.75 C-1.75 3.71, 3.73 1.6, 8.75 0 M0 8.75 C1.22 0.9, 3.76 -0.92, 8.75 0" stroke="#1e1e1e" stroke-width="1" fill="none"></path></g><g transform="translate(387.17481994628906 112.03703689575195) rotate(0 47.63996887207031 12.5)"><text x="47.63996887207031" y="0" font-family="Virgil, Segoe UI Emoji" font-size="20px" fill="#1e1e1e" text-anchor="middle" style="white-space: pre;" direction="ltr" dominant-baseline="text-before-edge">UDP/TCP</text></g><g stroke-linecap="round" transform="translate(407.77777099609375 18.888866424560547) rotate(0 23.703704833984375 30)"><path d="M11.85 0 M11.85 0 C19.54 0.78, 29.59 -1.32, 35.56 0 M11.85 0 C18.02 0.68, 24.48 1.06, 35.56 0 M35.56 0 C44.03 -1.53, 49.08 5.46, 47.41 11.85 M35.56 0 C45.31 -2.19, 48.56 4.35, 47.41 11.85 M47.41 11.85 C49.01 22.6, 47.59 29.78, 47.41 48.15 M47.41 11.85 C48.44 20.44, 47.02 29.83, 47.41 48.15 M47.41 48.15 C49.01 54.88, 43.61 58.86, 35.56 60 M47.41 48.15 C49.2 56.19, 44.79 59.47, 35.56 60 M35.56 60 C31.83 58.85, 26.23 61.27, 11.85 60 M35.56 60 C27.61 59.25, 19.76 59.1, 11.85 60 M11.85 60 C4.77 60.09, -0.91 56.82, 0 48.15 M11.85 60 C2.89 59.29, 0.71 57.04, 0 48.15 M0 48.15 C1.35 39.56, -0.91 27.67, 0 11.85 M0 48.15 C0.04 36.55, -1.09 23.55, 0 11.85 M0 11.85 C1.41 4.78, 2.33 -1.58, 11.85 0 M0 11.85 C0.77 4.78, 4.47 2.15, 11.85 0" stroke="#1e1e1e" stroke-width="1" fill="none"></path></g><g transform="translate(414.8714904785156 23.888866424560547) rotate(0 16.6099853515625 25)"><text x="16.6099853515625" y="0" font-family="Virgil, Segoe UI Emoji" font-size="20px" fill="#1e1e1e" text-anchor="middle" style="white-space: pre;" direction="ltr" dominant-baseline="text-before-edge">que</text><text x="16.6099853515625" y="25" font-family="Virgil, Segoe UI Emoji" font-size="20px" fill="#1e1e1e" text-anchor="middle" style="white-space: pre;" direction="ltr" dominant-baseline="text-before-edge">ue</text></g><g stroke-linecap="round"><g transform="translate(431.4814453125 108.51848220825195) rotate(0 0.08099429644644207 -16.530917185917488)"><path d="M-0.99 1.07 C-0.63 -4.71, 0.72 -28.28, 1.16 -34.13 M0.69 0.59 C0.96 -5.05, -0.01 -27.07, 0.04 -32.62" stroke="#1e1e1e" stroke-width="1" fill="none"></path></g><g transform="translate(431.4814453125 108.51848220825195) rotate(0 0.08099429644644207 -16.530917185917488)"><path d="M7.71 -17.18 C4.72 -19.91, 3.53 -23.52, -0.82 -33.81 M6.35 -17.1 C4.18 -19.49, 3.3 -24.18, -0.66 -32.34" stroke="#1e1e1e" stroke-width="1" fill="none"></path></g><g transform="translate(431.4814453125 108.51848220825195) rotate(0 0.08099429644644207 -16.530917185917488)"><path d="M-3.95 -16.95 C-4.46 -19.63, -3.18 -23.29, -0.82 -33.81 M-5.31 -16.87 C-4.91 -19.27, -3.22 -24.02, -0.66 -32.34" stroke="#1e1e1e" stroke-width="1" fill="none"></path></g></g><mask></mask><g stroke-linecap="round"><g transform="translate(489.25927734375 246.29626846313477) rotate(0 26.994691265001897 30.893273451868446)"><path d="M-1.2 0.62 C7.96 10.63, 45.91 50.35, 55.19 60.48 M0.37 -0.1 C9.46 10.05, 45.9 51.96, 54.83 61.89" stroke="#1e1e1e" stroke-width="1" fill="none"></path></g><g transform="translate(489.25927734375 246.29626846313477) rotate(0 26.994691265001897 30.893273451868446)"><path d="M29.52 49.39 C36.46 53.02, 46.39 58.78, 54.32 63.78 M28.93 47.9 C35.47 52.75, 43.46 55.25, 54.7 61.75" stroke="#1e1e1e" stroke-width="1" fill="none"></path></g><g transform="translate(489.25927734375 246.29626846313477) rotate(0 26.994691265001897 30.893273451868446)"><path d="M44.9 35.82 C47.02 43.6, 52.07 53.66, 54.32 63.78 M44.32 34.32 C46.17 43.23, 49.57 49.78, 54.7 61.75" stroke="#1e1e1e" stroke-width="1" fill="none"></path></g></g><mask></mask><g stroke-linecap="round" transform="translate(525.2963562011719 310.18515396118164) rotate(0 26.296295166015625 31.111114501953125)"><path d="M13.15 0 M13.15 0 C21.38 1.17, 29.46 1.27, 39.44 0 M13.15 0 C24.21 0.25, 33.3 -0.45, 39.44 0 M39.44 0 C46.72 -1.28, 51.85 4.89, 52.59 13.15 M39.44 0 C46.82 -0.46, 52.57 6.52, 52.59 13.15 M52.59 13.15 C51.44 26.5, 54.17 39.74, 52.59 49.07 M52.59 13.15 C52.42 21.29, 52.32 28.72, 52.59 49.07 M52.59 49.07 C51.03 58.11, 48.47 61.53, 39.44 62.22 M52.59 49.07 C53.9 55.73, 45.92 64.07, 39.44 62.22 M39.44 62.22 C30.3 61.87, 23.18 61.25, 13.15 62.22 M39.44 62.22 C30.99 62.62, 20.36 62.9, 13.15 62.22 M13.15 62.22 C3.11 64.16, 0.49 58.09, 0 49.07 M13.15 62.22 C4.78 61.99, 0.56 57.87, 0 49.07 M0 49.07 C0.07 38.67, -0.31 30.11, 0 13.15 M0 49.07 C0.87 41.16, -0.52 35.1, 0 13.15 M0 13.15 C1.38 5.96, 6.16 0.57, 13.15 0 M0 13.15 C-0.99 5.55, 2.21 -1.27, 13.15 0" stroke="#1e1e1e" stroke-width="1" fill="none"></path></g><g transform="translate(534.982666015625 316.29626846313477) rotate(0 16.6099853515625 25)"><text x="16.6099853515625" y="0" font-family="Virgil, Segoe UI Emoji" font-size="20px" fill="#1e1e1e" text-anchor="middle" style="white-space: pre;" direction="ltr" dominant-baseline="text-before-edge">que</text><text x="16.6099853515625" y="25" font-family="Virgil, Segoe UI Emoji" font-size="20px" fill="#1e1e1e" text-anchor="middle" style="white-space: pre;" direction="ltr" dominant-baseline="text-before-edge">ue</text></g><g stroke-linecap="round"><g transform="translate(555.1851806640625 370.00000381469727) rotate(0 0.6067384893380705 32.56353438322951)"><path d="M-0.39 -0.88 C-0.23 0, 0.45 -6.04, 0.58 5.1 C0.7 16.23, 0.39 55.74, 0.35 65.93 M1.6 1.28 C1.7 2.36, 0.24 -4.34, -0.07 6.59 C-0.37 17.52, -0.37 56.77, -0.23 66.86" stroke="#1e1e1e" stroke-width="1" fill="none"></path></g><g transform="translate(555.1851806640625 370.00000381469727) rotate(0 0.6067384893380705 32.56353438322951)"><path d="M-12.11 39.7 C-8.06 46.83, -6.36 54.31, -0.93 64.91 M-10.16 38.15 C-7.24 47.57, -4.19 58.27, 0.36 66.38" stroke="#1e1e1e" stroke-width="1" fill="none"></path></g><g transform="translate(555.1851806640625 370.00000381469727) rotate(0 0.6067384893380705 32.56353438322951)"><path d="M8.42 39.58 C7.01 46.68, 3.25 54.19, -0.93 64.91 M10.36 38.03 C6.46 47.66, 2.68 58.4, 0.36 66.38" stroke="#1e1e1e" stroke-width="1" fill="none"></path></g></g><mask></mask><g stroke-linecap="round" transform="translate(512.5556030273438 435.96298599243164) rotate(0 54 19)"><path d="M9.5 0 M9.5 0 C28.05 -0.53, 46.76 -2.69, 98.5 0 M9.5 0 C42.05 -0.3, 76.67 0.88, 98.5 0 M98.5 0 C104.11 0.7, 109.79 4.26, 108 9.5 M98.5 0 C103.99 1.71, 106.77 3.43, 108 9.5 M108 9.5 C108.34 16.27, 109.63 19.43, 108 28.5 M108 9.5 C107.94 14.41, 108.53 19.93, 108 28.5 M108 28.5 C106.67 34.87, 106.32 39.92, 98.5 38 M108 28.5 C109.49 32.71, 102.73 37.14, 98.5 38 M98.5 38 C64.75 39.44, 32 39.26, 9.5 38 M98.5 38 C77.63 39.5, 58.14 39.7, 9.5 38 M9.5 38 C5.06 37.36, -1.22 34.53, 0 28.5 M9.5 38 C2.88 39.59, 0.99 33.54, 0 28.5 M0 28.5 C1.74 24.4, -0.37 17.51, 0 9.5 M0 28.5 C0.25 22.12, -0.48 16.32, 0 9.5 M0 9.5 C-1.09 4.31, 3.42 -0.45, 9.5 0 M0 9.5 C-1.34 1.86, 3.08 -0.81, 9.5 0" stroke="#1e1e1e" stroke-width="1" fill="none"></path></g><g transform="translate(539.8456192016602 442.46298599243164) rotate(0 26.709983825683594 12.5)"><text x="26.709983825683594" y="0" font-family="Virgil, Segoe UI Emoji" font-size="20px" fill="#1e1e1e" text-anchor="middle" style="white-space: pre;" direction="ltr" dominant-baseline="text-before-edge">INTR</text></g><g stroke-linecap="round"><g transform="translate(621.144325377103 452.5386061307043) rotate(0 69.980139869079 0.22532359593846252)"><path d="M-0.99 0.83 C22.68 0.96, 117.49 -0.55, 140.95 -0.37 M0.7 0.22 C24.37 0.55, 117.46 0.59, 140.5 0.58" stroke="#1e1e1e" stroke-width="1" fill="none"></path></g><g transform="translate(621.144325377103 452.5386061307043) rotate(0 69.980139869079 0.22532359593846252)"><path d="M113.69 12.41 C116.59 8.48, 126.42 4.83, 140.63 0.24 M111.78 10.72 C119.14 8.75, 124.34 6.74, 141.44 0.67" stroke="#1e1e1e" stroke-width="1" fill="none"></path></g><g transform="translate(621.144325377103 452.5386061307043) rotate(0 69.980139869079 0.22532359593846252)"><path d="M113.69 -8.11 C116.4 -7.64, 126.23 -6.89, 140.63 0.24 M111.79 -9.8 C119.14 -7.33, 124.34 -4.89, 141.44 0.67" stroke="#1e1e1e" stroke-width="1" fill="none"></path></g></g><mask></mask><g transform="translate(765.9663696289062 441.98144912719727) rotate(0 18.329986572265625 12.5)"><text x="0" y="0" font-family="Virgil, Segoe UI Emoji" font-size="20px" fill="#1e1e1e" text-anchor="start" style="white-space: pre;" direction="ltr" dominant-baseline="text-before-edge">NIC</text></g></svg>