<svg version="1.1" xmlns="http://www.w3.org/2000/svg" viewBox="0 0 965.9258728027343 385.6481628417969" width="965.9258728027343" height="385.6481628417969">
  <!-- svg-source:excalidraw -->
  
  <defs>
    <style class="style-fonts">
      @font-face {
        font-family: "Virgil";
        src: url("https://excalidraw.com/Virgil.woff2");
      }
      @font-face {
        font-family: "Cascadia";
        src: url("https://excalidraw.com/Cascadia.woff2");
      }
    </style>
    
  </defs>
  <rect x="0" y="0" width="965.9258728027343" height="385.6481628417969" fill="#ffffff"></rect><g stroke-linecap="round" transform="translate(10 131.38894653320312) rotate(0 472.96293640136713 32.96295166015625)"><path d="M17.88 1.51 L930.77 1.68 L939.85 1.18 L943.37 10.81 L945.54 50.6 L945.3 55.02 L942.61 61.19 L937.5 63.2 L928.69 67.32 L14.66 67.31 L11.17 66.75 L5.58 61.26 L2.42 56.95 L0.39 47.66 L3.03 8.37 L5.76 1.52 L18.14 1.46" stroke="none" stroke-width="0" fill="#ffc9c9"></path><path d="M16.48 0 M16.48 0 C257.21 -3.63, 497.29 -4.32, 929.44 0 M16.48 0 C379.51 2.72, 741.91 2.33, 929.44 0 M929.44 0 C939.91 0.36, 946.35 6.05, 945.93 16.48 M929.44 0 C942.03 -1.98, 945.47 3.8, 945.93 16.48 M945.93 16.48 C947.2 26.67, 946.98 36.93, 945.93 49.44 M945.93 16.48 C946.6 27.19, 946.37 39.08, 945.93 49.44 M945.93 49.44 C944.38 59.43, 940.45 65.32, 929.44 65.93 M945.93 49.44 C944.37 59.91, 941.17 66.35, 929.44 65.93 M929.44 65.93 C733 66.59, 535.43 67.95, 16.48 65.93 M929.44 65.93 C732.02 62.93, 534.73 62.72, 16.48 65.93 M16.48 65.93 C4.18 65.63, 1.32 58.65, 0 49.44 M16.48 65.93 C7.61 66.65, -1.39 59.89, 0 49.44 M0 49.44 C0.28 38.94, -1.07 27.06, 0 16.48 M0 49.44 C0.85 42.61, 1.19 35.37, 0 16.48 M0 16.48 C-1.3 5.76, 7.18 -0.76, 16.48 0 M0 16.48 C0.26 5.52, 3.54 0.89, 16.48 0" stroke="#1e1e1e" stroke-width="1" fill="none"></path></g><g stroke-linecap="round" transform="translate(269.2592468261719 130.648193359375) rotate(0 235.55548095703128 32.96295166015625)"><path d="M18.05 -1.61 L456.77 1.51 L467.15 5.73 L472.03 8.71 L472.72 51.46 L467.1 58.39 L465.16 64.49 L455.83 65.6 L12.06 65.18 L7.59 63.26 L2.86 55.26 L-0.68 17.03 L1.43 8.83 L5.66 6.07 L8.82 -0.36 L16.78 -0.73" stroke="none" stroke-width="0" fill="#ffec99"></path><path d="M16.48 0 M16.48 0 C178.37 -1.04, 337.59 -1.49, 454.63 0 M16.48 0 C115.76 0.7, 215.34 0.63, 454.63 0 M454.63 0 C464.84 -1.41, 469.24 6.55, 471.11 16.48 M454.63 0 C466.58 1.47, 468.83 6.79, 471.11 16.48 M471.11 16.48 C471.92 29.81, 471.67 42.46, 471.11 49.44 M471.11 16.48 C471.4 23.41, 471.75 31.47, 471.11 49.44 M471.11 49.44 C469.32 60.39, 463.9 65.78, 454.63 65.93 M471.11 49.44 C468.94 62.29, 466.05 64.86, 454.63 65.93 M454.63 65.93 C308.85 65.74, 164.4 64.92, 16.48 65.93 M454.63 65.93 C342.96 64.87, 231.99 65.54, 16.48 65.93 M16.48 65.93 C6.67 64.22, -1.57 60.03, 0 49.44 M16.48 65.93 C7.18 65.29, -2.09 62.09, 0 49.44 M0 49.44 C-0.04 41.12, 0.51 32.1, 0 16.48 M0 49.44 C-0.32 36.47, -0.74 22.95, 0 16.48 M0 16.48 C-1.09 5.17, 5.12 -1.7, 16.48 0 M0 16.48 C1.51 3.95, 5.78 2.22, 16.48 0" stroke="#1e1e1e" stroke-width="1" fill="none"></path></g><g stroke-linecap="round" transform="translate(375.9258728027344 129.90744018554688) rotate(0 98.14813232421875 32.22221374511719)"><path d="M17.25 -1.89 L185.66 2.18 L193.34 6.19 L195.69 12.08 L194.38 53.68 L189.76 63.75 L179.13 62.73 L8.85 63.69 L4 61.05 L-1.33 50.37 L0.19 12.31 L6.02 4.93 L8.34 -0.19 L14.61 -1.66" stroke="none" stroke-width="0" fill="#b2f2bb"></path><path d="M16.11 0 M16.11 0 C57.02 -0.7, 98.86 -1.05, 180.19 0 M16.11 0 C52.25 -0.74, 87.66 0.01, 180.19 0 M180.19 0 C190.82 0.46, 195.25 6.31, 196.3 16.11 M180.19 0 C189.83 1.85, 196.3 5.32, 196.3 16.11 M196.3 16.11 C195.74 28.91, 196.51 43.38, 196.3 48.33 M196.3 16.11 C195.36 25.94, 195.56 36.84, 196.3 48.33 M196.3 48.33 C197.2 59.15, 190.02 62.74, 180.19 64.44 M196.3 48.33 C194.65 56.89, 192.63 64.02, 180.19 64.44 M180.19 64.44 C131.89 67.66, 84.55 66.17, 16.11 64.44 M180.19 64.44 C126.16 64.18, 72.01 63.62, 16.11 64.44 M16.11 64.44 C6.99 62.92, -0.54 57.5, 0 48.33 M16.11 64.44 C5.78 66.15, 0 57.09, 0 48.33 M0 48.33 C-0.32 38.19, -1.65 30.26, 0 16.11 M0 48.33 C-0.92 36.03, 0.17 23.5, 0 16.11 M0 16.11 C1.59 5.21, 7.06 -1.37, 16.11 0 M0 16.11 C1.4 3.23, 3.7 1.44, 16.11 0" stroke="#1e1e1e" stroke-width="1" fill="none"></path></g><g stroke-linecap="round" transform="translate(467.0370178222656 130.648193359375) rotate(0 51.481475830078125 31.851852416992188)"><path d="M15.93 0 M15.93 0 C36.58 0.62, 59.15 -1.19, 87.04 0 M15.93 0 C29.66 -0.43, 45.27 -0.3, 87.04 0 M87.04 0 C96.23 0.79, 102.85 4.81, 102.96 15.93 M87.04 0 C99.02 -1.23, 102.88 4.47, 102.96 15.93 M102.96 15.93 C102.47 21.07, 103.38 29.13, 102.96 47.78 M102.96 15.93 C102.13 24.74, 103.56 31.44, 102.96 47.78 M102.96 47.78 C103.91 58.25, 98.18 62.46, 87.04 63.7 M102.96 47.78 C101.49 57.05, 96.99 64.63, 87.04 63.7 M87.04 63.7 C63.57 62.52, 40.72 63.96, 15.93 63.7 M87.04 63.7 C58.99 63.57, 31.71 64.13, 15.93 63.7 M15.93 63.7 C5.88 62.32, -0.11 56.93, 0 47.78 M15.93 63.7 C4.56 64.7, 0.55 56.85, 0 47.78 M0 47.78 C1.33 41.94, 1.17 34.84, 0 15.93 M0 47.78 C0.53 36.6, 0.49 23.91, 0 15.93 M0 15.93 C-0.87 6.33, 6.2 -1.19, 15.93 0 M0 15.93 C0.31 6.38, 7.19 -1.63, 15.93 0" stroke="#1e1e1e" stroke-width="1" fill="none"></path></g><g transform="translate(474.3685302734375 137.5000457763672) rotate(0 44.14996337890625 25)"><text x="44.14996337890625" y="0" font-family="Virgil, Segoe UI Emoji" font-size="20px" fill="#1e1e1e" text-anchor="middle" style="white-space: pre;" direction="ltr" dominant-baseline="text-before-edge">TCP/UD</text><text x="44.14996337890625" y="25" font-family="Virgil, Segoe UI Emoji" font-size="20px" fill="#1e1e1e" text-anchor="middle" style="white-space: pre;" direction="ltr" dominant-baseline="text-before-edge">P header</text></g><g transform="translate(389.2221984863281 154.388916015625) rotate(0 36.819969177246094 12.5)"><text x="0" y="0" font-family="Virgil, Segoe UI Emoji" font-size="20px" fill="#1e1e1e" text-anchor="start" style="white-space: pre;" direction="ltr" dominant-baseline="text-before-edge">payload</text></g><g transform="translate(588.0368957519531 153.57406616210938) rotate(0 74.5499496459961 12.5)"><text x="0" y="0" font-family="Virgil, Segoe UI Emoji" font-size="20px" fill="#1e1e1e" text-anchor="start" style="white-space: pre;" direction="ltr" dominant-baseline="text-before-edge">IP/ARP header</text></g><g transform="translate(764.8149108886719 155.01852416992188) rotate(0 80.429931640625 12.5)"><text x="0" y="0" font-family="Virgil, Segoe UI Emoji" font-size="20px" fill="#1e1e1e" text-anchor="start" style="white-space: pre;" direction="ltr" dominant-baseline="text-before-edge">Ethernet header</text></g><g transform="translate(281.1111145019531 199.53707885742188) rotate(0 32.592559814453125 68.14816284179688)" stroke="none"><path fill="#1e1e1e" d="M 1.40,-0.70 Q 1.40,-0.70 2.86,2.29 4.32,5.29 6.66,11.09 8.99,16.89 13.37,27.21 17.75,37.52 22.81,50.66 27.87,63.81 33.62,76.16 39.37,88.51 44.78,99.08 50.20,109.65 53.98,116.03 57.75,122.42 59.99,125.98 62.24,129.55 63.40,131.26 64.56,132.98 65.51,134.20 66.46,135.43 66.56,135.65 66.67,135.88 66.69,136.13 66.72,136.38 66.67,136.62 66.61,136.87 66.48,137.08 66.35,137.29 66.16,137.45 65.97,137.61 65.74,137.71 65.51,137.80 65.26,137.81 65.01,137.82 64.77,137.76 64.53,137.69 64.32,137.55 64.12,137.41 63.97,137.21 63.82,137.01 63.74,136.77 63.66,136.54 63.66,136.29 63.66,136.04 63.74,135.80 63.82,135.57 63.97,135.37 64.12,135.17 64.33,135.03 64.54,134.89 64.78,134.82 65.02,134.76 65.27,134.77 65.51,134.79 65.75,134.88 65.98,134.97 66.17,135.13 66.36,135.30 66.49,135.51 66.61,135.72 66.67,135.97 66.72,136.21 66.69,136.46 66.67,136.71 66.56,136.93 66.46,137.16 66.28,137.34 66.11,137.52 65.89,137.64 65.67,137.75 65.42,137.79 65.18,137.83 64.93,137.79 64.68,137.75 64.46,137.63 64.24,137.52 64.07,137.34 63.90,137.15 63.90,137.15 63.90,137.15 63.12,135.82 62.34,134.48 61.16,132.72 59.98,130.97 57.71,127.38 55.45,123.78 51.62,117.33 47.80,110.88 42.34,100.27 36.89,89.66 31.09,77.24 25.29,64.81 20.22,51.72 15.15,38.63 10.73,28.31 6.31,17.98 3.97,12.31 1.63,6.63 0.11,3.66 -1.40,0.70 -1.46,0.52 -1.53,0.34 -1.55,0.15 -1.57,-0.03 -1.54,-0.21 -1.51,-0.40 -1.44,-0.58 -1.37,-0.75 -1.26,-0.91 -1.15,-1.06 -1.01,-1.18 -0.86,-1.30 -0.69,-1.39 -0.52,-1.47 -0.34,-1.52 -0.15,-1.56 0.03,-1.55 0.22,-1.55 0.40,-1.50 0.58,-1.45 0.75,-1.36 0.91,-1.27 1.05,-1.14 1.19,-1.01 1.30,-0.86 1.40,-0.70 1.40,-0.70 L 1.40,-0.70 Z"></path></g><g transform="translate(569.2591857910156 193.61114501953125) rotate(0 -73.70367431640625 70)" stroke="none"><path fill="#1e1e1e" d="M 1.35,0.77 Q 1.35,0.77 -1.22,5.23 -3.81,9.68 -8.12,16.70 -12.43,23.72 -19.84,33.76 -27.24,43.81 -36.80,55.12 -46.35,66.43 -57.06,76.60 -67.76,86.77 -79.79,96.21 -91.82,105.66 -104.21,113.74 -116.59,121.82 -124.18,126.72 -131.76,131.63 -135.85,134.15 -139.94,136.67 -141.87,137.94 -143.80,139.21 -145.19,140.22 -146.59,141.23 -146.81,141.33 -147.03,141.43 -147.26,141.45 -147.50,141.47 -147.74,141.42 -147.97,141.36 -148.17,141.24 -148.38,141.11 -148.53,140.93 -148.68,140.74 -148.77,140.52 -148.85,140.29 -148.86,140.05 -148.87,139.82 -148.81,139.59 -148.74,139.36 -148.60,139.16 -148.46,138.96 -148.27,138.82 -148.08,138.68 -147.85,138.60 -147.62,138.53 -147.38,138.53 -147.14,138.54 -146.92,138.62 -146.69,138.70 -146.50,138.84 -146.31,138.99 -146.18,139.19 -146.05,139.39 -145.99,139.62 -145.93,139.85 -145.94,140.09 -145.96,140.33 -146.05,140.55 -146.14,140.78 -146.30,140.96 -146.46,141.14 -146.67,141.26 -146.87,141.38 -147.11,141.43 -147.34,141.47 -147.58,141.45 -147.82,141.42 -148.03,141.31 -148.25,141.21 -148.42,141.04 -148.59,140.88 -148.70,140.66 -148.81,140.45 -148.85,140.21 -148.88,139.97 -148.84,139.74 -148.80,139.50 -148.68,139.29 -148.57,139.08 -148.39,138.92 -148.22,138.76 -148.22,138.76 -148.22,138.76 -146.74,137.88 -145.26,137.00 -143.30,135.70 -141.33,134.41 -137.27,131.90 -133.21,129.40 -125.63,124.48 -118.05,119.57 -105.77,111.56 -93.49,103.54 -81.57,94.16 -69.64,84.79 -59.05,74.72 -48.47,64.65 -38.99,53.40 -29.51,42.14 -22.21,32.18 -14.90,22.21 -10.65,15.20 -6.40,8.20 -3.88,3.71 -1.35,-0.77 -1.24,-0.92 -1.13,-1.07 -0.98,-1.19 -0.84,-1.31 -0.67,-1.39 -0.50,-1.47 -0.31,-1.51 -0.13,-1.55 0.05,-1.54 0.24,-1.54 0.42,-1.49 0.60,-1.43 0.76,-1.34 0.93,-1.25 1.06,-1.12 1.20,-0.99 1.30,-0.83 1.40,-0.67 1.46,-0.49 1.52,-0.31 1.54,-0.13 1.56,0.05 1.53,0.24 1.50,0.42 1.42,0.60 1.35,0.77 1.35,0.77 L 1.35,0.77 Z"></path></g><g transform="translate(348.5184631347656 350.6481628417969) rotate(0 38.499969482421875 12.5)"><text x="0" y="0" font-family="Virgil, Segoe UI Emoji" font-size="20px" fill="#1e1e1e" text-anchor="start" style="white-space: pre;" direction="ltr" dominant-baseline="text-before-edge">Payload</text></g><g transform="translate(15.185150146484375 131.38894653320312) rotate(0 75.1851806640625 -50.740753173828125)" stroke="none"><path fill="#1e1e1e" d="M -1.02,-1.29 Q -1.02,-1.29 7.10,-7.64 15.22,-13.99 30.04,-22.91 44.86,-31.83 64.35,-43.05 83.84,-54.27 99.53,-64.96 115.22,-75.66 124.86,-82.96 134.50,-90.26 138.81,-93.78 143.11,-97.29 146.31,-99.91 149.51,-102.52 149.70,-102.63 149.89,-102.74 150.10,-102.78 150.32,-102.82 150.53,-102.80 150.75,-102.77 150.95,-102.67 151.14,-102.58 151.30,-102.43 151.45,-102.27 151.55,-102.08 151.65,-101.88 151.68,-101.67 151.71,-101.45 151.67,-101.24 151.64,-101.02 151.53,-100.83 151.42,-100.64 151.26,-100.49 151.10,-100.35 150.90,-100.26 150.70,-100.17 150.49,-100.15 150.27,-100.13 150.06,-100.18 149.84,-100.23 149.66,-100.35 149.47,-100.46 149.34,-100.63 149.20,-100.80 149.12,-101.01 149.04,-101.21 149.04,-101.43 149.03,-101.65 149.09,-101.86 149.15,-102.06 149.28,-102.24 149.40,-102.42 149.58,-102.55 149.75,-102.68 149.96,-102.75 150.17,-102.81 150.39,-102.81 150.61,-102.80 150.81,-102.73 151.02,-102.66 151.19,-102.52 151.36,-102.39 151.48,-102.20 151.60,-102.02 151.65,-101.81 151.71,-101.60 151.69,-101.38 151.68,-101.16 151.59,-100.96 151.51,-100.76 151.36,-100.60 151.22,-100.43 151.22,-100.43 151.22,-100.43 148.03,-97.81 144.84,-95.19 140.51,-91.62 136.17,-88.06 126.49,-80.69 116.80,-73.33 101.04,-62.55 85.28,-51.77 65.84,-40.53 46.40,-29.28 31.77,-20.42 17.14,-11.55 9.08,-5.13 1.02,1.29 0.85,1.39 0.68,1.49 0.49,1.55 0.30,1.61 0.10,1.63 -0.09,1.64 -0.28,1.60 -0.48,1.57 -0.66,1.49 -0.84,1.41 -1.00,1.29 -1.15,1.16 -1.28,1.01 -1.40,0.85 -1.48,0.67 -1.57,0.49 -1.60,0.30 -1.64,0.10 -1.63,-0.09 -1.62,-0.29 -1.56,-0.48 -1.50,-0.67 -1.40,-0.84 -1.29,-1.01 -1.15,-1.15 -1.02,-1.29 -1.02,-1.29 L -1.02,-1.29 Z"></path></g><g transform="translate(731.4814147949219 128.42596435546875) rotate(0 -131.85183715820312 -46.666656494140625)" stroke="none"><path fill="#1e1e1e" d="M 0,1.57 Q 0,1.57 -1.92,1.59 -3.85,1.60 -6.16,0.89 -8.46,0.17 -11.82,-1.66 -15.18,-3.51 -26.94,-9.16 -38.71,-14.81 -61.57,-24.02 -84.43,-33.23 -109.04,-41.83 -133.65,-50.43 -152.41,-56.43 -171.17,-62.43 -182.75,-65.83 -194.33,-69.23 -199.70,-70.90 -205.06,-72.56 -207.59,-73.50 -210.11,-74.43 -211.39,-74.70 -212.67,-74.97 -214.38,-75.29 -216.10,-75.62 -217.23,-75.61 -218.36,-75.60 -219.90,-75.51 -221.45,-75.43 -222.81,-75.92 -224.17,-76.41 -225.96,-77.31 -227.74,-78.20 -229.04,-78.64 -230.33,-79.08 -232.05,-79.76 -233.76,-80.45 -236.08,-81.75 -238.40,-83.05 -241.47,-83.98 -244.53,-84.92 -247.41,-85.81 -250.28,-86.70 -252.23,-87.54 -254.18,-88.38 -255.95,-88.90 -257.72,-89.41 -259.02,-89.79 -260.32,-90.17 -262.35,-90.78 -264.37,-91.39 -264.66,-91.55 -264.96,-91.71 -265.18,-91.95 -265.41,-92.19 -265.54,-92.49 -265.68,-92.80 -265.71,-93.13 -265.75,-93.46 -265.67,-93.78 -265.60,-94.11 -265.42,-94.39 -265.25,-94.67 -265.00,-94.88 -264.74,-95.10 -264.43,-95.22 -264.12,-95.34 -263.79,-95.35 -263.46,-95.37 -263.14,-95.28 -262.82,-95.18 -262.55,-94.99 -262.27,-94.81 -262.08,-94.54 -261.88,-94.27 -261.77,-93.96 -261.67,-93.64 -261.67,-93.31 -261.68,-92.98 -261.79,-92.66 -261.89,-92.35 -262.10,-92.09 -262.30,-91.83 -262.58,-91.64 -262.85,-91.46 -263.17,-91.37 -263.50,-91.29 -263.83,-91.31 -264.16,-91.33 -264.47,-91.45 -264.77,-91.58 -265.02,-91.80 -265.28,-92.01 -265.44,-92.30 -265.61,-92.59 -265.68,-92.91 -265.75,-93.24 -265.71,-93.57 -265.67,-93.90 -265.53,-94.20 -265.39,-94.50 -265.16,-94.73 -264.93,-94.97 -264.63,-95.13 -264.34,-95.28 -264.01,-95.33 -263.68,-95.38 -263.35,-95.32 -263.03,-95.27 -263.03,-95.27 -263.03,-95.27 -261.03,-94.48 -259.04,-93.70 -257.91,-93.19 -256.77,-92.68 -254.83,-92.12 -252.88,-91.56 -251.10,-90.86 -249.31,-90.16 -246.41,-89.44 -243.50,-88.73 -239.98,-87.87 -236.46,-87.02 -234.31,-86.12 -232.16,-85.22 -230.38,-84.74 -228.60,-84.25 -227.22,-83.74 -225.84,-83.23 -225.02,-82.48 -224.19,-81.74 -222.69,-80.91 -221.18,-80.08 -219.65,-79.91 -218.12,-79.74 -216.87,-79.60 -215.62,-79.45 -213.67,-78.70 -211.71,-77.95 -210.45,-77.43 -209.19,-76.92 -206.73,-76.02 -204.27,-75.12 -198.93,-73.46 -193.58,-71.81 -181.96,-68.41 -170.34,-65.01 -151.54,-59.02 -132.74,-53.02 -108.07,-44.42 -83.39,-35.82 -60.43,-26.60 -37.48,-17.38 -25.63,-11.73 -13.77,-6.09 -10.67,-4.41 -7.56,-2.73 -5.68,-2.16 -3.81,-1.60 -1.90,-1.59 0,-1.57 0.18,-1.55 0.37,-1.53 0.55,-1.46 0.73,-1.39 0.89,-1.29 1.04,-1.18 1.17,-1.03 1.30,-0.89 1.38,-0.72 1.47,-0.56 1.52,-0.37 1.56,-0.19 1.56,0.00 1.56,0.19 1.52,0.37 1.47,0.56 1.38,0.72 1.30,0.89 1.17,1.04 1.04,1.18 0.89,1.29 0.73,1.39 0.55,1.46 0.37,1.53 0.18,1.55 -0.00,1.57 -0.00,1.57 L 0,1.57 Z"></path></g><g transform="translate(268.75927734375 10) rotate(0 38.499969482421875 12.5)"><text x="0" y="0" font-family="Virgil, Segoe UI Emoji" font-size="20px" fill="#1e1e1e" text-anchor="start" style="white-space: pre;" direction="ltr" dominant-baseline="text-before-edge">Payload</text></g></svg>