<svg version="1.1" xmlns="http://www.w3.org/2000/svg" viewBox="0 0 1152.8800354003906 471.5185089111328" width="1152.8800354003906" height="471.5185089111328">
  <!-- svg-source:excalidraw -->
  
  <defs>
    <style class="style-fonts">
      @font-face {
        font-family: "Virgil";
        src: url("https://excalidraw.com/Virgil.woff2");
      }
      @font-face {
        font-family: "Cascadia";
        src: url("https://excalidraw.com/Cascadia.woff2");
      }
    </style>
    
  </defs>
  <rect x="0" y="0" width="1152.8800354003906" height="471.5185089111328" fill="#ffffff"></rect><g transform="translate(296.11114501953125 186.07411193847656) rotate(0 317.2397766113281 50)"><text x="0" y="0" font-family="Virgil, Segoe UI Emoji" font-size="20px" fill="#1e1e1e" text-anchor="start" style="white-space: pre;" direction="ltr" dominant-baseline="text-before-edge">ARP, Request who-has 10.0.2.15 tell 10.0.0.2, length 28</text><text x="0" y="25" font-family="Virgil, Segoe UI Emoji" font-size="20px" fill="#1e1e1e" text-anchor="start" style="white-space: pre;" direction="ltr" dominant-baseline="text-before-edge">0x0000: ffff ffff ffff 5255 0a00 0202 0806 0001(payload)</text><text x="0" y="50" font-family="Virgil, Segoe UI Emoji" font-size="20px" fill="#1e1e1e" text-anchor="start" style="white-space: pre;" direction="ltr" dominant-baseline="text-before-edge">0x0010: 0800 0604 0001 5255 0a00 0202 0a00 0202</text><text x="0" y="75" font-family="Virgil, Segoe UI Emoji" font-size="20px" fill="#1e1e1e" text-anchor="start" style="white-space: pre;" direction="ltr" dominant-baseline="text-before-edge">0x0020: 0000 0000 0000 0a00 020f</text></g><g stroke-linecap="round"><g transform="translate(444.5056968752747 70.00001525878906) rotate(0 0.20656848112359683 71.80199547026307)"><path d="M0.48 0.07 C0.57 24.05, 1.05 119.04, 1.14 142.99 M-0.73 -0.94 C-0.79 23.32, 0.36 120.75, 0.6 144.54" stroke="#1e1e1e" stroke-width="1" fill="none"></path></g><g transform="translate(444.5056968752747 70.00001525878906) rotate(0 0.20656848112359683 71.80199547026307)"><path d="M-9.85 117.73 C-6.41 127.42, -1.45 135.86, -0.26 146.16 M-10.82 116.41 C-7.71 125, -3.34 131.72, -0.1 145.49" stroke="#1e1e1e" stroke-width="1" fill="none"></path></g><g transform="translate(444.5056968752747 70.00001525878906) rotate(0 0.20656848112359683 71.80199547026307)"><path d="M10.67 117.51 C6.9 127.36, 4.66 135.88, -0.26 146.16 M9.7 116.19 C7.21 124.74, 5.99 131.52, -0.1 145.49" stroke="#1e1e1e" stroke-width="1" fill="none"></path></g></g><mask></mask><g transform="translate(350.0740966796875 36.666656494140625) rotate(0 114.53997039794922 12.5)"><text x="0" y="0" font-family="Virgil, Segoe UI Emoji" font-size="20px" fill="#1e1e1e" text-anchor="start" style="white-space: pre;" direction="ltr" dominant-baseline="text-before-edge">48bit, 这里表示广播地址</text></g><g stroke-linecap="round"><g transform="translate(643.3742953387747 67.29644685388178) rotate(0 1.2717971790066898 70.01408175490513)"><path d="M0.54 -0.94 C0.96 22.4, 2.76 117.56, 3.17 140.97 M-0.63 1.17 C-0.36 24.08, 2.16 115.91, 2.71 139.11" stroke="#1e1e1e" stroke-width="1" fill="none"></path></g><g transform="translate(643.3742953387747 67.29644685388178) rotate(0 1.2717971790066898 70.01408175490513)"><path d="M-9.84 112.72 C-3.31 122.41, -1.78 129.4, 3.29 139.96 M-8.46 110.22 C-5.2 119.26, -3.02 125.65, 2.78 138.89" stroke="#1e1e1e" stroke-width="1" fill="none"></path></g><g transform="translate(643.3742953387747 67.29644685388178) rotate(0 1.2717971790066898 70.01408175490513)"><path d="M10.67 112.2 C9.86 122.17, 4.02 129.35, 3.29 139.96 M12.05 109.7 C10.09 118.94, 7.03 125.47, 2.78 138.89" stroke="#1e1e1e" stroke-width="1" fill="none"></path></g></g><mask></mask><g transform="translate(616.0000610351562 38.14820861816406) rotate(0 64.32994842529297 12.5)"><text x="0" y="0" font-family="Virgil, Segoe UI Emoji" font-size="20px" fill="#1e1e1e" text-anchor="start" style="white-space: pre;" direction="ltr" dominant-baseline="text-before-edge">src host mac</text></g><g stroke-linecap="round" transform="translate(537.4815673828125 210.7407989501953) rotate(0 92.22219848632812 11.851837158203125)"><path d="M5.93 0 M5.93 0 C42.2 0.88, 79.24 0.61, 178.52 0 M5.93 0 C47.28 -0.02, 87.53 -0.11, 178.52 0 M178.52 0 C184.05 1.98, 185.04 3.57, 184.44 5.93 M178.52 0 C184.36 -0.61, 185.11 1.23, 184.44 5.93 M184.44 5.93 C183.39 8.56, 183.72 12.46, 184.44 17.78 M184.44 5.93 C183.92 9.15, 184.38 13.07, 184.44 17.78 M184.44 17.78 C185.29 22.55, 182.5 23.54, 178.52 23.7 M184.44 17.78 C182.92 20.59, 180.31 23.87, 178.52 23.7 M178.52 23.7 C124.16 23.84, 70.11 25.43, 5.93 23.7 M178.52 23.7 C130.17 22, 82.47 21.89, 5.93 23.7 M5.93 23.7 C1.73 22.68, 0.19 19.86, 0 17.78 M5.93 23.7 C0.37 21.52, -0.47 23.97, 0 17.78 M0 17.78 C0.72 14.16, -0.78 11.75, 0 5.93 M0 17.78 C-0.41 15.12, 0.21 11.51, 0 5.93 M0 5.93 C0.09 1.03, 2.28 -1.08, 5.93 0 M0 5.93 C0.03 2.08, 0.72 0.12, 5.93 0" stroke="#2f9e44" stroke-width="1" fill="none"></path></g><g stroke-linecap="round" transform="translate(389.3333435058594 210.7407989501953) rotate(0 72.96296691894531 10.74072265625)"><path d="M5.37 0 M5.37 0 C37.63 -0.64, 72.27 3.21, 140.56 0 M5.37 0 C44.81 -0.13, 82.31 0.71, 140.56 0 M140.56 0 C143.54 0.6, 146 0.54, 145.93 5.37 M140.56 0 C146.26 0.95, 146.45 1.9, 145.93 5.37 M145.93 5.37 C145.95 8.14, 145.36 10.86, 145.93 16.11 M145.93 5.37 C145.93 7.7, 145.61 9.75, 145.93 16.11 M145.93 16.11 C147.3 18.47, 142.54 21.06, 140.56 21.48 M145.93 16.11 C147.07 18.23, 144.46 21.54, 140.56 21.48 M140.56 21.48 C109.56 22.61, 79.76 21.87, 5.37 21.48 M140.56 21.48 C99.73 19.93, 59.3 20.67, 5.37 21.48 M5.37 21.48 C1.54 20.2, 0.47 19.45, 0 16.11 M5.37 21.48 C0 20.32, 1.57 20.43, 0 16.11 M0 16.11 C0.68 11.64, 0.44 7.04, 0 5.37 M0 16.11 C0.32 13.14, -0.37 11.57, 0 5.37 M0 5.37 C-0.06 1.99, 0.14 0.62, 5.37 0 M0 5.37 C-0.04 0.01, 2.08 -2.12, 5.37 0" stroke="#2f9e44" stroke-width="1" fill="none"></path></g><g stroke-linecap="round"><g transform="translate(782.6666870117188 87.03706359863281) rotate(0 -9.962354541774836 64.50448642915114)"><path d="M-0.11 -0.47 C-3.25 21.49, -15.79 109.1, -19 130.78 M-1.63 -1.77 C-4.88 19.92, -16.71 106.82, -19.81 128.87" stroke="#1e1e1e" stroke-width="1" fill="none"></path></g><g transform="translate(782.6666870117188 87.03706359863281) rotate(0 -9.962354541774836 64.50448642915114)"><path d="M-26.91 99.97 C-23.89 107.66, -24.06 116.75, -20.06 127.31 M-25.37 99.7 C-25.2 107.48, -23.2 114.57, -20.77 128.14" stroke="#1e1e1e" stroke-width="1" fill="none"></path></g><g transform="translate(782.6666870117188 87.03706359863281) rotate(0 -9.962354541774836 64.50448642915114)"><path d="M-6.58 102.78 C-9.34 109.65, -15.3 117.94, -20.06 127.31 M-5.04 102.51 C-9.96 109.66, -13.02 116.04, -20.77 128.14" stroke="#1e1e1e" stroke-width="1" fill="none"></path></g></g><mask></mask><g transform="translate(761.9259033203125 53.70372009277344) rotate(0 52.76995086669922 12.5)"><text x="0" y="0" font-family="Virgil, Segoe UI Emoji" font-size="20px" fill="#1e1e1e" text-anchor="start" style="white-space: pre;" direction="ltr" dominant-baseline="text-before-edge">16 bit type</text></g><g stroke-linecap="round" transform="translate(726.370361328125 210.00001525878906) rotate(0 32.22222900390625 13.333358764648438)"><path d="M6.67 0 M6.67 0 C22.68 -0.45, 35.56 -1.18, 57.78 0 M6.67 0 C19.35 1.34, 30.83 0.37, 57.78 0 M57.78 0 C63.43 -1.04, 62.96 3.9, 64.44 6.67 M57.78 0 C61.28 1.35, 65.68 3.81, 64.44 6.67 M64.44 6.67 C65.41 11.95, 63.16 15.1, 64.44 20 M64.44 6.67 C63.95 10.78, 64.1 14.5, 64.44 20 M64.44 20 C66.17 24.9, 61.22 25.67, 57.78 26.67 M64.44 20 C65.95 22.68, 61.13 24.62, 57.78 26.67 M57.78 26.67 C39.15 24.69, 21.33 25.55, 6.67 26.67 M57.78 26.67 C42.64 27.4, 28.57 26.59, 6.67 26.67 M6.67 26.67 C1.04 26.4, -1.37 23.21, 0 20 M6.67 26.67 C3.09 28.86, 1.48 26.52, 0 20 M0 20 C0.43 15.3, -1.2 12.33, 0 6.67 M0 20 C0.21 15.77, 0.13 12.27, 0 6.67 M0 6.67 C-1.89 1.99, 4.05 -0.62, 6.67 0 M0 6.67 C-0.26 1.41, 3.31 1.45, 6.67 0" stroke="#2f9e44" stroke-width="1" fill="none"></path></g><g stroke-linecap="round"><g transform="translate(981.9259643554688 44.07411193847656) rotate(0 -76.37497189546004 84.32243593060412)"><path d="M-0.47 -1.02 C-26 27.16, -127.67 140.22, -153.05 168.39 M1.48 1.07 C-24.25 29.46, -128.39 141.7, -154.23 169.66" stroke="#1e1e1e" stroke-width="1" fill="none"></path></g><g transform="translate(981.9259643554688 44.07411193847656) rotate(0 -76.37497189546004 84.32243593060412)"><path d="M-144.3 141.25 C-147.2 150.29, -151.47 159.14, -155.08 171.11 M-142.74 141.32 C-146.99 151.21, -149.15 160.36, -153.33 169.78" stroke="#1e1e1e" stroke-width="1" fill="none"></path></g><g transform="translate(981.9259643554688 44.07411193847656) rotate(0 -76.37497189546004 84.32243593060412)"><path d="M-129.24 155.19 C-136.74 159.85, -145.67 164.37, -155.08 171.11 M-127.68 155.26 C-136.76 160.58, -143.77 165.25, -153.33 169.78" stroke="#1e1e1e" stroke-width="1" fill="none"></path></g></g><mask></mask><g transform="translate(976.0001831054688 10) rotate(0 83.43992614746094 12.5)"><text x="0" y="0" font-family="Virgil, Segoe UI Emoji" font-size="20px" fill="#1e1e1e" text-anchor="start" style="white-space: pre;" direction="ltr" dominant-baseline="text-before-edge">ethernet payload</text></g><g stroke-linecap="round"><g transform="translate(496.2614120750818 401.29640197753906) rotate(0 -25.659514824061844 -77.38350468600169)"><path d="M-1.01 0.22 C-9.4 -25.47, -42.94 -127.44, -51.5 -153.34 M0.67 -0.71 C-7.72 -26.79, -43.02 -129.38, -51.98 -154.99" stroke="#1e1e1e" stroke-width="1" fill="none"></path></g><g transform="translate(496.2614120750818 401.29640197753906) rotate(0 -25.659514824061844 -77.38350468600169)"><path d="M-32.7 -130.25 C-35.61 -136.66, -42.6 -143.38, -53.84 -154.85 M-32.58 -130.91 C-38.02 -138.2, -43.26 -143.44, -51.45 -155.16" stroke="#1e1e1e" stroke-width="1" fill="none"></path></g><g transform="translate(496.2614120750818 401.29640197753906) rotate(0 -25.659514824061844 -77.38350468600169)"><path d="M-52.09 -123.53 C-51.03 -131.17, -54 -139.29, -53.84 -154.85 M-51.97 -124.2 C-52.44 -133.23, -52.66 -140.21, -51.45 -155.16" stroke="#1e1e1e" stroke-width="1" fill="none"></path></g></g><mask></mask><g transform="translate(325.6296691894531 399.6297149658203) rotate(0 129.63992309570312 12.5)"><text x="0" y="0" font-family="Virgil, Segoe UI Emoji" font-size="20px" fill="#1e1e1e" text-anchor="start" style="white-space: pre;" direction="ltr" dominant-baseline="text-before-edge">hrd + pro + hln + pln + op</text></g><g stroke-linecap="round"><g transform="translate(713.0370483398438 433.70375061035156) rotate(0 -14.554400104656814 -86.71892234021799)"><path d="M0.94 0.97 C-4.15 -27.87, -25.21 -143.49, -30.05 -172.39 M-0.02 0.43 C-4.81 -28.85, -23.22 -145.83, -27.95 -174.4" stroke="#1e1e1e" stroke-width="1" fill="none"></path></g><g transform="translate(713.0370483398438 433.70375061035156) rotate(0 -14.554400104656814 -86.71892234021799)"><path d="M-11.73 -150.14 C-18.14 -155.72, -23.17 -164.89, -27.16 -175.76 M-14.09 -148.65 C-18.29 -155.01, -22.24 -162.24, -27.15 -175.36" stroke="#1e1e1e" stroke-width="1" fill="none"></path></g><g transform="translate(713.0370483398438 433.70375061035156) rotate(0 -14.554400104656814 -86.71892234021799)"><path d="M-31.99 -146.88 C-31.48 -153.74, -29.57 -164.02, -27.16 -175.76 M-34.35 -145.39 C-32.96 -152.76, -31.31 -160.89, -27.15 -175.36" stroke="#1e1e1e" stroke-width="1" fill="none"></path></g></g><mask></mask><g stroke-linecap="round" transform="translate(563.407470703125 235.18519592285156) rotate(0 95.9259033203125 13.7037353515625)"><path d="M6.85 0 M6.85 0 C68.96 0.44, 128.42 -1.38, 185 0 M6.85 0 C55.87 2.37, 103.63 1.43, 185 0 M185 0 C188.64 1.97, 192.62 0.5, 191.85 6.85 M185 0 C187.65 0.25, 193.41 1.43, 191.85 6.85 M191.85 6.85 C192 10.94, 191.37 16.11, 191.85 20.56 M191.85 6.85 C191.58 11.47, 191.65 16.07, 191.85 20.56 M191.85 20.56 C193.55 26.79, 190.68 26.62, 185 27.41 M191.85 20.56 C190.79 26.17, 188.57 26.97, 185 27.41 M185 27.41 C141.73 29.28, 100.31 28.67, 6.85 27.41 M185 27.41 C129.17 27.3, 74.58 28.3, 6.85 27.41 M6.85 27.41 C1.75 26.73, -1.24 26.2, 0 20.56 M6.85 27.41 C4.43 25.85, 0.07 27.05, 0 20.56 M0 20.56 C-0.76 18, 0.34 13.8, 0 6.85 M0 20.56 C0.74 14.83, -0.41 10.14, 0 6.85 M0 6.85 C0.52 1.24, 2.1 -0.85, 6.85 0 M0 6.85 C0.76 3.64, 4.51 0.72, 6.85 0" stroke="#e03131" stroke-width="1" fill="none"></path></g><g transform="translate(632.1111450195312 436.5185089111328) rotate(0 95.22991943359375 12.5)"><text x="0" y="0" font-family="Virgil, Segoe UI Emoji" font-size="20px" fill="#e03131" text-anchor="start" style="white-space: pre;" direction="ltr" dominant-baseline="text-before-edge">sender ethnet addr</text></g><g stroke-linecap="round"><g transform="translate(956.434396378294 345.88446982923665) rotate(0 -61.92581899820283 -46.62466347899174)"><path d="M-0.3 0.87 C-20.95 -14.46, -103.83 -76.57, -124.73 -92.31 M1.74 0.28 C-18.98 -15.37, -104.77 -78.64, -125.6 -94.12" stroke="#1e1e1e" stroke-width="1" fill="none"></path></g><g transform="translate(956.434396378294 345.88446982923665) rotate(0 -61.92581899820283 -46.62466347899174)"><path d="M-95.39 -85.34 C-102.44 -88.96, -111.18 -91.32, -124.43 -93.09 M-95.91 -84.66 C-108.23 -88.76, -117.07 -91.49, -124.98 -94.37" stroke="#1e1e1e" stroke-width="1" fill="none"></path></g><g transform="translate(956.434396378294 345.88446982923665) rotate(0 -61.92581899820283 -46.62466347899174)"><path d="M-107.59 -68.85 C-111.78 -76.25, -117.7 -82.42, -124.43 -93.09 M-108.12 -68.17 C-116.2 -78.22, -120.65 -86.88, -124.98 -94.37" stroke="#1e1e1e" stroke-width="1" fill="none"></path></g></g><mask></mask><g stroke-linecap="round"><g transform="translate(278.93281248394345 351.4815216064453) rotate(0 67.539801780917 -36.857916850224136)"><path d="M0.29 1.11 C22.76 -11.22, 111.51 -62.23, 133.89 -74.83 M-1.02 0.65 C21.9 -11.47, 113.66 -61.35, 136.1 -73.69" stroke="#1e1e1e" stroke-width="1" fill="none"></path></g><g transform="translate(278.93281248394345 351.4815216064453) rotate(0 67.539801780917 -36.857916850224136)"><path d="M118.13 -52.76 C119.55 -56.65, 124.52 -61.49, 137.97 -74.27 M116.35 -50.73 C124.26 -58.8, 131.19 -66.6, 136.95 -74.4" stroke="#1e1e1e" stroke-width="1" fill="none"></path></g><g transform="translate(278.93281248394345 351.4815216064453) rotate(0 67.539801780917 -36.857916850224136)"><path d="M108.3 -70.78 C111.76 -70.72, 118.9 -71.58, 137.97 -74.27 M106.51 -68.74 C117.88 -70.25, 128.4 -71.48, 136.95 -74.4" stroke="#1e1e1e" stroke-width="1" fill="none"></path></g></g><mask></mask><g transform="translate(10 356.8518829345703) rotate(0 209.33984375 12.5)"><text x="0" y="0" font-family="Virgil, Segoe UI Emoji" font-size="20px" fill="#1e1e1e" text-anchor="start" style="white-space: pre;" direction="ltr" dominant-baseline="text-before-edge">target ethnet addr, unknown when request</text></g><g stroke-linecap="round" transform="translate(387.11114501953125 261.8518829345703) rotate(0 95.55557250976562 10.370361328125)"><path d="M5.19 0 M5.19 0 C78.79 -0.33, 151.01 0.17, 185.93 0 M5.19 0 C56.87 0.74, 109.98 0.48, 185.93 0 M185.93 0 C188.39 0.24, 190.27 1.68, 191.11 5.19 M185.93 0 C190.65 2.14, 191.83 3.94, 191.11 5.19 M191.11 5.19 C191.4 6.71, 191.74 9.52, 191.11 15.56 M191.11 5.19 C190.91 8.32, 191.37 10.52, 191.11 15.56 M191.11 15.56 C191.1 20.37, 188.19 18.82, 185.93 20.74 M191.11 15.56 C189.28 19.06, 187.22 20.99, 185.93 20.74 M185.93 20.74 C112.85 17.96, 41.35 18.74, 5.19 20.74 M185.93 20.74 C114.89 20.74, 42.81 21.42, 5.19 20.74 M5.19 20.74 C-0.07 20.6, 1.37 17.65, 0 15.56 M5.19 20.74 C-0.48 19.33, -1.17 18.39, 0 15.56 M0 15.56 C0.43 12.95, -0.1 8.53, 0 5.19 M0 15.56 C-0.44 12.34, 0.25 10.43, 0 5.19 M0 5.19 C1.87 0.62, -0.19 0.02, 5.19 0 M0 5.19 C-1.97 0.35, -0.24 -0.23, 5.19 0" stroke="#e03131" stroke-width="1" fill="none"></path></g><g stroke-linecap="round"><g transform="translate(884.3756649170066 410.4827600505857) rotate(0 -131.5464302434246 -66.28740312975376)"><path d="M0.77 0.7 C-43.04 -21.35, -219.12 -109.51, -263.22 -131.75 M-0.28 0.03 C-44.18 -22.38, -219.81 -111.39, -263.87 -133.28" stroke="#1e1e1e" stroke-width="1" fill="none"></path></g><g transform="translate(884.3756649170066 410.4827600505857) rotate(0 -131.5464302434246 -66.28740312975376)"><path d="M-232.9 -128.83 C-240.34 -130.61, -250.09 -132.28, -262.86 -133.34 M-233.51 -128.85 C-241.29 -131.35, -247.41 -132.03, -264.46 -134.13" stroke="#1e1e1e" stroke-width="1" fill="none"></path></g><g transform="translate(884.3756649170066 410.4827600505857) rotate(0 -131.5464302434246 -66.28740312975376)"><path d="M-242.12 -110.5 C-247.13 -117.34, -254.35 -124.02, -262.86 -133.34 M-242.72 -110.51 C-248.25 -117.19, -252.31 -121.99, -264.46 -134.13" stroke="#1e1e1e" stroke-width="1" fill="none"></path></g></g><mask></mask><g transform="translate(893.5556030273438 415.2963409423828) rotate(0 58.179954528808594 12.5)"><text x="0" y="0" font-family="Virgil, Segoe UI Emoji" font-size="20px" fill="#e03131" text-anchor="start" style="white-space: pre;" direction="ltr" dominant-baseline="text-before-edge">tip: 0.0.2.15</text></g><g transform="translate(958.1482543945312 350.18519592285156) rotate(0 59.049957275390625 12.5)"><text x="0" y="0" font-family="Virgil, Segoe UI Emoji" font-size="20px" fill="#e03131" text-anchor="start" style="white-space: pre;" direction="ltr" dominant-baseline="text-before-edge">sip, 10.0.2.2</text></g></svg>