<svg version="1.1" xmlns="http://www.w3.org/2000/svg" viewBox="0 0 682.2592315673828 377.7778015136719" width="682.2592315673828" height="377.7778015136719">
  <!-- svg-source:excalidraw -->
  
  <defs>
    <style class="style-fonts">
      @font-face {
        font-family: "Virgil";
        src: url("https://excalidraw.com/Virgil.woff2");
      }
      @font-face {
        font-family: "Cascadia";
        src: url("https://excalidraw.com/Cascadia.woff2");
      }
    </style>
    
  </defs>
  <rect x="0" y="0" width="682.2592315673828" height="377.7778015136719" fill="#ffffff"></rect><g stroke-linecap="round" transform="translate(10 144.48150634765625) rotate(0 99.62962341308594 65.92594909667969)"><path d="M32 0 M32 0 C72.48 -1.27, 114.86 -1.14, 167.26 0 M32 0 C81.27 0.61, 132.25 0.04, 167.26 0 M167.26 0 C190.19 -1.03, 197.63 9.44, 199.26 32 M167.26 0 C188.61 1, 197.3 8.85, 199.26 32 M199.26 32 C199.64 49.7, 199.81 70.13, 199.26 99.85 M199.26 32 C198.75 49.56, 198.92 66.77, 199.26 99.85 M199.26 99.85 C199.22 120.02, 188.31 132.49, 167.26 131.85 M199.26 99.85 C200.4 121.49, 190.1 133.11, 167.26 131.85 M167.26 131.85 C124.8 133.68, 80.43 133.89, 32 131.85 M167.26 131.85 C122.24 131.9, 76.82 131.22, 32 131.85 M32 131.85 C11.85 133.61, -0.18 120.19, 0 99.85 M32 131.85 C12.91 130.64, 0.08 122.3, 0 99.85 M0 99.85 C0.8 85.46, -0.58 71.32, 0 32 M0 99.85 C0.52 77.13, -0.44 53.69, 0 32 M0 32 C1.67 9.98, 11.79 1.65, 32 0 M0 32 C-1.79 9.28, 10.98 2.28, 32 0" stroke="#1e1e1e" stroke-width="1" fill="none"></path></g><g stroke-linecap="round" transform="translate(448.5555877685547 10) rotate(0 111.85182189941406 178.88890075683594)"><path d="M32 0 M32 0 C77.64 -2.4, 125.59 -2.46, 191.7 0 M32 0 C79.82 0.94, 129.12 1.47, 191.7 0 M191.7 0 C212.02 0.75, 224.5 9.05, 223.7 32 M191.7 0 C212.49 -0.06, 224.5 8.4, 223.7 32 M223.7 32 C226.36 120.33, 224.38 205.31, 223.7 325.78 M223.7 32 C225.16 124.46, 225.89 216.94, 223.7 325.78 M223.7 325.78 C222.73 345.59, 211.88 358.98, 191.7 357.78 M223.7 325.78 C223.97 344.83, 212.09 356.15, 191.7 357.78 M191.7 357.78 C148.6 357.46, 108.62 360.15, 32 357.78 M191.7 357.78 C131.95 359.45, 72.05 359.13, 32 357.78 M32 357.78 C11.62 358.24, -1.73 348.2, 0 325.78 M32 357.78 C12.83 359.8, 0.06 347.55, 0 325.78 M0 325.78 C-0.61 238.26, 0.51 149.46, 0 32 M0 325.78 C-0.46 216.69, -1.39 106.83, 0 32 M0 32 C-1.98 12, 9.43 -0.46, 32 0 M0 32 C0.63 11.31, 10.32 -0.27, 32 0" stroke="#1e1e1e" stroke-width="1" fill="none"></path></g><g transform="translate(38.148162841796875 157.81484985351562) rotate(0 18.329986572265625 12.5)"><text x="0" y="0" font-family="Virgil, Segoe UI Emoji" font-size="20px" fill="#1e1e1e" text-anchor="start" style="white-space: pre;" direction="ltr" dominant-baseline="text-before-edge">NIC</text></g><g stroke-linecap="round"><g transform="translate(21.111114501953125 76.3333740234375) rotate(0 4.671735925022517 39.27532372748479)"><path d="M-0.23 -0.99 C1.64 12.2, 9.42 64.87, 11.15 78.18 M-1.81 1.1 C-0.02 14.55, 8.77 66.94, 10.61 79.54" stroke="#1e1e1e" stroke-width="1" fill="none"></path></g><g transform="translate(21.111114501953125 76.3333740234375) rotate(0 4.671735925022517 39.27532372748479)"><path d="M-5.58 54.61 C-0.42 60.69, 5.02 70.7, 11.73 80.32 M-4.37 52.48 C-0.08 60.65, 3.91 66.26, 11.28 80.34" stroke="#1e1e1e" stroke-width="1" fill="none"></path></g><g transform="translate(21.111114501953125 76.3333740234375) rotate(0 4.671735925022517 39.27532372748479)"><path d="M14.69 51.4 C13.86 58.38, 13.34 69.34, 11.73 80.32 M15.9 49.27 C15.3 58.07, 14.38 64.46, 11.28 80.34" stroke="#1e1e1e" stroke-width="1" fill="none"></path></g></g><mask></mask><g stroke-linecap="round" transform="translate(467.0370178222656 187.44444274902344) rotate(0 36.66668701171875 18.518516540527344)"><path d="M9.26 0 M9.26 0 C26.33 -0.38, 47.83 -0.87, 64.07 0 M9.26 0 C22.74 -0.51, 38.3 -0.05, 64.07 0 M64.07 0 C70.66 -0.22, 71.54 2.22, 73.33 9.26 M64.07 0 C69.44 -0.08, 73.52 3.58, 73.33 9.26 M73.33 9.26 C73.34 14.95, 74.04 20.97, 73.33 27.78 M73.33 9.26 C72.77 13.66, 72.83 18.9, 73.33 27.78 M73.33 27.78 C75.02 34.3, 69.13 37.27, 64.07 37.04 M73.33 27.78 C72.66 33.5, 71 39.18, 64.07 37.04 M64.07 37.04 C49.01 37.8, 32.94 35.38, 9.26 37.04 M64.07 37.04 C44.36 36.23, 24.15 36.05, 9.26 37.04 M9.26 37.04 C4.24 38.58, -1.05 35.35, 0 27.78 M9.26 37.04 C2.9 36.79, -0.84 32.75, 0 27.78 M0 27.78 C-0.67 21.51, -1.38 11.69, 0 9.26 M0 27.78 C0 21.39, -0.18 14.49, 0 9.26 M0 9.26 C0.17 3.51, 3 -0.21, 9.26 0 M0 9.26 C1.49 2.62, 4.25 0.9, 9.26 0" stroke="#1e1e1e" stroke-width="1" fill="none"></path></g><g transform="translate(475.1852111816406 194.1112060546875) rotate(0 29.28997039794922 12.5)"><text x="0" y="0" font-family="Virgil, Segoe UI Emoji" font-size="20px" fill="#1e1e1e" text-anchor="start" style="white-space: pre;" direction="ltr" dominant-baseline="text-before-edge">Driver</text></g><g transform="translate(35.925933837890625 99.29632568359375) rotate(0 38.749961853027344 12.5)"><text x="0" y="0" font-family="Virgil, Segoe UI Emoji" font-size="20px" fill="#1e1e1e" text-anchor="start" style="white-space: pre;" direction="ltr" dominant-baseline="text-before-edge">electron</text></g><g stroke-linecap="round" transform="translate(49.25927734375 192.62966918945312) rotate(0 4.8148040771484375 31.481475830078125)"><path d="M2.41 0 M2.41 0 C3.45 0.11, 4.23 -0.34, 7.22 0 M2.41 0 C3.88 -0.05, 5.82 0.17, 7.22 0 M7.22 0 C8.04 0.14, 8.1 0.89, 9.63 2.41 M7.22 0 C9.4 1.89, 8.42 -0.68, 9.63 2.41 M9.63 2.41 C8.97 12.89, 10.06 29.17, 9.63 60.56 M9.63 2.41 C9.8 15.16, 10.49 29.6, 9.63 60.56 M9.63 60.56 C10.25 61.65, 10.8 62.47, 7.22 62.96 M9.63 60.56 C7.86 62.74, 7.57 63.14, 7.22 62.96 M7.22 62.96 C6.08 63.14, 4.51 62.48, 2.41 62.96 M7.22 62.96 C5.77 62.71, 4.63 62.88, 2.41 62.96 M2.41 62.96 C0.99 63.98, 1.37 62.75, 0 60.56 M2.41 62.96 C2.16 64.13, -1.34 61.64, 0 60.56 M0 60.56 C0.76 39.57, -0.06 16.81, 0 2.41 M0 60.56 C-0.17 41.58, 0.67 20.8, 0 2.41 M0 2.41 C0.03 0.7, -0.48 -0.24, 2.41 0 M0 2.41 C-0.29 1.7, 3 1.88, 2.41 0" stroke="#1e1e1e" stroke-width="1" fill="none"></path></g><g stroke-linecap="round" transform="translate(66.70375061035156 191.81488037109375) rotate(0 4.8148040771484375 31.481475830078125)"><path d="M2.41 0 M2.41 0 C4.42 0.41, 5.59 -0.21, 7.22 0 M2.41 0 C3.98 0, 5.94 0.06, 7.22 0 M7.22 0 C9.85 1.37, 10.22 1.98, 9.63 2.41 M7.22 0 C9.99 -1.34, 9.11 2.58, 9.63 2.41 M9.63 2.41 C10.91 20.93, 10.09 40.09, 9.63 60.56 M9.63 2.41 C10.74 22.72, 9.5 41.3, 9.63 60.56 M9.63 60.56 C9.53 60.88, 8.58 62.71, 7.22 62.96 M9.63 60.56 C10.53 64.36, 10.7 64.75, 7.22 62.96 M7.22 62.96 C6.06 63.2, 4.27 62.84, 2.41 62.96 M7.22 62.96 C6.24 63.09, 5.18 62.77, 2.41 62.96 M2.41 62.96 C0.44 64.82, -0.93 60.88, 0 60.56 M2.41 62.96 C-1.06 61.21, 1.63 61.91, 0 60.56 M0 60.56 C1.64 43.86, 0.96 26.06, 0 2.41 M0 60.56 C0.22 46.89, 0.01 32.22, 0 2.41 M0 2.41 C0.51 -0.25, 1.5 0.66, 2.41 0 M0 2.41 C2.04 1.43, -0.79 -1.42, 2.41 0" stroke="#1e1e1e" stroke-width="1" fill="none"></path></g><g stroke-linecap="round" transform="translate(86.62968444824219 193.44448852539062) rotate(0 4.8148040771484375 31.481475830078125)"><path d="M2.41 0 M2.41 0 C3.54 -0.03, 5.3 -0.35, 7.22 0 M2.41 0 C4.02 0.18, 5.37 -0.1, 7.22 0 M7.22 0 C8.08 1.48, 10.11 1.64, 9.63 2.41 M7.22 0 C6.9 -0.74, 7.53 -0.78, 9.63 2.41 M9.63 2.41 C9.41 19.29, 9.32 41.38, 9.63 60.56 M9.63 2.41 C8.49 17.87, 9.15 31.82, 9.63 60.56 M9.63 60.56 C8.73 61.52, 10.2 63.19, 7.22 62.96 M9.63 60.56 C10.44 61.42, 7.72 61.5, 7.22 62.96 M7.22 62.96 C5.88 63.46, 5 62.76, 2.41 62.96 M7.22 62.96 C5.68 62.84, 3.85 63.16, 2.41 62.96 M2.41 62.96 C1.68 62.51, -1.56 62.98, 0 60.56 M2.41 62.96 C0.54 61.61, -1.64 61.89, 0 60.56 M0 60.56 C1.92 41.87, 2.38 20.76, 0 2.41 M0 60.56 C-1 44.24, -0.69 29.66, 0 2.41 M0 2.41 C0.36 1.65, 2.61 -1.72, 2.41 0 M0 2.41 C1.21 -1.21, 1.69 1.13, 2.41 0" stroke="#1e1e1e" stroke-width="1" fill="none"></path></g><g stroke-linecap="round" transform="translate(107.85188293457031 192.22225952148438) rotate(0 4.8148040771484375 31.481475830078125)"><path d="M2.41 0 M2.41 0 C4.23 0.14, 4.9 0.18, 7.22 0 M2.41 0 C3.84 -0.16, 5.77 0.09, 7.22 0 M7.22 0 C8.38 -1.56, 10.45 0.57, 9.63 2.41 M7.22 0 C7.47 -1.64, 9.36 1.58, 9.63 2.41 M9.63 2.41 C10.56 17.84, 8.86 28.6, 9.63 60.56 M9.63 2.41 C8.32 21.4, 9.11 41.55, 9.63 60.56 M9.63 60.56 C10.47 63.96, 7.11 64.02, 7.22 62.96 M9.63 60.56 C7.62 63.05, 9.95 64.47, 7.22 62.96 M7.22 62.96 C6.19 62.79, 4.52 63.1, 2.41 62.96 M7.22 62.96 C6.03 62.89, 4.72 62.89, 2.41 62.96 M2.41 62.96 C-0.93 64.43, 1.82 63.82, 0 60.56 M2.41 62.96 C-0.37 61.7, -0.27 63.59, 0 60.56 M0 60.56 C2.03 44.74, -1.51 27.52, 0 2.41 M0 60.56 C0.71 43.84, 0.5 26.21, 0 2.41 M0 2.41 C-0.54 2.69, 1.41 -1.19, 2.41 0 M0 2.41 C-0.47 -1.46, -1.38 -1.76, 2.41 0" stroke="#1e1e1e" stroke-width="1" fill="none"></path></g><g stroke-linecap="round" transform="translate(130.1111602783203 191.48153686523438) rotate(0 4.8148040771484375 31.481475830078125)"><path d="M2.41 0 M2.41 0 C3.56 -0.2, 5.55 0.13, 7.22 0 M2.41 0 C4.18 -0.17, 5.8 0.16, 7.22 0 M7.22 0 C10.14 -1.1, 8.97 1.82, 9.63 2.41 M7.22 0 C9.53 -0.92, 7.99 1.36, 9.63 2.41 M9.63 2.41 C10.34 16.81, 9.67 31.6, 9.63 60.56 M9.63 2.41 C10.88 14.29, 9.51 27.08, 9.63 60.56 M9.63 60.56 C10.88 62.07, 7.47 62.07, 7.22 62.96 M9.63 60.56 C11.51 63.73, 6.63 64.47, 7.22 62.96 M7.22 62.96 C6.23 63.06, 4.73 62.74, 2.41 62.96 M7.22 62.96 C5.76 62.93, 4.35 62.75, 2.41 62.96 M2.41 62.96 C-0.73 61.91, 0.53 60.48, 0 60.56 M2.41 62.96 C-0.6 63.21, 0.75 62.88, 0 60.56 M0 60.56 C0.67 45.17, -0.04 32.03, 0 2.41 M0 60.56 C0.66 44.66, 0.24 29.86, 0 2.41 M0 2.41 C-0.97 2.44, 1.52 -1.13, 2.41 0 M0 2.41 C0.54 1.31, 1.33 -0.49, 2.41 0" stroke="#1e1e1e" stroke-width="1" fill="none"></path></g><g stroke-linecap="round" transform="translate(153.2963104248047 190.9630126953125) rotate(0 4.8148040771484375 31.481475830078125)"><path d="M2.41 0 M2.41 0 C3.33 0.36, 5.53 0.41, 7.22 0 M2.41 0 C3.76 -0.01, 4.64 -0.1, 7.22 0 M7.22 0 C10.47 1.36, 7.72 2.11, 9.63 2.41 M7.22 0 C8.63 0.57, 8.88 2.77, 9.63 2.41 M9.63 2.41 C9.47 23.13, 10.61 38.89, 9.63 60.56 M9.63 2.41 C8.29 18.14, 9.32 34.08, 9.63 60.56 M9.63 60.56 C8.41 62.37, 9.48 63.59, 7.22 62.96 M9.63 60.56 C8.61 64.4, 8.08 64.38, 7.22 62.96 M7.22 62.96 C5.71 62.64, 4.63 63.1, 2.41 62.96 M7.22 62.96 C6.04 63.14, 5.18 62.8, 2.41 62.96 M2.41 62.96 C1.27 63.41, 0.46 61.73, 0 60.56 M2.41 62.96 C0.79 64.43, 0.16 62.97, 0 60.56 M0 60.56 C-0.12 47.99, 1.14 36.33, 0 2.41 M0 60.56 C0.78 36.8, -0.4 15.17, 0 2.41 M0 2.41 C1.13 0.95, 2.21 -0.02, 2.41 0 M0 2.41 C1.03 0.82, 2.81 -0.83, 2.41 0" stroke="#1e1e1e" stroke-width="1" fill="none"></path></g><g stroke-linecap="round"><g transform="translate(207.77780151367188 214.85189819335938) rotate(0 123.9994389579352 -3.0257226411253235)"><path d="M0.81 -0.16 C42.06 -1.29, 207.26 -4.94, 248.22 -5.89 M-0.22 -1.29 C40.88 -2.3, 206.16 -3.79, 247.7 -4.33" stroke="#1e1e1e" stroke-width="1" fill="none"></path></g><g transform="translate(207.77780151367188 214.85189819335938) rotate(0 123.9994389579352 -3.0257226411253235)"><path d="M219.35 7.59 C229.7 0.83, 239.82 -0.75, 249.31 -5.89 M219.12 6.89 C226.72 4.28, 234.36 -0.33, 248.69 -5.14" stroke="#1e1e1e" stroke-width="1" fill="none"></path></g><g transform="translate(207.77780151367188 214.85189819335938) rotate(0 123.9994389579352 -3.0257226411253235)"><path d="M219.13 -12.93 C229.71 -12.31, 239.91 -6.51, 249.31 -5.89 M218.89 -13.63 C226.45 -10.72, 234.15 -9.79, 248.69 -5.14" stroke="#1e1e1e" stroke-width="1" fill="none"></path></g></g><mask></mask><g stroke-linecap="round"><g transform="translate(541.1111145019531 206.7037353515625) rotate(0 17.740756337735803 -0.8992642398923607)"><path d="M-0.33 -0.11 C5.24 -0.37, 27.58 -1.58, 33.44 -1.69 M1.69 -1.22 C7.66 -1.34, 30.35 -0.94, 35.81 -0.64" stroke="#1e1e1e" stroke-width="1" fill="none"></path></g><g transform="translate(541.1111145019531 206.7037353515625) rotate(0 17.740756337735803 -0.8992642398923607)"><path d="M19.46 3.77 C23.15 4.21, 29.34 0.91, 34.73 -1.92 M19.88 5.3 C23.05 2.61, 27.33 2.11, 36.21 0.02" stroke="#1e1e1e" stroke-width="1" fill="none"></path></g><g transform="translate(541.1111145019531 206.7037353515625) rotate(0 17.740756337735803 -0.8992642398923607)"><path d="M19.83 -7.88 C23.4 -3.95, 29.47 -3.74, 34.73 -1.92 M20.25 -6.35 C23.44 -6.05, 27.62 -3.56, 36.21 0.02" stroke="#1e1e1e" stroke-width="1" fill="none"></path></g></g><mask></mask><g stroke-linecap="round" transform="translate(587.0370178222656 182.25930786132812) rotate(0 36.29632568359375 22.222213745117188)"><path d="M11.11 0 M11.11 0 C22.44 -1.85, 34.85 1.7, 61.48 0 M11.11 0 C23.33 -0.02, 34.93 -0.43, 61.48 0 M61.48 0 C69.75 -1.93, 71.52 4.86, 72.59 11.11 M61.48 0 C67.99 -1.85, 72.05 4.74, 72.59 11.11 M72.59 11.11 C70.95 17.56, 72.53 24.09, 72.59 33.33 M72.59 11.11 C73.5 16.8, 73.1 23.87, 72.59 33.33 M72.59 33.33 C70.66 40.66, 69.15 46, 61.48 44.44 M72.59 33.33 C74.82 40.57, 69.43 44.33, 61.48 44.44 M61.48 44.44 C45.54 42.75, 31.89 43.66, 11.11 44.44 M61.48 44.44 C43.72 44.52, 26.75 45.01, 11.11 44.44 M11.11 44.44 C2.36 46.08, 0.84 39.33, 0 33.33 M11.11 44.44 C3.94 44.6, -0.57 41.28, 0 33.33 M0 33.33 C0.43 26.85, 2.17 19.03, 0 11.11 M0 33.33 C-0.74 28.66, 0.45 23.54, 0 11.11 M0 11.11 C0.5 2.38, 4.8 0.45, 11.11 0 M0 11.11 C-1.21 5.06, 1.42 1.61, 11.11 0" stroke="#1e1e1e" stroke-width="1" fill="none"></path></g><g transform="translate(603.2633590698242 191.9815216064453) rotate(0 20.069984436035156 12.5)"><text x="20.069984436035156" y="0" font-family="Virgil, Segoe UI Emoji" font-size="20px" fill="#1e1e1e" text-anchor="middle" style="white-space: pre;" direction="ltr" dominant-baseline="text-before-edge">Intr</text></g><g transform="translate(102.59259033203125 163.74078369140625) rotate(0 32.439964294433594 12.5)"><text x="0" y="0" font-family="Virgil, Segoe UI Emoji" font-size="20px" fill="#1e1e1e" text-anchor="start" style="white-space: pre;" direction="ltr" dominant-baseline="text-before-edge">Buffer</text></g><g stroke-linecap="round"><g transform="translate(619.6391116152042 180.51858520507812) rotate(0 -1.2158934246349418 -19.82883879551664)"><path d="M-0.23 -0.64 C-0.56 -7.39, -1.24 -34.73, -1.32 -41.29 M-1.81 1.63 C-2.32 -4.92, -2.23 -32.89, -2.08 -40.17" stroke="#1e1e1e" stroke-width="1" fill="none"></path></g><g transform="translate(619.6391116152042 180.51858520507812) rotate(0 -1.2158934246349418 -19.82883879551664)"><path d="M3.59 -20.49 C1.06 -26.21, 0.86 -36.01, -1.88 -40.04 M3.69 -20.51 C2.87 -26.31, 1.88 -32.22, -2.83 -40.7" stroke="#1e1e1e" stroke-width="1" fill="none"></path></g><g transform="translate(619.6391116152042 180.51858520507812) rotate(0 -1.2158934246349418 -19.82883879551664)"><path d="M-10.26 -20.62 C-7.9 -26.27, -3.19 -36.02, -1.88 -40.04 M-10.17 -20.64 C-7.17 -26.4, -4.35 -32.27, -2.83 -40.7" stroke="#1e1e1e" stroke-width="1" fill="none"></path></g></g><mask></mask><g stroke-linecap="round" transform="translate(564.0742492675781 86.7037353515625) rotate(0 50.00006103515625 22.59259033203125)"><path d="M11.3 0 M11.3 0 C28.35 -1.1, 50.47 1.38, 88.7 0 M11.3 0 C36.96 1.01, 61.46 1.55, 88.7 0 M88.7 0 C96.05 1, 100.12 4.25, 100 11.3 M88.7 0 C96.19 -1.84, 98.91 5.9, 100 11.3 M100 11.3 C101.89 18.93, 99.4 28.99, 100 33.89 M100 11.3 C99.36 17.78, 100.56 22.82, 100 33.89 M100 33.89 C98.93 41.04, 95.24 43.59, 88.7 45.19 M100 33.89 C97.99 42.35, 94.93 44.5, 88.7 45.19 M88.7 45.19 C68.21 43.56, 44.88 45.19, 11.3 45.19 M88.7 45.19 C60.6 45.05, 33.48 45.94, 11.3 45.19 M11.3 45.19 C4.89 43.78, -1.13 40.43, 0 33.89 M11.3 45.19 C4.91 46.7, 1.62 42.96, 0 33.89 M0 33.89 C-1.71 25.54, 1.99 22.16, 0 11.3 M0 33.89 C-0.62 26.9, 0.16 21.57, 0 11.3 M0 11.3 C-1.52 5.22, 4.34 -0.71, 11.3 0 M0 11.3 C1.04 4.08, 4.06 -0.77, 11.3 0" stroke="#1e1e1e" stroke-width="1" fill="none"></path></g><g transform="translate(605.8543167114258 96.79632568359375) rotate(0 8.219993591308594 12.5)"><text x="8.219993591308594" y="0" font-family="Virgil, Segoe UI Emoji" font-size="20px" fill="#1e1e1e" text-anchor="middle" style="white-space: pre;" direction="ltr" dominant-baseline="text-before-edge">...</text></g></svg>