<svg version="1.1" xmlns="http://www.w3.org/2000/svg" viewBox="0 0 685.3603686265119 362.78731868880215" width="685.3603686265119" height="362.78731868880215">
  <!-- svg-source:excalidraw -->
  
  <defs>
    <style class="style-fonts">
      @font-face {
        font-family: "Virgil";
        src: url("https://excalidraw.com/Virgil.woff2");
      }
      @font-face {
        font-family: "Cascadia";
        src: url("https://excalidraw.com/Cascadia.woff2");
      }
    </style>
    
  </defs>
  <rect x="0" y="0" width="685.3603686265119" height="362.78731868880215" fill="#ffffff"></rect><g stroke-linecap="round"><g transform="translate(130.53079404155096 291.77624342695657) rotate(0 212.7106243612524 -1.7548288614209753)"><path d="M0.89 0.07 C71.62 -0.3, 354.76 -1.14, 425.52 -1.72 M-0.1 -0.94 C70.4 -1.72, 353.93 -3.28, 424.75 -3.58" stroke="#1e1e1e" stroke-width="1" fill="none"></path></g><g transform="translate(130.53079404155096 291.77624342695657) rotate(0 212.7106243612524 -1.7548288614209753)"><path d="M396.73 7.39 C408.56 2.97, 416.9 -1.93, 425.85 -3.38 M395.75 6.2 C404.93 3.34, 414.27 -0.69, 424.06 -2.82" stroke="#1e1e1e" stroke-width="1" fill="none"></path></g><g transform="translate(130.53079404155096 291.77624342695657) rotate(0 212.7106243612524 -1.7548288614209753)"><path d="M396.62 -13.13 C408.59 -9.42, 416.96 -6.19, 425.85 -3.38 M395.64 -14.33 C404.84 -10.4, 414.21 -7.66, 424.06 -2.82" stroke="#1e1e1e" stroke-width="1" fill="none"></path></g></g><mask></mask><g stroke-linecap="round"><g transform="translate(131.2715777329572 291.7762739445347) rotate(0 -0.6762010222114441 -139.2568266045209)"><path d="M-0.76 -0.98 C-1.15 -47.53, -1.6 -233.08, -1.71 -279.64 M1.04 1.12 C0.48 -45.22, -1.92 -231.52, -2.39 -278.3" stroke="#1e1e1e" stroke-width="1" fill="none"></path></g><g transform="translate(131.2715777329572 291.7762739445347) rotate(0 -0.6762010222114441 -139.2568266045209)"><path d="M6.57 -249.38 C3.93 -258.83, -0.94 -271.05, -1.94 -276.56 M8.39 -249.73 C4.27 -261.16, -1.15 -273.1, -1.47 -277.78" stroke="#1e1e1e" stroke-width="1" fill="none"></path></g><g transform="translate(131.2715777329572 291.7762739445347) rotate(0 -0.6762010222114441 -139.2568266045209)"><path d="M-13.95 -249.14 C-9.39 -258.54, -7.05 -270.85, -1.94 -276.56 M-12.13 -249.49 C-8.04 -261.01, -5.26 -273.04, -1.47 -277.78" stroke="#1e1e1e" stroke-width="1" fill="none"></path></g></g><mask></mask><g stroke-linecap="round" transform="translate(183.86416806498846 211.03553602949563) rotate(0 11.481475830078125 11.85186767578125)"><path d="M15 2.46 L20.29 13.2 L13.83 22.92 L-0.15 10.47 L12.73 1.08 L14.01 2.98" stroke="none" stroke-width="0" fill="#b2f2bb"></path><path d="M15 3 M15 3 C17.24 5.52, 19.28 7.12, 19.96 9 M15 3 C16.11 4.63, 17.75 6, 19.96 9 M19.96 9 C22.88 11.15, 23.84 12.4, 19.96 15 M19.96 9 C22.33 12.13, 21.78 11.13, 19.96 15 M19.96 15 C18.93 16.83, 17.41 17.26, 15 20.7 M19.96 15 C18.48 16.55, 17 18.32, 15 20.7 M15 20.7 C12.94 22.19, 11.88 21.83, 9 20.7 M15 20.7 C11.17 24.79, 10.83 23.57, 9 20.7 M9 20.7 C7.14 18.79, 6.98 18.68, 3 15 M9 20.7 C8.14 19.37, 6.74 18.32, 3 15 M3 15 C0.08 12.54, -0.03 10.84, 3 9 M3 15 C-0.09 10.97, 0.13 11.39, 3 9 M3 9 C5.31 7.3, 8.17 3.73, 9 3 M3 9 C4.83 7, 6.87 4.96, 9 3 M9 3 C12.68 -1.13, 12.49 -1.65, 15 3 M9 3 C12.77 -0.31, 11.45 1.78, 15 3" stroke="#1e1e1e" stroke-width="1" fill="none"></path></g><g transform="translate(118.67898740092596 295.48002455488626) rotate(0 6.879997253417969 12.5)"><text x="0" y="0" font-family="Virgil, Segoe UI Emoji" font-size="20px" fill="#1e1e1e" text-anchor="start" style="white-space: pre;" direction="ltr" dominant-baseline="text-before-edge">0</text></g><g stroke-linecap="round"><g transform="translate(135.7160052231916 256.9615003849644) rotate(0 4.665971303358674 0.2658861793297227)"><path d="M-0.29 0.93 C1.25 0.86, 7.77 -0.2, 9.62 -0.56 M1.76 0.37 C3.1 0.54, 7.19 1.17, 8.67 1.08" stroke="#1e1e1e" stroke-width="1" fill="none"></path></g></g><mask></mask><g stroke-linecap="round"><g transform="translate(133.49380673686346 222.14668104902688) rotate(0 5.920608970280739 -0.20766518211923568)"><path d="M-0.06 -1.2 C1.91 -0.96, 9.23 0.66, 11.08 0.75 M-1.55 0.78 C0.87 0.74, 10.88 -0.9, 13.39 -0.98" stroke="#1e1e1e" stroke-width="1" fill="none"></path></g></g><mask></mask><g stroke-linecap="round"><g transform="translate(133.49380673686346 176.96150038496438) rotate(0 5.8693971321638685 -1.4855796696897627)"><path d="M-0.2 0.11 C2.18 0.04, 11.43 -1.05, 13.51 -1.14 M-1.77 -0.87 C0.54 -1.26, 9.92 -2.86, 12.65 -3.08" stroke="#1e1e1e" stroke-width="1" fill="none"></path></g></g><mask></mask><g stroke-linecap="round"><g transform="translate(132.0123003892072 133.99854872480813) rotate(0 5.411700789844616 0.4729075051156997)"><path d="M0.32 -0.67 C2.46 -0.64, 9.77 0.89, 11.79 1.23 M-0.97 1.6 C1.1 1.78, 8.65 -0.27, 10.81 -0.63" stroke="#1e1e1e" stroke-width="1" fill="none"></path></g></g><mask></mask><g stroke-linecap="round"><g transform="translate(133.49380673686346 101.40597365156594) rotate(0 7.589327601753183 0.23805487325415697)"><path d="M0.68 0.58 C2.82 0.41, 11.03 -0.18, 13.29 -0.42 M-0.42 -0.16 C2.06 -0.22, 13.26 0.87, 15.59 0.9" stroke="#1e1e1e" stroke-width="1" fill="none"></path></g></g><mask></mask><g stroke-linecap="round"><g transform="translate(129.7901019028791 67.3318922306675) rotate(0 8.81916509903968 0.28506540530361235)"><path d="M-0.31 -0.81 C2.73 -0.76, 15.08 0.87, 17.95 1.16 M1.72 1.38 C4.72 1.06, 15.08 0.03, 17.49 -0.35" stroke="#1e1e1e" stroke-width="1" fill="none"></path></g></g><mask></mask><g transform="translate(80.16049374858221 251.77631972090188) rotate(0 23.349990844726562 12.5)"><text x="0" y="0" font-family="Virgil, Segoe UI Emoji" font-size="20px" fill="#1e1e1e" text-anchor="start" style="white-space: pre;" direction="ltr" dominant-baseline="text-before-edge">1000</text></g><g transform="translate(77.3289965561994 209.86891005293313) rotate(0 27.759986877441406 12.5)"><text x="0" y="0" font-family="Virgil, Segoe UI Emoji" font-size="20px" fill="#1e1e1e" text-anchor="start" style="white-space: pre;" direction="ltr" dominant-baseline="text-before-edge">2000</text></g><g transform="translate(78.95860471049627 171.09113905683938) rotate(0 27.449989318847656 12.5)"><text x="0" y="0" font-family="Virgil, Segoe UI Emoji" font-size="20px" fill="#1e1e1e" text-anchor="start" style="white-space: pre;" direction="ltr" dominant-baseline="text-before-edge">3000</text></g><g transform="translate(76.62529172221502 128.38740370527688) rotate(0 27.03998565673828 12.5)"><text x="0" y="0" font-family="Virgil, Segoe UI Emoji" font-size="20px" fill="#1e1e1e" text-anchor="start" style="white-space: pre;" direction="ltr" dominant-baseline="text-before-edge">4000</text></g><g transform="translate(77.77342404643377 91.5726148869175) rotate(0 26.819984436035156 12.5)"><text x="0" y="0" font-family="Virgil, Segoe UI Emoji" font-size="20px" fill="#1e1e1e" text-anchor="start" style="white-space: pre;" direction="ltr" dominant-baseline="text-before-edge">5000</text></g><g transform="translate(78.47715939799627 56.498579242386256) rotate(0 27.03998565673828 12.5)"><text x="0" y="0" font-family="Virgil, Segoe UI Emoji" font-size="20px" fill="#1e1e1e" text-anchor="start" style="white-space: pre;" direction="ltr" dominant-baseline="text-before-edge">6000</text></g><g stroke-linecap="round"><g transform="translate(208.30859555522284 282.887434222855) rotate(0 -0.29468063477976614 6.003508240822703)"><path d="M0.38 1.07 C0.28 2.61, 0.31 8.72, 0.33 10.31 M-0.88 0.58 C-1.19 2.77, -0.58 9.59, -0.44 11.42" stroke="#1e1e1e" stroke-width="1" fill="none"></path></g></g><mask></mask><g stroke-linecap="round"><g transform="translate(285.3456744126447 283.62821791426126) rotate(0 -1.0113162330982703 5.035366048868746)"><path d="M-0.92 0.07 C-1.26 1.88, -2.5 9.29, -2.83 11.01 M0.8 -0.94 C0.93 0.51, -0.24 7.11, -0.44 9.23" stroke="#1e1e1e" stroke-width="1" fill="none"></path></g></g><mask></mask><g stroke-linecap="round"><g transform="translate(353.49380673686346 282.1466810490269) rotate(0 0.10962003385647989 5.602660014862195)"><path d="M-0.47 0.23 C-0.59 2.26, -0.5 9.89, -0.47 11.9 M1.49 -0.7 C1.21 1.02, -0.89 8.32, -1.27 10.19" stroke="#1e1e1e" stroke-width="1" fill="none"></path></g></g><mask></mask><g stroke-linecap="round"><g transform="translate(412.7530230454572 279.9245130802769) rotate(0 -1.0955230299383398 5.2803832479380075)"><path d="M1.18 0.12 C0.49 1.95, -2.83 9.44, -3.37 11.42 M0.34 -0.86 C-0.07 0.55, -0.75 7.62, -1.26 9.46" stroke="#1e1e1e" stroke-width="1" fill="none"></path></g></g><mask></mask><g stroke-linecap="round"><g transform="translate(483.1233843735822 277.7022535587925) rotate(0 -0.7034928058526795 8.093241794053466)"><path d="M-0.87 0.17 C-1.13 2.8, -2.4 13.14, -2.31 15.99 M0.88 -0.79 C1.06 1.94, 0.2 13.72, -0.03 16.98" stroke="#1e1e1e" stroke-width="1" fill="none"></path></g></g><mask></mask><g transform="translate(185.99568356791815 293.98002455488626) rotate(0 27.759986877441406 12.5)"><text x="0" y="0" font-family="Virgil, Segoe UI Emoji" font-size="20px" fill="#1e1e1e" text-anchor="start" style="white-space: pre;" direction="ltr" dominant-baseline="text-before-edge">2000</text></g><g transform="translate(260.29194821635565 293.9059583927769) rotate(0 27.03998565673828 12.5)"><text x="0" y="0" font-family="Virgil, Segoe UI Emoji" font-size="20px" fill="#1e1e1e" text-anchor="start" style="white-space: pre;" direction="ltr" dominant-baseline="text-before-edge">4000</text></g><g transform="translate(327.88472165385565 295.4986402775425) rotate(0 27.03998565673828 12.5)"><text x="0" y="0" font-family="Virgil, Segoe UI Emoji" font-size="20px" fill="#1e1e1e" text-anchor="start" style="white-space: pre;" direction="ltr" dominant-baseline="text-before-edge">6000</text></g><g transform="translate(389.3289965561994 293.75782606855813) rotate(0 28.28998565673828 12.5)"><text x="0" y="0" font-family="Virgil, Segoe UI Emoji" font-size="20px" fill="#1e1e1e" text-anchor="start" style="white-space: pre;" direction="ltr" dominant-baseline="text-before-edge">8000</text></g><g transform="translate(460.29194821635565 294.57264540449563) rotate(0 30.22998809814453 12.5)"><text x="0" y="0" font-family="Virgil, Segoe UI Emoji" font-size="20px" fill="#1e1e1e" text-anchor="start" style="white-space: pre;" direction="ltr" dominant-baseline="text-before-edge">10000</text></g><g stroke-linecap="round" transform="translate(226.9382952622541 164.18372938887063) rotate(0 11.481475830078125 11.85186767578125)"><path d="M15.86 2.9 L23.41 11.88 L12.51 22.45 L-0.42 10.52 L9.32 0.58 L16.05 3.91" stroke="none" stroke-width="0" fill="#b2f2bb"></path><path d="M15 3 M15 3 C16.78 5.09, 18.93 7.66, 19.96 9 M15 3 C16.24 4.55, 18.01 6.13, 19.96 9 M19.96 9 C23.37 12.68, 23.05 10.85, 19.96 15 M19.96 9 C24.41 12.04, 23.17 13.79, 19.96 15 M19.96 15 C17.77 17.3, 16.25 18.53, 15 20.7 M19.96 15 C18.79 16.69, 16.87 18.24, 15 20.7 M15 20.7 C11.25 23.35, 10.75 23.95, 9 20.7 M15 20.7 C10.72 23.46, 14.2 25.48, 9 20.7 M9 20.7 C7.53 18.68, 4.68 16.94, 3 15 M9 20.7 C7.84 19.38, 5.78 18.21, 3 15 M3 15 C0.54 10.32, 0.93 13.27, 3 9 M3 15 C1.36 13.9, -1.44 10.3, 3 9 M3 9 C5.33 6.62, 6.57 5.84, 9 3 M3 9 C5.01 7, 7.18 5.51, 9 3 M9 3 C12.76 0.1, 11.39 -0.74, 15 3 M9 3 C12.28 -1.33, 11.05 1.73, 15 3" stroke="#1e1e1e" stroke-width="1" fill="none"></path></g><g stroke-linecap="round" transform="translate(261.9382952622541 120.51707289473) rotate(0 11.481475830078125 11.85186767578125)"><path d="M15.51 2.5 L21.04 10.52 L10.54 22.22 L1.8 12.91 L12.3 1.11 L16.5 2.79" stroke="none" stroke-width="0" fill="#b2f2bb"></path><path d="M15 3 M15 3 C16.33 5.02, 18.5 5.96, 19.96 9 M15 3 C16.41 4.76, 17.67 6, 19.96 9 M19.96 9 C24.22 12.03, 23.14 13.55, 19.96 15 M19.96 9 C23.39 13.54, 22.22 10.01, 19.96 15 M19.96 15 C17.91 16.45, 16.65 19.64, 15 20.7 M19.96 15 C18.15 16.81, 16.43 18.79, 15 20.7 M15 20.7 C10.88 23.49, 13.91 25.25, 9 20.7 M15 20.7 C13.08 22.39, 12.73 25.31, 9 20.7 M9 20.7 C6.71 19.76, 5.27 17.97, 3 15 M9 20.7 C7.32 18.63, 5.56 17.5, 3 15 M3 15 C1.18 13.65, -1.25 10.52, 3 9 M3 15 C-0.57 12.46, 0.5 13.88, 3 9 M3 9 C4.43 8.14, 4.88 6.65, 9 3 M3 9 C4.72 7.37, 6.05 5.57, 9 3 M9 3 C12.24 -1.15, 11.18 1.5, 15 3 M9 3 C12.02 0.88, 11.15 -0.65, 15 3" stroke="#1e1e1e" stroke-width="1" fill="none"></path></g><g stroke-linecap="round" transform="translate(316.53088559428534 104.10961745039407) rotate(0 11.481475830078125 11.85186767578125)"><path d="M15 3 M15 3 C16.46 4.93, 17.15 6.28, 19.96 9 M15 3 C16.52 4.68, 18.03 6.8, 19.96 9 M19.96 9 C21.86 11.31, 23.55 10.51, 19.96 15 M19.96 9 C23.44 12.78, 23.06 10.68, 19.96 15 M19.96 15 C18.75 17.22, 16.87 18.9, 15 20.7 M19.96 15 C18.9 16.08, 17.57 17.58, 15 20.7 M15 20.7 C13.25 24.26, 10.29 24.15, 9 20.7 M15 20.7 C11.13 23.29, 10.56 23.99, 9 20.7 M9 20.7 C8.18 19.76, 5.6 18.24, 3 15 M9 20.7 C6.87 18.31, 4.92 16.36, 3 15 M3 15 C1.45 12.13, -1.72 12.94, 3 9 M3 15 C0.62 10.07, 1.07 13.46, 3 9 M3 9 C4.48 6.67, 7.43 4.91, 9 3 M3 9 C5.42 6.77, 7.85 4.06, 9 3 M9 3 C12.59 -0.62, 13.81 1.38, 15 3 M9 3 C12.88 0.12, 11.29 -0.86, 15 3" stroke="#1e1e1e" stroke-width="1" fill="none"></path></g><g stroke-linecap="round" transform="translate(351.04931821147284 117.7022535587925) rotate(0 11.481475830078125 11.85186767578125)"><path d="M15 3 M15 3 C17.34 4.99, 18.34 7.35, 19.96 9 M15 3 C16.93 4.7, 18.07 6.97, 19.96 9 M19.96 9 C21.47 12.41, 23.65 12.09, 19.96 15 M19.96 9 C21.64 13.45, 23 12.2, 19.96 15 M19.96 15 C17.86 16.53, 16.72 18.75, 15 20.7 M19.96 15 C18.7 16.84, 17.19 17.93, 15 20.7 M15 20.7 C12.45 22.95, 11.64 22.45, 9 20.7 M15 20.7 C12.28 22.42, 11.76 25.9, 9 20.7 M9 20.7 C6.97 19.1, 4.39 16.18, 3 15 M9 20.7 C7 19.22, 5.21 16.74, 3 15 M3 15 C0.94 12.54, -1.68 12.93, 3 9 M3 15 C1.46 13.36, 1.9 10.56, 3 9 M3 9 C4.56 8.32, 5.01 6.56, 9 3 M3 9 C4.56 7.18, 6.68 5.53, 9 3 M9 3 C13.38 0.76, 12.1 -0.61, 15 3 M9 3 C11.14 0.28, 10.67 -0.95, 15 3" stroke="#1e1e1e" stroke-width="1" fill="none"></path></g><g stroke-linecap="round" transform="translate(408.6049212388166 170.59113905683938) rotate(0 11.481475830078125 11.85186767578125)"><path d="M15 3 M15 3 C15.88 5.12, 18.21 7.28, 19.96 9 M15 3 C16.65 5.49, 18.54 7.7, 19.96 9 M19.96 9 C24.3 10.69, 21.39 11.49, 19.96 15 M19.96 9 C25.02 11.75, 24.15 10.55, 19.96 15 M19.96 15 C17.52 17.9, 15.71 19.36, 15 20.7 M19.96 15 C18.17 16.93, 16.92 18.04, 15 20.7 M15 20.7 C12.96 25.25, 11.27 23.81, 9 20.7 M15 20.7 C10.52 25.64, 13.4 22.18, 9 20.7 M9 20.7 C6.27 18.4, 4.41 16.26, 3 15 M9 20.7 C7.36 19.41, 5.7 17.28, 3 15 M3 15 C-0.21 12.03, -1.95 11.13, 3 9 M3 15 C1.13 14.22, 0.77 13.4, 3 9 M3 9 C4.91 5.77, 8.39 3.59, 9 3 M3 9 C4.82 6.77, 7.24 5.1, 9 3 M9 3 C13 1.95, 11.25 -1.67, 15 3 M9 3 C12.4 1.51, 10.08 1.44, 15 3" stroke="#1e1e1e" stroke-width="1" fill="none"></path></g><g stroke-linecap="round" transform="translate(379.7160052231916 142.44300673262063) rotate(0 11.481475830078125 11.85186767578125)"><path d="M15 3 M15 3 C16.55 4.93, 17.63 5.35, 19.96 9 M15 3 C16.19 4.63, 16.97 5.4, 19.96 9 M19.96 9 C22.46 13.79, 22.74 13.03, 19.96 15 M19.96 9 C21.52 13.72, 23.46 12.64, 19.96 15 M19.96 15 C19 16.07, 17.31 17.41, 15 20.7 M19.96 15 C18.89 16.3, 18.3 17.13, 15 20.7 M15 20.7 C12.1 22.42, 13.68 24.92, 9 20.7 M15 20.7 C10.47 25.87, 14.17 22.91, 9 20.7 M9 20.7 C7.5 19.1, 5.46 17.86, 3 15 M9 20.7 C6.91 18.9, 5.22 16.76, 3 15 M3 15 C-0.87 12.99, 1.93 12.67, 3 9 M3 15 C1.4 14.06, -0.28 14.26, 3 9 M3 9 C3.88 7.73, 6.63 6.59, 9 3 M3 9 C4.78 7.56, 6.66 5.58, 9 3 M9 3 C10.33 0.35, 13.31 -1.67, 15 3 M9 3 C13.44 1.46, 12.08 1.86, 15 3" stroke="#1e1e1e" stroke-width="1" fill="none"></path></g><g stroke-linecap="round" transform="translate(446.01233090678534 205.48002455488626) rotate(0 11.481475830078125 11.85186767578125)"><path d="M15 3 M15 3 C16.67 4.53, 18.98 6.67, 19.96 9 M15 3 C16.3 4.83, 18.53 6.79, 19.96 9 M19.96 9 C24 10.74, 24.45 12.43, 19.96 15 M19.96 9 C23.6 10.19, 25.24 10.35, 19.96 15 M19.96 15 C18.33 16, 17.56 18.02, 15 20.7 M19.96 15 C18.53 16.58, 17.1 18.39, 15 20.7 M15 20.7 C13.21 22.38, 13.88 25.59, 9 20.7 M15 20.7 C11.21 22.84, 11.89 24.23, 9 20.7 M9 20.7 C7.3 19.01, 5.96 17.34, 3 15 M9 20.7 C7.06 19.06, 6.12 18.17, 3 15 M3 15 C0.67 13.22, 1.79 11.76, 3 9 M3 15 C2.26 10.83, -2.26 13.93, 3 9 M3 9 C4.94 7.37, 5.26 6.87, 9 3 M3 9 C4.81 6.59, 7.04 5.22, 9 3 M9 3 C10.33 1.26, 13.27 0.07, 15 3 M9 3 C13.86 2.17, 12.56 2.01, 15 3" stroke="#1e1e1e" stroke-width="1" fill="none"></path></g><g stroke-linecap="round" transform="translate(460.82715024272284 185.48002455488626) rotate(0 11.481475830078125 11.85186767578125)"><path d="M15 3 M15 3 C15.69 4.77, 18.23 5.79, 19.96 9 M15 3 C16.04 4.48, 16.94 5.9, 19.96 9 M19.96 9 C23.39 12.56, 21.39 13.98, 19.96 15 M19.96 9 C21.31 12.24, 22.47 10.45, 19.96 15 M19.96 15 C17.99 16.44, 17.4 18.93, 15 20.7 M19.96 15 C18.98 16.7, 17.1 18.33, 15 20.7 M15 20.7 C13.89 23.02, 11.25 23.61, 9 20.7 M15 20.7 C12.53 23.9, 11.66 22.61, 9 20.7 M9 20.7 C7.28 18.59, 5.1 17.15, 3 15 M9 20.7 C8.21 19.72, 6.85 18.79, 3 15 M3 15 C-0.24 13.96, -1.02 10.03, 3 9 M3 15 C1.93 10.18, 0.76 13.58, 3 9 M3 9 C5.83 7.06, 7.94 5.36, 9 3 M3 9 C4.9 7.06, 6.46 6.11, 9 3 M9 3 C12.07 1.62, 13.88 0.49, 15 3 M9 3 C14.01 2.29, 12.35 1.78, 15 3" stroke="#1e1e1e" stroke-width="1" fill="none"></path></g><g stroke-linecap="round" transform="translate(432.93823422709784 183.51707289473) rotate(0 11.481475830078125 11.85186767578125)"><path d="M15 3 M15 3 C15.58 3.66, 16.98 6.28, 19.96 9 M15 3 C16.76 4.85, 18.01 6.19, 19.96 9 M19.96 9 C24.95 10.57, 23.17 11.57, 19.96 15 M19.96 9 C21.41 11.75, 20.71 14.11, 19.96 15 M19.96 15 C19.36 16.09, 17.64 17.23, 15 20.7 M19.96 15 C18.45 17.51, 16.06 19.21, 15 20.7 M15 20.7 C11.9 24.16, 12.17 23.41, 9 20.7 M15 20.7 C10.91 24.1, 12.27 25.51, 9 20.7 M9 20.7 C7.1 18.05, 4.8 17.43, 3 15 M9 20.7 C6.97 18.43, 4.63 16.01, 3 15 M3 15 C-1.97 13.67, -1.59 12.66, 3 9 M3 15 C1.58 13.71, -0.73 11, 3 9 M3 9 C6.01 6.45, 6.67 4.72, 9 3 M3 9 C5.51 6.78, 7.78 4.98, 9 3 M9 3 C12.49 1.74, 13.99 0.3, 15 3 M9 3 C13.78 0.58, 12.22 -2, 15 3" stroke="#1e1e1e" stroke-width="1" fill="none"></path></g><g stroke-linecap="round" transform="translate(476.9011858872541 216.10966322676126) rotate(0 11.481475830078125 11.85186767578125)"><path d="M15 3 M15 3 C16.81 4.33, 17.68 5.33, 19.96 9 M15 3 C16.57 5.62, 18.45 7.52, 19.96 9 M19.96 9 C22.53 10.65, 22.75 10.04, 19.96 15 M19.96 9 C25.07 10.53, 22.19 13.11, 19.96 15 M19.96 15 C17.58 17.79, 16.66 18.8, 15 20.7 M19.96 15 C17.92 17.21, 16.19 19.51, 15 20.7 M15 20.7 C11.71 22.75, 12.34 23.94, 9 20.7 M15 20.7 C13.81 24.22, 11.01 23.47, 9 20.7 M9 20.7 C7.65 19.76, 5.71 17.74, 3 15 M9 20.7 C6.46 18.13, 4.68 15.99, 3 15 M3 15 C0.66 13.37, 1.49 11.37, 3 9 M3 15 C-1 13.53, 0.76 13.15, 3 9 M3 9 C5.55 7.22, 7.08 4.81, 9 3 M3 9 C5.58 6.87, 7.73 5.01, 9 3 M9 3 C12.3 1.55, 12.5 0.19, 15 3 M9 3 C10 0.99, 11.04 -1.41, 15 3" stroke="#1e1e1e" stroke-width="1" fill="none"></path></g><g transform="translate(-123.54321108540216 146.59113905683938) rotate(268.9073897859366 148.87985229492188 12.5)"><text x="0" y="0" font-family="Virgil, Segoe UI Emoji" font-size="20px" fill="#1e1e1e" text-anchor="start" style="white-space: pre;" direction="ltr" dominant-baseline="text-before-edge">Output packet rate(pkts/sec)</text></g><g transform="translate(194.8738604077515 324.7062515035574) rotate(358.79018841561805 146.05987548828125 12.5)"><text x="0" y="0" font-family="Virgil, Segoe UI Emoji" font-size="20px" fill="#1e1e1e" text-anchor="start" style="white-space: pre;" direction="ltr" dominant-baseline="text-before-edge">Intput packet rate(pkts/sec)</text></g><g stroke-linecap="round"><g transform="translate(130.5308245591291 288.07264540449563) rotate(0 96.06502869850955 -92.03814951814712)"><path d="M-0.23 1.16 C32.22 -29.76, 161.6 -154.2, 193.94 -185.23 M-1.81 0.72 C30.59 -30.09, 160.8 -153.31, 193.31 -184.11" stroke="#1e1e1e" stroke-width="1" fill="none"></path></g></g><mask></mask><g stroke-linecap="round"><g transform="translate(325.34561337748846 106.59113905683938) rotate(0 96.84916438514368 86.46308739399538)"><path d="M-0.17 0.76 C32.44 29.45, 162.61 144.42, 195.41 172.82 M-1.72 0.11 C30.74 28.42, 161.37 142.54, 194.39 171.21" stroke="#1e1e1e" stroke-width="1" fill="none"></path></g></g><mask></mask><g stroke-linecap="round"><g transform="translate(323.86416806498846 102.88746474043313) rotate(0 140.33178306184712 0.8260450789591118)"><path d="M-0.42 1.19 C46.44 1.32, 234.08 0.59, 281.08 0.45" stroke="#1e1e1e" stroke-width="1.5" fill="none" stroke-dasharray="1.5 7"></path></g></g><mask></mask><g stroke-linecap="round" transform="translate(365.3455523423322 89.55413649336282) rotate(0 9.629638671875 13.333320617675781)"><path d="M10.65 3.2 L19.62 15.21 L11.78 27.75 L-0.09 14.79 L8.94 1.29 L8.65 -0.72 L13.87 1.55" stroke="none" stroke-width="0" fill="#ffec99"></path><path d="M12.5 3.5 M12.5 3.5 C13.61 6.41, 15.04 8.64, 16.76 10.5 M12.5 3.5 C13.6 5.29, 14.32 6.12, 16.76 10.5 M16.76 10.5 C21.1 12.23, 17.41 15.2, 16.76 17.5 M16.76 10.5 C17.21 14.52, 18.72 16.02, 16.76 17.5 M16.76 17.5 C15.65 18.32, 14.36 20.64, 12.5 23.17 M16.76 17.5 C15.06 19.33, 13.74 21.07, 12.5 23.17 M12.5 23.17 C8.23 24.8, 8.12 28.58, 7.5 23.17 M12.5 23.17 C10.07 27.41, 7.99 24.79, 7.5 23.17 M7.5 23.17 C6.16 21.55, 4.91 19.82, 2.5 17.5 M7.5 23.17 C6.37 21.42, 4.39 20.38, 2.5 17.5 M2.5 17.5 C-0.12 12.19, 1.04 14.04, 2.5 10.5 M2.5 17.5 C-2.05 13.42, 1.7 12.51, 2.5 10.5 M2.5 10.5 C4.14 8.7, 6.47 4.53, 7.5 3.5 M2.5 10.5 C4 8.97, 5.12 6.39, 7.5 3.5 M7.5 3.5 C10.22 1.51, 11.83 -1.59, 12.5 3.5 M7.5 3.5 C7.83 -0.53, 10.27 -1.24, 12.5 3.5" stroke="#1e1e1e" stroke-width="1" fill="none"></path></g><g stroke-linecap="round" transform="translate(390.86416806498846 87.99857161299173) rotate(0 9.629638671875 13.333320617675781)"><path d="M13.18 4.08 L16.65 15.25 L8.77 26.7 L-0.23 15.06 L8.75 -0.09 L10.01 0.25 L10.8 4.61" stroke="none" stroke-width="0" fill="#ffec99"></path><path d="M12.5 3.5 M12.5 3.5 C14.27 4.19, 15.22 6.84, 16.76 10.5 M12.5 3.5 C14.13 5.6, 15.1 7.38, 16.76 10.5 M16.76 10.5 C18.99 13.69, 21.05 15.31, 16.76 17.5 M16.76 10.5 C20.14 13.16, 20.74 13.94, 16.76 17.5 M16.76 17.5 C15.63 19, 14.09 20.25, 12.5 23.17 M16.76 17.5 C15.16 19.91, 13.46 22.02, 12.5 23.17 M12.5 23.17 C11.52 26.96, 11.73 26.87, 7.5 23.17 M12.5 23.17 C11.68 26.25, 11.57 28.38, 7.5 23.17 M7.5 23.17 C6.14 20.63, 4.36 19.04, 2.5 17.5 M7.5 23.17 C5.17 21.1, 3.72 18.92, 2.5 17.5 M2.5 17.5 C-0.15 15.57, -0.91 12.86, 2.5 10.5 M2.5 17.5 C-0.32 12.2, -2.04 15.04, 2.5 10.5 M2.5 10.5 C3.38 9.18, 5.15 7.08, 7.5 3.5 M2.5 10.5 C4.27 8.32, 4.97 7.16, 7.5 3.5 M7.5 3.5 C10.67 -1.33, 9.34 -0.81, 12.5 3.5 M7.5 3.5 C10.55 -0.67, 7.91 0.97, 12.5 3.5" stroke="#1e1e1e" stroke-width="1" fill="none"></path></g><g stroke-linecap="round" transform="translate(408.86416806498846 92.99857161299173) rotate(0 9.629638671875 13.333320617675781)"><path d="M13.75 2.27 L19.54 13.14 L11.06 25.56 L-1 14.01 L8.36 -0.17 L11.11 -0.7 L14.37 5.34" stroke="none" stroke-width="0" fill="#ffec99"></path><path d="M12.5 3.5 M12.5 3.5 C14.38 6.23, 15.05 8.31, 16.76 10.5 M12.5 3.5 C13.81 6.23, 15.83 9.44, 16.76 10.5 M16.76 10.5 C20.57 14.77, 18.53 15.29, 16.76 17.5 M16.76 10.5 C19.2 12.6, 19.86 16.06, 16.76 17.5 M16.76 17.5 C15.56 19.67, 13.89 21.21, 12.5 23.17 M16.76 17.5 C15.53 19.6, 14.1 21.46, 12.5 23.17 M12.5 23.17 C10.21 28.12, 9.64 28.03, 7.5 23.17 M12.5 23.17 C11.72 27.04, 8.87 26.42, 7.5 23.17 M7.5 23.17 C5.39 22.03, 4.44 19.39, 2.5 17.5 M7.5 23.17 C6.66 21.98, 5.69 20.65, 2.5 17.5 M2.5 17.5 C-1.14 13.72, -1.57 12.23, 2.5 10.5 M2.5 17.5 C1.04 12.57, -1.41 13.38, 2.5 10.5 M2.5 10.5 C3.66 8.32, 4.37 6.1, 7.5 3.5 M2.5 10.5 C4.8 7.89, 6.25 4.83, 7.5 3.5 M7.5 3.5 C9.19 0.47, 9.41 -1.82, 12.5 3.5 M7.5 3.5 C10.97 1.95, 10.51 -0.37, 12.5 3.5" stroke="#1e1e1e" stroke-width="1" fill="none"></path></g><g stroke-linecap="round" transform="translate(443.97525204936346 92.99857161299173) rotate(0 9.629638671875 13.333320617675781)"><path d="M11.64 4.56 L18.4 12.38 L10.01 25.17 L-1.07 15.11 L7.41 3.4 L11.84 2.73 L10.51 5.38" stroke="none" stroke-width="0" fill="#ffec99"></path><path d="M12.5 3.5 M12.5 3.5 C13.27 6.69, 15.24 8.4, 16.76 10.5 M12.5 3.5 C13.73 5.22, 14.4 6.24, 16.76 10.5 M16.76 10.5 C20.55 13.95, 18.04 14.53, 16.76 17.5 M16.76 10.5 C21.32 13.61, 19.6 11.89, 16.76 17.5 M16.76 17.5 C16.08 19.33, 14.63 20.92, 12.5 23.17 M16.76 17.5 C15.69 19.43, 14.22 21.22, 12.5 23.17 M12.5 23.17 C11.36 28.16, 10.32 25.68, 7.5 23.17 M12.5 23.17 C9.75 27.25, 7.74 26.65, 7.5 23.17 M7.5 23.17 C6.21 21.19, 5.51 20.92, 2.5 17.5 M7.5 23.17 C5.53 20.95, 3.85 18.83, 2.5 17.5 M2.5 17.5 C-1.77 14.9, -1.24 12.78, 2.5 10.5 M2.5 17.5 C-0.62 13.06, 0.88 14.6, 2.5 10.5 M2.5 10.5 C3.21 9.36, 4.58 6.14, 7.5 3.5 M2.5 10.5 C4.13 7.85, 6.16 5.39, 7.5 3.5 M7.5 3.5 C8.18 0.84, 11.7 0.44, 12.5 3.5 M7.5 3.5 C9.63 -0.75, 8.31 1.77, 12.5 3.5" stroke="#1e1e1e" stroke-width="1" fill="none"></path></g><g stroke-linecap="round" transform="translate(478.67898740092596 93.03560469404641) rotate(0 9.629638671875 13.333320617675781)"><path d="M10.88 3.51 L18.01 12.3 L11.11 24.21 L2.49 15.84 L10.84 -0.46 L11.88 1.56 L12.54 1.74" stroke="none" stroke-width="0" fill="#ffec99"></path><path d="M12.5 3.5 M12.5 3.5 C13.69 4.28, 14.34 6.47, 16.76 10.5 M12.5 3.5 C14.06 6.47, 15.85 8.69, 16.76 10.5 M16.76 10.5 C19.79 15.79, 18.92 14.29, 16.76 17.5 M16.76 10.5 C17.15 14, 21.24 12.47, 16.76 17.5 M16.76 17.5 C15.21 19.89, 14.1 21.9, 12.5 23.17 M16.76 17.5 C15.06 19.96, 13.74 21.97, 12.5 23.17 M12.5 23.17 C9.02 26.45, 10.51 24.7, 7.5 23.17 M12.5 23.17 C9.98 25.03, 12.17 27.08, 7.5 23.17 M7.5 23.17 C6.45 22.01, 4.62 20.52, 2.5 17.5 M7.5 23.17 C5.97 21.38, 5.16 20.04, 2.5 17.5 M2.5 17.5 C-1.22 13.46, -0.82 14.77, 2.5 10.5 M2.5 17.5 C0.6 13.72, -0.93 12.16, 2.5 10.5 M2.5 10.5 C3.12 9.57, 4.84 7.01, 7.5 3.5 M2.5 10.5 C3.74 8.23, 5.38 7.11, 7.5 3.5 M7.5 3.5 C10.44 -0.32, 9.35 -1.47, 12.5 3.5 M7.5 3.5 C11.77 -1.49, 8.32 1.18, 12.5 3.5" stroke="#1e1e1e" stroke-width="1" fill="none"></path></g><g stroke-linecap="round" transform="translate(509.93826474467596 93.62819502607766) rotate(0 9.629638671875 13.333320617675781)"><path d="M13.57 3.63 L19.3 15.52 L10.29 27.52 L0.83 15.46 L8.62 2.89 L11.49 1.2 L11.52 3.28" stroke="none" stroke-width="0" fill="#ffec99"></path><path d="M12.5 3.5 M12.5 3.5 C13.23 6.55, 15.35 7.95, 16.76 10.5 M12.5 3.5 C13.67 4.91, 14.63 6.21, 16.76 10.5 M16.76 10.5 C18.12 13.72, 17.69 12.23, 16.76 17.5 M16.76 10.5 C20.3 12.57, 17.85 13.38, 16.76 17.5 M16.76 17.5 C15.59 18.69, 14.01 19.82, 12.5 23.17 M16.76 17.5 C15.22 19.85, 13.09 21.86, 12.5 23.17 M12.5 23.17 C9.19 27.14, 9.41 24.85, 7.5 23.17 M12.5 23.17 C10.97 28.62, 10.51 26.3, 7.5 23.17 M7.5 23.17 C5.72 21.14, 5.26 20.22, 2.5 17.5 M7.5 23.17 C6.53 21.6, 4.99 20.06, 2.5 17.5 M2.5 17.5 C-0.19 12.34, 0.73 12.53, 2.5 10.5 M2.5 17.5 C-2.23 12.93, 0.47 12.79, 2.5 10.5 M2.5 10.5 C3.54 9.03, 5.57 5.76, 7.5 3.5 M2.5 10.5 C3.98 7.78, 6.33 5.45, 7.5 3.5 M7.5 3.5 C10.61 -1.91, 11.48 -1.95, 12.5 3.5 M7.5 3.5 C9.92 -0.47, 11.61 2.13, 12.5 3.5" stroke="#1e1e1e" stroke-width="1" fill="none"></path></g><g transform="translate(620.160432713426 88.07263014570657) rotate(0 27.59996795654297 12.5)"><text x="0" y="0" font-family="Virgil, Segoe UI Emoji" font-size="20px" fill="#1971c2" text-anchor="start" style="white-space: pre;" direction="ltr" dominant-baseline="text-before-edge">polling</text></g><g transform="translate(332.70871915141424 188.35038588301126) rotate(0 42.809959411621094 12.5)"><text x="0" y="0" font-family="Virgil, Segoe UI Emoji" font-size="20px" fill="#1971c2" text-anchor="start" style="white-space: pre;" direction="ltr" dominant-baseline="text-before-edge">no polling</text></g></svg>