<svg version="1.1" xmlns="http://www.w3.org/2000/svg" viewBox="0 0 631.1111145019531 452.59259033203125" width="631.1111145019531" height="452.59259033203125">
  <!-- svg-source:excalidraw -->
  
  <defs>
    <style class="style-fonts">
      @font-face {
        font-family: "Virgil";
        src: url("https://excalidraw.com/Virgil.woff2");
      }
      @font-face {
        font-family: "Cascadia";
        src: url("https://excalidraw.com/Cascadia.woff2");
      }
    </style>
    
  </defs>
  <rect x="0" y="0" width="631.1111145019531" height="452.59259033203125" fill="#ffffff"></rect><g stroke-linecap="round" transform="translate(190 10) rotate(0 215.55555725097656 216.29629516601562)"><path d="M32 0 M32 0 C174.26 0.24, 316.94 -1.33, 399.11 0 M32 0 C177.46 1.51, 322.74 1.96, 399.11 0 M399.11 0 C420.53 -0.78, 429.16 12.38, 431.11 32 M399.11 0 C420.29 -1.52, 430.78 9.95, 431.11 32 M431.11 32 C431.2 165.89, 430.4 301.27, 431.11 400.59 M431.11 32 C431.09 145.35, 430.79 259.33, 431.11 400.59 M431.11 400.59 C429.94 422.16, 420.42 433.5, 399.11 432.59 M431.11 400.59 C432.37 421.49, 419.43 431.27, 399.11 432.59 M399.11 432.59 C285.95 431.64, 175.97 431.29, 32 432.59 M399.11 432.59 C325.7 434.25, 251.47 433.89, 32 432.59 M32 432.59 C9.12 431.66, -0.16 422.64, 0 400.59 M32 432.59 C12.57 430.64, 0.89 423.44, 0 400.59 M0 400.59 C0.55 276.59, 0.67 151.28, 0 32 M0 400.59 C-0.53 301.54, -0.6 201.83, 0 32 M0 32 C1.1 11.75, 9.48 1.7, 32 0 M0 32 C0.92 11.12, 9.62 1.73, 32 0" stroke="#1e1e1e" stroke-width="1" fill="none"></path></g><g stroke-linecap="round"><g transform="translate(30.740753173828125 199.62960815429688) rotate(0 19.727423400050043 56.52962023773231)"><path d="M0.48 -0.93 C6.98 17.96, 33.4 93.41, 40.18 112.5 M-0.73 1.2 C5.46 20.36, 32.05 95.56, 38.94 113.99" stroke="#1e1e1e" stroke-width="1" fill="none"></path></g><g transform="translate(30.740753173828125 199.62960815429688) rotate(0 19.727423400050043 56.52962023773231)"><path d="M18.16 90.03 C27.04 100.77, 36.51 107.52, 39.71 115.3 M18.75 91.47 C25.17 98.85, 32.23 106.83, 38.04 113.68" stroke="#1e1e1e" stroke-width="1" fill="none"></path></g><g transform="translate(30.740753173828125 199.62960815429688) rotate(0 19.727423400050043 56.52962023773231)"><path d="M37.46 83.05 C38.61 96.65, 40.39 106.18, 39.71 115.3 M38.05 84.49 C37.89 94.08, 38.42 104.42, 38.04 113.68" stroke="#1e1e1e" stroke-width="1" fill="none"></path></g></g><mask></mask><g stroke-linecap="round" transform="translate(61.851837158203125 334.44439697265625) rotate(0 35.18519592285156 25.925918579101562)"><path d="M12.96 0 M12.96 0 C26.16 1.78, 37.53 -1.86, 57.41 0 M12.96 0 C25.61 -0.93, 38.79 -0.36, 57.41 0 M57.41 0 C65.36 -0.58, 68.44 3.69, 70.37 12.96 M57.41 0 C67.99 1.52, 71.27 4.9, 70.37 12.96 M70.37 12.96 C70.39 21.91, 69.8 30.81, 70.37 38.89 M70.37 12.96 C70.93 23.69, 71.05 32.97, 70.37 38.89 M70.37 38.89 C68.62 46.89, 67.85 53.79, 57.41 51.85 M70.37 38.89 C68.73 45.5, 65.07 50.75, 57.41 51.85 M57.41 51.85 C47.96 50.21, 40.71 51.61, 12.96 51.85 M57.41 51.85 C45.24 51.79, 32.11 51.22, 12.96 51.85 M12.96 51.85 C5.26 49.97, 0.01 46.2, 0 38.89 M12.96 51.85 C5.75 51.76, 1.11 46.89, 0 38.89 M0 38.89 C1.75 31.3, 1.92 24.55, 0 12.96 M0 38.89 C-0.45 33.72, -0.57 27.12, 0 12.96 M0 12.96 C-0.29 2.84, 5.3 1.72, 12.96 0 M0 12.96 C-0.19 5.42, 2.26 1.99, 12.96 0" stroke="#1e1e1e" stroke-width="1" fill="none"></path></g><g transform="translate(78.70704650878906 347.8703155517578) rotate(0 18.329986572265625 12.5)"><text x="18.329986572265625" y="0" font-family="Virgil, Segoe UI Emoji" font-size="20px" fill="#1e1e1e" text-anchor="middle" style="white-space: pre;" direction="ltr" dominant-baseline="text-before-edge">NIC</text></g><g stroke-linecap="round"><g transform="translate(132.22222900390625 360.3703308105469) rotate(0 28.752669220659897 0.2914801012807544)"><path d="M0.15 0.49 C10.03 0.57, 49.07 1.26, 58.73 1.3 M-1.22 -0.29 C8.49 -0.64, 47.23 -0.92, 57.5 -0.53" stroke="#1e1e1e" stroke-width="1" fill="none"></path></g><g transform="translate(132.22222900390625 360.3703308105469) rotate(0 28.752669220659897 0.2914801012807544)"><path d="M30.36 8.38 C37.61 4.82, 43.9 2.85, 58.74 -0.6 M29.49 8.82 C40.18 5.46, 50 1.94, 56.75 -0.82" stroke="#1e1e1e" stroke-width="1" fill="none"></path></g><g transform="translate(132.22222900390625 360.3703308105469) rotate(0 28.752669220659897 0.2914801012807544)"><path d="M30.61 -11.88 C37.93 -10.22, 44.15 -6.97, 58.74 -0.6 M29.73 -11.44 C40.28 -7.75, 50.02 -4.2, 56.75 -0.82" stroke="#1e1e1e" stroke-width="1" fill="none"></path></g></g><mask></mask><g stroke-linecap="round" transform="translate(223.33331298828125 352.2221984863281) rotate(0 186.6666717529297 20.370361328125)"><path d="M10.19 0 M10.19 0 C108.08 -0.06, 207.45 -1.36, 363.15 0 M10.19 0 C82.25 1.08, 155.15 1.58, 363.15 0 M363.15 0 C370.96 0.46, 372 3.58, 373.33 10.19 M363.15 0 C368.55 -2.07, 373.09 3.74, 373.33 10.19 M373.33 10.19 C374.18 15.66, 372.8 21.39, 373.33 30.56 M373.33 10.19 C373.66 14.36, 373.65 17.69, 373.33 30.56 M373.33 30.56 C371.77 36.04, 368.35 42.66, 363.15 40.74 M373.33 30.56 C372.16 38.3, 368.32 39.23, 363.15 40.74 M363.15 40.74 C253.88 41.24, 146.25 40.97, 10.19 40.74 M363.15 40.74 C226.39 42.58, 90.28 43.22, 10.19 40.74 M10.19 40.74 C4.51 40.38, 0.22 36.77, 0 30.56 M10.19 40.74 C3.37 40.98, 0.84 39.49, 0 30.56 M0 30.56 C1.82 24.06, -1.82 21.46, 0 10.19 M0 30.56 C-0.01 24.68, 0.7 19.8, 0 10.19 M0 10.19 C-0.09 2.91, 1.42 1.14, 10.19 0 M0 10.19 C0.83 1.14, 1.17 -0.1, 10.19 0" stroke="#1e1e1e" stroke-width="1" fill="none"></path></g><g transform="translate(357.3800277709961 360.0925598144531) rotate(0 52.619956970214844 12.5)"><text x="52.619956970214844" y="0" font-family="Virgil, Segoe UI Emoji" font-size="20px" fill="#1e1e1e" text-anchor="middle" style="white-space: pre;" direction="ltr" dominant-baseline="text-before-edge">NIC Driver</text></g><g stroke-linecap="round" transform="translate(301.1111145019531 292.2221374511719) rotate(0 51.851837158203125 17.5)"><path d="M8.75 0 M8.75 0 C24.12 -2.25, 43.32 1.08, 94.95 0 M8.75 0 C38.82 -1.17, 66.55 -0.65, 94.95 0 M94.95 0 C101.54 -1.22, 103.49 1.84, 103.7 8.75 M94.95 0 C102.83 -1.52, 103.65 4.48, 103.7 8.75 M103.7 8.75 C103.93 14, 104.37 16.77, 103.7 26.25 M103.7 8.75 C103.55 13.77, 103.73 19.27, 103.7 26.25 M103.7 26.25 C105.3 31.35, 99.7 33.67, 94.95 35 M103.7 26.25 C102.93 31.91, 99.73 34.54, 94.95 35 M94.95 35 C63.45 35.45, 29.72 32.45, 8.75 35 M94.95 35 C68.11 33.62, 39.56 33.95, 8.75 35 M8.75 35 C2.64 34.38, -1.94 32.87, 0 26.25 M8.75 35 C2.79 35.8, 0.34 30.51, 0 26.25 M0 26.25 C-0.22 23.32, 1.2 16.84, 0 8.75 M0 26.25 C0.48 19.54, 0.76 14.05, 0 8.75 M0 8.75 C0.39 2.39, 3.9 1.39, 8.75 0 M0 8.75 C1.92 3.16, 0.81 1.53, 8.75 0" stroke="#1e1e1e" stroke-width="1" fill="none"></path></g><g transform="translate(340.90296173095703 297.2221374511719) rotate(0 12.059989929199219 12.5)"><text x="12.059989929199219" y="0" font-family="Virgil, Segoe UI Emoji" font-size="20px" fill="#1e1e1e" text-anchor="middle" style="white-space: pre;" direction="ltr" dominant-baseline="text-before-edge">IP</text></g><g stroke-linecap="round" transform="translate(416.51849365234375 290.7962646484375) rotate(0 51.851837158203125 17.5)"><path d="M8.75 0 M8.75 0 C27.21 -2.27, 44.35 0.12, 94.95 0 M8.75 0 C27.17 0.23, 47.25 0.32, 94.95 0 M94.95 0 C98.84 0.78, 103.6 3.61, 103.7 8.75 M94.95 0 C101.13 -1.57, 102.58 4.07, 103.7 8.75 M103.7 8.75 C104.98 12.33, 104.73 18.24, 103.7 26.25 M103.7 8.75 C104.69 14.32, 103.99 18.91, 103.7 26.25 M103.7 26.25 C104.69 33.48, 102.46 35.21, 94.95 35 M103.7 26.25 C101.59 33.61, 98.82 35.71, 94.95 35 M94.95 35 C76.1 36.56, 57.67 36.73, 8.75 35 M94.95 35 C76.31 35.78, 58.2 35.54, 8.75 35 M8.75 35 C1.76 35.34, 1.57 30.84, 0 26.25 M8.75 35 C2.08 34.6, 1.95 31.55, 0 26.25 M0 26.25 C0.42 22.59, 0.99 19.11, 0 8.75 M0 26.25 C0.68 22.07, 0.48 17.12, 0 8.75 M0 8.75 C0.62 4.65, 2.55 0.66, 8.75 0 M0 8.75 C0.79 2, 2.02 -0.34, 8.75 0" stroke="#1e1e1e" stroke-width="1" fill="none"></path></g><g transform="translate(448.4203414916992 295.7962646484375) rotate(0 19.949989318847656 12.5)"><text x="19.949989318847656" y="0" font-family="Virgil, Segoe UI Emoji" font-size="20px" fill="#1e1e1e" text-anchor="middle" style="white-space: pre;" direction="ltr" dominant-baseline="text-before-edge">ARP</text></g><g stroke-linecap="round" transform="translate(299.62969970703125 235.64816284179688) rotate(0 51.851837158203125 17.5)"><path d="M8.75 0 M8.75 0 C41.93 1.02, 75.32 -1.14, 94.95 0 M8.75 0 C37.53 -0.11, 65.44 -0.41, 94.95 0 M94.95 0 C102.52 -0.37, 104.36 3.6, 103.7 8.75 M94.95 0 C99.87 -0.9, 103.36 2.85, 103.7 8.75 M103.7 8.75 C104.76 13.67, 104.23 21.23, 103.7 26.25 M103.7 8.75 C102.89 11.8, 104.09 17.24, 103.7 26.25 M103.7 26.25 C104.19 33.58, 99.52 33.35, 94.95 35 M103.7 26.25 C105.74 31.01, 101.87 34.23, 94.95 35 M94.95 35 C72.23 36.21, 49.79 36.85, 8.75 35 M94.95 35 C64.49 36.67, 34.79 36.67, 8.75 35 M8.75 35 C1.81 33.82, 0.88 33.62, 0 26.25 M8.75 35 C5.1 35.09, -0.55 30.83, 0 26.25 M0 26.25 C1.81 19.38, 0.79 13.66, 0 8.75 M0 26.25 C0.73 21.27, 0.23 15.34, 0 8.75 M0 8.75 C1.23 2.63, 1.54 1.31, 8.75 0 M0 8.75 C1.69 0.85, 3.73 -0.66, 8.75 0" stroke="#1e1e1e" stroke-width="1" fill="none"></path></g><g transform="translate(329.9315490722656 240.64816284179688) rotate(0 21.54998779296875 12.5)"><text x="21.54998779296875" y="0" font-family="Virgil, Segoe UI Emoji" font-size="20px" fill="#1e1e1e" text-anchor="middle" style="white-space: pre;" direction="ltr" dominant-baseline="text-before-edge">UDP</text></g><g stroke-linecap="round" transform="translate(415.370361328125 234.27774047851562) rotate(0 51.851837158203125 17.5)"><path d="M8.75 0 M8.75 0 C33.85 -1.04, 54.53 0.2, 94.95 0 M8.75 0 C30.18 -0.81, 53.44 -0.23, 94.95 0 M94.95 0 C100.1 -1.76, 104.91 4.63, 103.7 8.75 M94.95 0 C101.86 -2.01, 102.42 4.49, 103.7 8.75 M103.7 8.75 C104.36 12.11, 105.09 17.97, 103.7 26.25 M103.7 8.75 C104.65 14.49, 104.48 20.92, 103.7 26.25 M103.7 26.25 C101.99 33.85, 100.4 33.62, 94.95 35 M103.7 26.25 C104.07 32.58, 100.24 33.26, 94.95 35 M94.95 35 C73.61 35.28, 53.56 34.39, 8.75 35 M94.95 35 C65.66 35.12, 36.8 34.6, 8.75 35 M8.75 35 C1.03 36.28, -0.92 31.24, 0 26.25 M8.75 35 C1.14 34.12, 2.24 31.78, 0 26.25 M0 26.25 C0.09 22.67, -0.54 16.71, 0 8.75 M0 26.25 C-0.2 20.33, 0.55 14.11, 0 8.75 M0 8.75 C0.86 1.36, 4.84 -0.97, 8.75 0 M0 8.75 C2.14 2.28, 1.52 0.07, 8.75 0" stroke="#1e1e1e" stroke-width="1" fill="none"></path></g><g transform="translate(446.13221740722656 239.27774047851562) rotate(0 21.089981079101562 12.5)"><text x="21.089981079101562" y="0" font-family="Virgil, Segoe UI Emoji" font-size="20px" fill="#1e1e1e" text-anchor="middle" style="white-space: pre;" direction="ltr" dominant-baseline="text-before-edge">TCP</text></g><g stroke-linecap="round" transform="translate(300.70379638671875 119.94439697265625) rotate(0 107.5 48)"><path d="M24 0 M24 0 C75.08 -0.5, 120.9 0.56, 191 0 M24 0 C65.42 0.49, 107.14 0.7, 191 0 M191 0 C208.2 0.19, 213.97 9.35, 215 24 M191 0 C208.09 1.55, 216.38 7.52, 215 24 M215 24 C214.86 37.22, 214.23 47.66, 215 72 M215 24 C215.74 34.63, 215.31 44.82, 215 72 M215 72 C213.62 89.98, 207.21 95.6, 191 96 M215 72 C216.45 87.34, 206.11 95.96, 191 96 M191 96 C142.6 96.09, 90.64 96.26, 24 96 M191 96 C155.15 96.11, 118.33 97.21, 24 96 M24 96 C7.32 94.73, -1.67 86.12, 0 72 M24 96 C8.52 95.45, -1.92 90.06, 0 72 M0 72 C2.07 61.4, 1.4 49.03, 0 24 M0 72 C0.25 59.16, 0.97 44.16, 0 24 M0 24 C-0.99 6.16, 8.94 1.02, 24 0 M0 24 C2.21 9.42, 7.59 1.35, 24 0" stroke="#1e1e1e" stroke-width="1" fill="none"></path></g><g transform="translate(376.2238311767578 155.44439697265625) rotate(0 31.979965209960938 12.5)"><text x="31.979965209960938" y="0" font-family="Virgil, Segoe UI Emoji" font-size="20px" fill="#1e1e1e" text-anchor="middle" style="white-space: pre;" direction="ltr" dominant-baseline="text-before-edge">socket</text></g><g stroke-linecap="round" transform="translate(347.7778625488281 178.88888549804688) rotate(0 59 17.5)"><path d="M8.75 0 M8.75 0 C47.29 1.41, 84 -0.33, 109.25 0 M8.75 0 C33.12 1.45, 55.88 1.21, 109.25 0 M109.25 0 C116.09 2, 117.51 3.52, 118 8.75 M109.25 0 C116.22 -0.33, 119.6 4.2, 118 8.75 M118 8.75 C117.42 15.6, 118.96 23.42, 118 26.25 M118 8.75 C118.77 12.01, 118.39 15.69, 118 26.25 M118 26.25 C118.04 30.23, 116.86 35.98, 109.25 35 M118 26.25 C119.12 32.72, 113.07 36.69, 109.25 35 M109.25 35 C77.29 34.2, 41.37 35, 8.75 35 M109.25 35 C75.04 35.23, 40.52 34.65, 8.75 35 M8.75 35 C4.01 34.69, 1.18 30.68, 0 26.25 M8.75 35 C5.21 36.72, -1.5 30.96, 0 26.25 M0 26.25 C-0.52 22.35, -1.23 16.38, 0 8.75 M0 26.25 C0.25 21.1, -0.63 15.47, 0 8.75 M0 8.75 C-1.68 4.18, 1.44 -1.32, 8.75 0 M0 8.75 C1.73 2.27, 3.77 1.59, 8.75 0" stroke="#1e1e1e" stroke-width="1" fill="none"></path></g><g transform="translate(376.5279006958008 183.88888549804688) rotate(0 30.249961853027344 12.5)"><text x="30.249961853027344" y="0" font-family="Virgil, Segoe UI Emoji" font-size="20px" fill="#1e1e1e" text-anchor="middle" style="white-space: pre;" direction="ltr" dominant-baseline="text-before-edge">buffer</text></g><g stroke-linecap="round" transform="translate(269.2592468261719 28.51849365234375) rotate(0 138.14816284179688 37.40740966796875)"><path d="M18.7 0 M18.7 0 C98.03 -0.49, 179.73 -0.87, 257.59 0 M18.7 0 C73 2.06, 127.53 1.02, 257.59 0 M257.59 0 C271.73 1.06, 274.79 4.91, 276.3 18.7 M257.59 0 C267.87 1.83, 274.49 4.67, 276.3 18.7 M276.3 18.7 C275.54 31.8, 277.86 43.82, 276.3 56.11 M276.3 18.7 C276.78 28.5, 275.94 36.08, 276.3 56.11 M276.3 56.11 C275.48 69.86, 269.3 72.91, 257.59 74.81 M276.3 56.11 C277.48 70.45, 268.76 76.99, 257.59 74.81 M257.59 74.81 C182.59 75.98, 109.87 75.41, 18.7 74.81 M257.59 74.81 C164.73 75.17, 72.4 75.01, 18.7 74.81 M18.7 74.81 C6.98 74.93, 0.12 68.11, 0 56.11 M18.7 74.81 C7.27 75.08, -0.52 69.28, 0 56.11 M0 56.11 C0.45 43.02, -0.42 29.25, 0 18.7 M0 56.11 C0.03 42.82, -0.36 31.17, 0 18.7 M0 18.7 C0.65 6.48, 6.98 -0.37, 18.7 0 M0 18.7 C0.65 7.47, 4.52 0.63, 18.7 0" stroke="#1e1e1e" stroke-width="1" fill="none"></path></g><g transform="translate(364.0740661621094 56.66664123535156) rotate(0 50.979949951171875 12.5)"><text x="0" y="0" font-family="Virgil, Segoe UI Emoji" font-size="20px" fill="#1e1e1e" text-anchor="start" style="white-space: pre;" direction="ltr" dominant-baseline="text-before-edge">Application</text></g><g transform="translate(10 173.70364379882812) rotate(0 18.989990234375 12.5)"><text x="0" y="0" font-family="Virgil, Segoe UI Emoji" font-size="20px" fill="#1e1e1e" text-anchor="start" style="white-space: pre;" direction="ltr" dominant-baseline="text-before-edge">LAN</text></g></svg>