<svg version="1.1" xmlns="http://www.w3.org/2000/svg" viewBox="0 0 941.9582290649414 691.6295394897461" width="941.9582290649414" height="691.6295394897461">
  <!-- svg-source:excalidraw -->
  
  <defs>
    <style class="style-fonts">
      @font-face {
        font-family: "Virgil";
        src: url("https://excalidraw.com/Virgil.woff2");
      }
      @font-face {
        font-family: "Cascadia";
        src: url("https://excalidraw.com/Cascadia.woff2");
      }
    </style>
    
  </defs>
  <rect x="0" y="0" width="941.9582290649414" height="691.6295394897461" fill="#ffffff"></rect><g stroke-linecap="round" transform="translate(335.1434097290039 571.6988300053403) rotate(0 188.51852416992188 34.444435119628906)"><path d="M17.22 0 M17.22 0 C121.84 0.01, 228.22 -0.94, 359.81 0 M17.22 0 C139.08 1.61, 260.02 2.12, 359.81 0 M359.81 0 C369.66 0.7, 376 6.96, 377.04 17.22 M359.81 0 C372.91 -0.14, 376.35 5.7, 377.04 17.22 M377.04 17.22 C378.6 25.05, 378.92 33.8, 377.04 51.67 M377.04 17.22 C376.55 27.82, 377.36 37.78, 377.04 51.67 M377.04 51.67 C377.33 64.08, 370.11 68.46, 359.81 68.89 M377.04 51.67 C376.51 63.36, 369.48 67.55, 359.81 68.89 M359.81 68.89 C244.36 68.07, 126.49 70.3, 17.22 68.89 M359.81 68.89 C239.29 69.84, 117.33 69.7, 17.22 68.89 M17.22 68.89 C4.78 69.54, -1.47 64.2, 0 51.67 M17.22 68.89 C6.63 67.46, -1.06 61.35, 0 51.67 M0 51.67 C-1.51 42.14, 0.84 33.86, 0 17.22 M0 51.67 C0.87 41.8, -0.9 32.11, 0 17.22 M0 17.22 C-1.52 7.5, 6.72 1.8, 17.22 0 M0 17.22 C-0.03 7.97, 4.99 1.41, 17.22 0" stroke="#1e1e1e" stroke-width="1" fill="none"></path></g><g transform="translate(172.92105865478516 592.4396289555356) rotate(0 72.62992858886719 12.5)"><text x="0" y="0" font-family="Virgil, Segoe UI Emoji" font-size="20px" fill="#1e1e1e" text-anchor="start" style="white-space: pre;" direction="ltr" dominant-baseline="text-before-edge">directory entry</text></g><g stroke-linecap="round"><g transform="translate(501.0691909790039 573.1803058354184) rotate(0 0.7641013058426012 33.99743636822328)"><path d="M-0.46 0.63 C-0.67 11.95, -0.25 57.15, -0.18 68.08 M1.5 -0.09 C1.57 10.87, 1.9 55.15, 2.05 66.32" stroke="#1e1e1e" stroke-width="1" fill="none"></path></g></g><mask></mask><g transform="translate(373.62479400634766 581.9580768315121) rotate(0 45.239959716796875 25)"><text x="0" y="0" font-family="Virgil, Segoe UI Emoji" font-size="20px" fill="#1e1e1e" text-anchor="start" style="white-space: pre;" direction="ltr" dominant-baseline="text-before-edge">inode num</text><text x="0" y="25" font-family="Virgil, Segoe UI Emoji" font-size="20px" fill="#1e1e1e" text-anchor="start" style="white-space: pre;" direction="ltr" dominant-baseline="text-before-edge">(2 byte)</text></g><g transform="translate(567.7358779907227 583.5507281986996) rotate(0 45.50995635986328 25)"><text x="0" y="0" font-family="Virgil, Segoe UI Emoji" font-size="20px" fill="#1e1e1e" text-anchor="start" style="white-space: pre;" direction="ltr" dominant-baseline="text-before-edge">filename</text><text x="0" y="25" font-family="Virgil, Segoe UI Emoji" font-size="20px" fill="#1e1e1e" text-anchor="start" style="white-space: pre;" direction="ltr" dominant-baseline="text-before-edge">(4 byted)</text></g><g stroke-linecap="round" transform="translate(256.62479400634766 49.07408905029297) rotate(0 134.44451904296875 203.33330535888672)"><path d="M32 0 M32 0 C97.93 0.16, 162.93 -0.35, 236.89 0 M32 0 C99.13 -0.48, 167.83 -0.97, 236.89 0 M236.89 0 C256.93 -1.31, 268.99 12.46, 268.89 32 M236.89 0 C257.54 -1.55, 268.97 10.19, 268.89 32 M268.89 32 C267.49 114.08, 268.52 196.99, 268.89 374.67 M268.89 32 C268.83 127.42, 268.42 221.81, 268.89 374.67 M268.89 374.67 C267.84 396.33, 258.1 404.81, 236.89 406.67 M268.89 374.67 C270.74 394.69, 257.17 408.78, 236.89 406.67 M236.89 406.67 C175.6 406.13, 116.01 407.34, 32 406.67 M236.89 406.67 C187.96 406.57, 138.91 406.13, 32 406.67 M32 406.67 C9.88 405.43, 0 395.68, 0 374.67 M32 406.67 C8.62 408.69, 0.17 394.35, 0 374.67 M0 374.67 C-0.99 301.87, -1.07 230.59, 0 32 M0 374.67 C0.85 271.3, 1.44 168.05, 0 32 M0 32 C0.61 8.91, 11.23 1.95, 32 0 M0 32 C0.33 12.08, 9.73 -1.12, 32 0" stroke="#1e1e1e" stroke-width="1" fill="none"></path></g><g stroke-linecap="round" transform="translate(266.9952163696289 49.999977111816406) rotate(0 125.55560302734375 29.259254455566406)"><path d="M14.63 0 M14.63 0 C67.93 1, 119.88 2.58, 236.48 0 M14.63 0 C82.15 1.4, 151.09 1.55, 236.48 0 M236.48 0 C247.76 1.7, 252.26 5.93, 251.11 14.63 M236.48 0 C248.25 1.83, 251.62 3.07, 251.11 14.63 M251.11 14.63 C251.86 19.71, 250.33 29.2, 251.11 43.89 M251.11 14.63 C251.99 21.56, 251.01 26.71, 251.11 43.89 M251.11 43.89 C250.77 52.27, 246.31 56.68, 236.48 58.52 M251.11 43.89 C250.22 54.89, 246.78 58.73, 236.48 58.52 M236.48 58.52 C182.43 58.68, 131.89 60.09, 14.63 58.52 M236.48 58.52 C187.08 57.02, 137.01 56.82, 14.63 58.52 M14.63 58.52 C4.94 60.05, 0.87 53.9, 0 43.89 M14.63 58.52 C6.03 58.95, -0.82 51.56, 0 43.89 M0 43.89 C0.37 34.28, 0.15 28.55, 0 14.63 M0 43.89 C0.26 35.79, 0.54 28.2, 0 14.63 M0 14.63 C-1.61 5.38, 6.6 1.12, 14.63 0 M0 14.63 C-1.3 3.58, 4.07 1.63, 14.63 0" stroke="#1e1e1e" stroke-width="1" fill="none"></path></g><g stroke-linecap="round" transform="translate(264.5507583618164 110.99995422363281) rotate(0 125.55560302734375 29.259254455566406)"><path d="M14.63 0 M14.63 0 C61.86 -1.06, 110.98 0.41, 236.48 0 M14.63 0 C67.17 0.53, 119.84 0.26, 236.48 0 M236.48 0 C247.8 -1.92, 252.37 4.06, 251.11 14.63 M236.48 0 C244.62 1.11, 249.6 3.05, 251.11 14.63 M251.11 14.63 C249.68 26.42, 251.16 35.86, 251.11 43.89 M251.11 14.63 C251.9 26.29, 251.62 35.77, 251.11 43.89 M251.11 43.89 C251.04 53.21, 246.9 59.09, 236.48 58.52 M251.11 43.89 C252.23 55.44, 244.62 57.23, 236.48 58.52 M236.48 58.52 C190.79 57.87, 145.63 59.11, 14.63 58.52 M236.48 58.52 C182.35 57.82, 127.68 59.24, 14.63 58.52 M14.63 58.52 C5.75 58.96, -1.18 53.86, 0 43.89 M14.63 58.52 C3.97 57.38, 1.91 53.96, 0 43.89 M0 43.89 C-1.29 37.63, 0.02 32.37, 0 14.63 M0 43.89 C-0.4 37.63, -0.25 30.05, 0 14.63 M0 14.63 C-0.93 3.48, 5.16 -1.65, 14.63 0 M0 14.63 C-1.29 6.9, 4.23 -0.87, 14.63 0" stroke="#1e1e1e" stroke-width="1" fill="none"></path></g><g transform="translate(371.07637786865234 127.75920867919922) rotate(0 19.029983520507812 12.5)"><text x="19.029983520507812" y="0" font-family="Virgil, Segoe UI Emoji" font-size="20px" fill="#1e1e1e" text-anchor="middle" style="white-space: pre;" direction="ltr" dominant-baseline="text-before-edge">nlink</text></g><g stroke-linecap="round" transform="translate(265.69876861572266 238.92593383789062) rotate(0 125.55560302734375 29.259254455566406)"><path d="M14.63 0 M14.63 0 C80.68 -2.98, 145.18 -2.47, 236.48 0 M14.63 0 C83.89 -0.14, 153.13 -0.27, 236.48 0 M236.48 0 C245.42 -1.4, 252.07 3.56, 251.11 14.63 M236.48 0 C244.41 2.1, 252.59 2.75, 251.11 14.63 M251.11 14.63 C249.5 22.59, 251.11 26.75, 251.11 43.89 M251.11 14.63 C250.34 25.71, 251.07 37.2, 251.11 43.89 M251.11 43.89 C251.68 54.61, 247.8 57.12, 236.48 58.52 M251.11 43.89 C249.83 51.39, 247.44 57.61, 236.48 58.52 M236.48 58.52 C181.77 56.36, 125.93 57.34, 14.63 58.52 M236.48 58.52 C155.93 60.23, 74.27 59.34, 14.63 58.52 M14.63 58.52 C5.1 57.73, -0.99 55.3, 0 43.89 M14.63 58.52 C5.2 56.25, -1 52.69, 0 43.89 M0 43.89 C0.32 36.06, 1.06 30.68, 0 14.63 M0 43.89 C0.16 35.39, -0.95 27.96, 0 14.63 M0 14.63 C-1.65 3.75, 6.63 -0.56, 14.63 0 M0 14.63 C-0.87 3.07, 2.94 0.98, 14.63 0" stroke="#1e1e1e" stroke-width="1" fill="none"></path></g><g transform="translate(353.264404296875 255.68518829345703) rotate(0 37.989967346191406 12.5)"><text x="37.989967346191406" y="0" font-family="Virgil, Segoe UI Emoji" font-size="20px" fill="#1e1e1e" text-anchor="middle" style="white-space: pre;" direction="ltr" dominant-baseline="text-before-edge">block#0</text></g><g stroke-linecap="round" transform="translate(263.9581069946289 173.18521118164062) rotate(0 125.55560302734375 29.259254455566406)"><path d="M14.63 0 M14.63 0 C91.08 0.16, 168.46 0.65, 236.48 0 M14.63 0 C71.5 1.48, 126.67 2.25, 236.48 0 M236.48 0 C244.92 -1.59, 252.93 6.17, 251.11 14.63 M236.48 0 C244.11 -1.86, 251.51 4.71, 251.11 14.63 M251.11 14.63 C250.64 22.58, 252.57 28.35, 251.11 43.89 M251.11 14.63 C251.43 20.9, 251.59 27.39, 251.11 43.89 M251.11 43.89 C249.71 52.53, 244.28 59.57, 236.48 58.52 M251.11 43.89 C250.21 52.55, 246.37 57.03, 236.48 58.52 M236.48 58.52 C152.75 61.39, 67.35 61.45, 14.63 58.52 M236.48 58.52 C152.73 59.04, 69.66 58.52, 14.63 58.52 M14.63 58.52 C6.54 58.8, -1.97 52.77, 0 43.89 M14.63 58.52 C3.93 56.89, -0.43 53.52, 0 43.89 M0 43.89 C0.36 34.21, 1.9 25.34, 0 14.63 M0 43.89 C0.28 33.09, -0.43 24.82, 0 14.63 M0 14.63 C-0.56 4.12, 3.31 -1.69, 14.63 0 M0 14.63 C0.98 6.94, 3.64 0.27, 14.63 0" stroke="#1e1e1e" stroke-width="1" fill="none"></path></g><g transform="translate(370.7037353515625 189.94446563720703) rotate(0 18.809974670410156 12.5)"><text x="18.809974670410156" y="0" font-family="Virgil, Segoe UI Emoji" font-size="20px" fill="#1e1e1e" text-anchor="middle" style="white-space: pre;" direction="ltr" dominant-baseline="text-before-edge">size</text></g><g transform="translate(359.58780670166016 67.07404327392578) rotate(0 20.739974975585938 12.5)"><text x="0" y="0" font-family="Virgil, Segoe UI Emoji" font-size="20px" fill="#1e1e1e" text-anchor="start" style="white-space: pre;" direction="ltr" dominant-baseline="text-before-edge">type</text></g><g stroke-linecap="round" transform="translate(268.3284683227539 328.9259033203125) rotate(0 125.55560302734375 29.259254455566406)"><path d="M14.63 0 M14.63 0 C83.02 1.1, 150.67 -2.15, 236.48 0 M14.63 0 C76.08 -0.29, 139.53 -0.12, 236.48 0 M236.48 0 C246.8 -1.57, 250.48 6.79, 251.11 14.63 M236.48 0 C245.2 -0.08, 249.04 5.95, 251.11 14.63 M251.11 14.63 C250.61 23.42, 253.3 35.63, 251.11 43.89 M251.11 14.63 C250.77 25.36, 251.24 34.73, 251.11 43.89 M251.11 43.89 C252.81 52.83, 247.94 56.98, 236.48 58.52 M251.11 43.89 C251.5 51.42, 246.43 58.87, 236.48 58.52 M236.48 58.52 C159.55 59.78, 80.61 57.25, 14.63 58.52 M236.48 58.52 C186.41 60.22, 134.94 60.64, 14.63 58.52 M14.63 58.52 C4.7 59.8, -0.88 51.69, 0 43.89 M14.63 58.52 C2.81 56.39, 1.11 53.1, 0 43.89 M0 43.89 C-0.49 36.07, -1.01 30.56, 0 14.63 M0 43.89 C-0.68 34.44, 0.5 26.47, 0 14.63 M0 14.63 C0.25 5.09, 3.2 -1.01, 14.63 0 M0 14.63 C-0.15 4.01, 6.36 -1.89, 14.63 0" stroke="#1e1e1e" stroke-width="1" fill="none"></path></g><g transform="translate(357.3541030883789 345.6851577758789) rotate(0 36.52996826171875 12.5)"><text x="36.52996826171875" y="0" font-family="Virgil, Segoe UI Emoji" font-size="20px" fill="#1e1e1e" text-anchor="middle" style="white-space: pre;" direction="ltr" dominant-baseline="text-before-edge">block#11</text></g><g transform="translate(387.7359390258789 301.1110610961914) rotate(90.20532609834903 8.219993591308594 12.5)"><text x="0" y="0" font-family="Virgil, Segoe UI Emoji" font-size="20px" fill="#1e1e1e" text-anchor="start" style="white-space: pre;" direction="ltr" dominant-baseline="text-before-edge">...</text></g><g stroke-linecap="round"><g transform="translate(517.8099746704102 266.01417032495084) rotate(0 130.86201064296128 -1.1485454326283389)"><path d="M-0.71 -0.37 C43.21 -0.4, 218.33 -0.09, 262.43 -0.35 M1.12 -1.62 C44.94 -1.96, 217.5 -2.13, 261.27 -2.02" stroke="#1e1e1e" stroke-width="1" fill="none"></path></g><g transform="translate(517.8099746704102 266.01417032495084) rotate(0 130.86201064296128 -1.1485454326283389)"><path d="M232.45 7.55 C240.43 8.02, 243.71 4.67, 261.31 -0.93 M233.91 8.22 C243.72 4.48, 253.88 -0.44, 261.2 -1.48" stroke="#1e1e1e" stroke-width="1" fill="none"></path></g><g transform="translate(517.8099746704102 266.01417032495084) rotate(0 130.86201064296128 -1.1485454326283389)"><path d="M232.46 -12.98 C240.4 -8.19, 243.68 -7.23, 261.31 -0.93 M233.92 -12.3 C243.76 -8.11, 253.92 -5.1, 261.2 -1.48" stroke="#1e1e1e" stroke-width="1" fill="none"></path></g></g><mask></mask><g stroke-linecap="round" transform="translate(731.4396133422852 201.85184478759766) rotate(0 97.03704833984375 110.74070739746094)"><path d="M32 0 M32 0 C73.18 -1.55, 114.44 -3.01, 162.07 0 M32 0 C59.04 -0.92, 86.34 -1.52, 162.07 0 M162.07 0 C184.29 0.63, 195.68 8.98, 194.07 32 M162.07 0 C181.88 0.46, 193.61 9.79, 194.07 32 M194.07 32 C194.43 71.11, 191.95 113.41, 194.07 189.48 M194.07 32 C194.34 81.28, 194.14 132.48, 194.07 189.48 M194.07 189.48 C194.28 211.76, 184.11 221.71, 162.07 221.48 M194.07 189.48 C192.96 210.36, 181.11 222.69, 162.07 221.48 M162.07 221.48 C113.11 222.36, 68.45 220.28, 32 221.48 M162.07 221.48 C116.74 222.47, 70.33 222.9, 32 221.48 M32 221.48 C9.08 220.52, -0.38 208.83, 0 189.48 M32 221.48 C11.41 223.65, -1.35 208.65, 0 189.48 M0 189.48 C-0.48 144.49, 0.58 95.96, 0 32 M0 189.48 C-1.76 131.57, -1.75 71.69, 0 32 M0 32 C0.52 11.79, 9.12 1.99, 32 0 M0 32 C-0.25 12.57, 12.45 -1.36, 32 0" stroke="#1e1e1e" stroke-width="1" fill="none"></path></g><g transform="translate(798.1063613891602 167.77774810791016) rotate(0 23.139976501464844 12.5)"><text x="0" y="0" font-family="Virgil, Segoe UI Emoji" font-size="20px" fill="#1e1e1e" text-anchor="start" style="white-space: pre;" direction="ltr" dominant-baseline="text-before-edge">block</text></g><g stroke-linecap="round" transform="translate(267.29141998291016 393.59259033203125) rotate(0 125.55560302734375 29.259254455566406)"><path d="M14.63 0 M14.63 0 C90.09 -1.2, 167.28 -0.33, 236.48 0 M14.63 0 C92.42 1.36, 171.7 0.81, 236.48 0 M236.48 0 C244.82 -0.17, 251.17 4.38, 251.11 14.63 M236.48 0 C246.85 -1.21, 251.29 3.35, 251.11 14.63 M251.11 14.63 C250.11 26.13, 253.25 34.7, 251.11 43.89 M251.11 14.63 C250.41 20.14, 250.66 27.12, 251.11 43.89 M251.11 43.89 C253.07 55, 246.53 57.83, 236.48 58.52 M251.11 43.89 C251.51 52.88, 245.46 56.69, 236.48 58.52 M236.48 58.52 C149.79 58.33, 61.4 56.85, 14.63 58.52 M236.48 58.52 C161.45 57.29, 87.38 57.31, 14.63 58.52 M14.63 58.52 C5.1 59.58, 1.78 54.97, 0 43.89 M14.63 58.52 C5.66 57.23, 1.22 51.72, 0 43.89 M0 43.89 C0.65 31.47, 0.14 21.43, 0 14.63 M0 43.89 C0.92 38.45, 0.05 31.2, 0 14.63 M0 14.63 C-1.91 3.69, 6.14 0.65, 14.63 0 M0 14.63 C0.36 5.96, 2.66 1.31, 14.63 0" stroke="#1e1e1e" stroke-width="1" fill="none"></path></g><g transform="translate(351.9070587158203 410.35184478759766) rotate(0 40.939964294433594 12.5)"><text x="40.939964294433594" y="0" font-family="Virgil, Segoe UI Emoji" font-size="20px" fill="#1e1e1e" text-anchor="middle" style="white-space: pre;" direction="ltr" dominant-baseline="text-before-edge">block#12</text></g><g stroke-linecap="round"><g transform="translate(519.5877456665039 433.7036819458008) rotate(0 105.73301961459218 31.68936431966722)"><path d="M-1.14 -0.71 C34.29 10.11, 177.08 53.26, 212.61 64.09 M0.46 1.53 C35.81 12.05, 176.91 52.06, 212.06 62.17" stroke="#1e1e1e" stroke-width="1" fill="none"></path></g><g transform="translate(519.5877456665039 433.7036819458008) rotate(0 105.73301961459218 31.68936431966722)"><path d="M180.95 65.56 C191.71 64.27, 200.92 61.39, 213.2 63.84 M182.29 64.74 C191.99 64.2, 200.52 62.76, 212.81 62.93" stroke="#1e1e1e" stroke-width="1" fill="none"></path></g><g transform="translate(519.5877456665039 433.7036819458008) rotate(0 105.73301961459218 31.68936431966722)"><path d="M186.58 45.83 C195.53 50.36, 203.07 53.36, 213.2 63.84 M187.93 45 C196.04 50.33, 202.9 54.76, 212.81 62.93" stroke="#1e1e1e" stroke-width="1" fill="none"></path></g></g><mask></mask><g stroke-linecap="round" transform="translate(737.8841323852539 460.1481246948242) rotate(0 97.03704833984375 110.74070739746094)"><path d="M32 0 M32 0 C59.99 -3.11, 88.44 -0.78, 162.07 0 M32 0 C72.09 -0.3, 114.74 1.51, 162.07 0 M162.07 0 C181.45 -0.8, 194.6 11.31, 194.07 32 M162.07 0 C185.45 0.37, 195.97 10.95, 194.07 32 M194.07 32 C195.08 77.33, 193.86 120.53, 194.07 189.48 M194.07 32 C193.22 94, 193.65 156.95, 194.07 189.48 M194.07 189.48 C195.58 209.7, 181.8 222.24, 162.07 221.48 M194.07 189.48 C195.85 212.96, 184.52 221.54, 162.07 221.48 M162.07 221.48 C110.51 221.82, 58.05 221.18, 32 221.48 M162.07 221.48 C124.23 219.81, 85.68 220.73, 32 221.48 M32 221.48 C11.45 221.85, 0.08 212.27, 0 189.48 M32 221.48 C9.09 223.73, 2 212.38, 0 189.48 M0 189.48 C0.11 147.6, -0.08 102.76, 0 32 M0 189.48 C-1.21 145.11, -0.61 102.87, 0 32 M0 32 C0.49 11.5, 12.3 0.72, 32 0 M0 32 C-0.55 12.2, 12.95 -0.43, 32 0" stroke="#1e1e1e" stroke-width="1" fill="none"></path></g><g stroke-linecap="round" transform="translate(734.4026260375977 220.3703384399414) rotate(0 95.1851806640625 21.481475830078125)"><path d="M10.74 0 M10.74 0 C74.49 1.07, 138.98 0.63, 179.63 0 M10.74 0 C58.72 1.1, 108.22 0.59, 179.63 0 M179.63 0 C187.24 -1.83, 189.88 3.58, 190.37 10.74 M179.63 0 C187.69 0.42, 190.47 5.25, 190.37 10.74 M190.37 10.74 C191.95 15.25, 188.87 22.29, 190.37 32.22 M190.37 10.74 C190.78 15.63, 191.55 20.9, 190.37 32.22 M190.37 32.22 C191.09 37.75, 188.7 43.94, 179.63 42.96 M190.37 32.22 C190.93 40.34, 188.67 43.79, 179.63 42.96 M179.63 42.96 C132.62 45.86, 87.46 43.08, 10.74 42.96 M179.63 42.96 C144.34 40.72, 110.15 42.32, 10.74 42.96 M10.74 42.96 C2.48 41.75, 1.15 40.57, 0 32.22 M10.74 42.96 C4.89 41.8, -1.55 40.97, 0 32.22 M0 32.22 C-0.15 23.98, 0.24 17.94, 0 10.74 M0 32.22 C0.53 25.68, -0.62 17.31, 0 10.74 M0 10.74 C1.59 4.6, 4.03 1.78, 10.74 0 M0 10.74 C1.94 5.3, 2.27 -0.52, 10.74 0" stroke="#1e1e1e" stroke-width="1" fill="none"></path></g><g transform="translate(804.9078216552734 229.35181427001953) rotate(0 24.67998504638672 12.5)"><text x="24.67998504638672" y="0" font-family="Virgil, Segoe UI Emoji" font-size="20px" fill="#1e1e1e" text-anchor="middle" style="white-space: pre;" direction="ltr" dominant-baseline="text-before-edge">data</text></g><g stroke-linecap="round" transform="translate(741.4397354125977 479.0370559692383) rotate(0 95.1851806640625 21.481475830078125)"><path d="M10.74 0 M10.74 0 C57.73 0.45, 108.75 0.05, 179.63 0 M10.74 0 C71.72 1.63, 134.89 1.06, 179.63 0 M179.63 0 C188.57 1.69, 191.87 2.44, 190.37 10.74 M179.63 0 C186.27 -0.48, 188.2 1.61, 190.37 10.74 M190.37 10.74 C189.7 16.96, 189.14 25.32, 190.37 32.22 M190.37 10.74 C189.3 19.5, 189.42 27.43, 190.37 32.22 M190.37 32.22 C189.38 39.49, 186.21 43.65, 179.63 42.96 M190.37 32.22 C189.25 37.41, 186.2 42.25, 179.63 42.96 M179.63 42.96 C120.64 43.91, 62.13 41.86, 10.74 42.96 M179.63 42.96 C114.23 44.14, 47.5 43.03, 10.74 42.96 M10.74 42.96 C4.23 42.88, -1.37 41.23, 0 32.22 M10.74 42.96 C3.33 41.81, -1.16 40.7, 0 32.22 M0 32.22 C1.12 24.29, 0.31 17.58, 0 10.74 M0 32.22 C-0.91 27.57, -0.17 22.62, 0 10.74 M0 10.74 C0.41 2.39, 3.9 1.84, 10.74 0 M0 10.74 C0.4 3.75, 4.12 -0.04, 10.74 0" stroke="#1e1e1e" stroke-width="1" fill="none"></path></g><g transform="translate(805.5149459838867 488.0185317993164) rotate(0 31.109970092773438 12.5)"><text x="31.109970092773438" y="0" font-family="Virgil, Segoe UI Emoji" font-size="20px" fill="#1e1e1e" text-anchor="middle" style="white-space: pre;" direction="ltr" dominant-baseline="text-before-edge">block#</text></g><g transform="translate(332.18033599853516 10) rotate(0 72.679931640625 12.5)"><text x="0" y="0" font-family="Virgil, Segoe UI Emoji" font-size="20px" fill="#1e1e1e" text-anchor="start" style="white-space: pre;" direction="ltr" dominant-baseline="text-before-edge">inode 64 bytes</text></g><g transform="translate(12.180335998535156 289.25928497314453) rotate(0 110.8099136352539 12.5)"><text x="0" y="0" font-family="Virgil, Segoe UI Emoji" font-size="20px" fill="#1e1e1e" text-anchor="start" style="white-space: pre;" direction="ltr" dominant-baseline="text-before-edge">0~11 direct block index</text></g><g transform="translate(10 381.94437408447266) rotate(0 106.78990936279297 12.5)"><text x="0" y="0" font-family="Virgil, Segoe UI Emoji" font-size="20px" fill="#1e1e1e" text-anchor="start" style="white-space: pre;" direction="ltr" dominant-baseline="text-before-edge">12 indirect block index</text></g></svg>